<?xml version="1.0" encoding="UTF-8"?>
<svg id="Capa_1" data-name="Capa 1" xmlns="http://www.w3.org/2000/svg" xmlns:xlink="http://www.w3.org/1999/xlink" viewBox="0 0 338.3 2061.74">
  <defs>
    <style>
      .cls-1 {
        clip-path: url(#clippath);
      }

      .cls-2, .cls-3 {
        fill: none;
      }

      .cls-3 {
        stroke: #85754e;
        stroke-miterlimit: 10;
        stroke-width: 2px;
      }
    </style>
    <clipPath id="clippath">
      <rect class="cls-2" y="0" width="338.3" height="2061.74"/>
    </clipPath>
  </defs>
  <g class="cls-1">
    <g>
      <g>
        <polygon class="cls-3" points="197.1 1293.03 197.1 681.04 -143.3 1022.72 -143.3 1293.03 197.1 1293.03"/>
        <rect class="cls-3" x="-95.18" y="997.41" width="241.6" height="241.6" transform="translate(-783.2 345.64) rotate(-45)"/>
        <circle class="cls-3" cx="26.57" cy="908.1" r="38.88"/>
        <circle class="cls-3" cx="45.4" cy="1901.67" r="17.39"/>
        <circle class="cls-3" cx="27.53" cy="622.24" r="111.47"/>
        <path class="cls-3" d="M197.1,682.09v-57.78c0-93.65-75.92-169.56-169.56-169.56s-169.56,75.92-169.56,169.56v398.88l-198.25,190.35"/>
        <line class="cls-3" x1="-142.03" y1="624.3" x2="197.1" y2="624.3"/>
        <line class="cls-3" x1="27.53" y1="454.16" x2="27.53" y2="624.3"/>
        <line class="cls-3" x1="64.6" y1="458.81" x2="64.6" y2="624.3"/>
        <polyline class="cls-3" points="27.53 454.74 154.31 332.59 224.31 332.59"/>
        <circle class="cls-3" cx="-2.98" cy="285.41" r="77.37"/>
        <polyline class="cls-3" points="-163.6 149.56 -163.6 281.81 74.4 281.81"/>
        <polyline class="cls-3" points="154.31 149.56 -277.3 149.56 -165.67 33.01"/>
        <line class="cls-3" x1="74.4" y1="-.57" x2="74.4" y2="281.81"/>
        <line class="cls-3" x1="154.31" y1="-2.11" x2="154.31" y2="332.59"/>
        <line class="cls-3" x1="154.31" y1="90.35" x2="371.38" y2="90.35"/>
        <line class="cls-3" x1="154.31" y1="247.71" x2="285.13" y2="247.71"/>
        <polygon class="cls-3" points="317.3 247.69 301.23 263.8 285.12 247.69 301.19 231.58 317.3 247.69"/>
        <line class="cls-3" x1="5.2" y1="731.47" x2="5.2" y2="873.83"/>
        <line class="cls-3" x1="58.88" y1="729.22" x2="58.88" y2="820.54"/>
      </g>
      <g>
        <polygon class="cls-3" points="94.84 1594.58 19.15 1669.06 170.53 1669.06 94.84 1594.58"/>
        <polygon class="cls-3" points="94.84 1743.53 170.53 1669.06 19.16 1669.06 94.84 1743.53"/>
        <path class="cls-3" d="M186.57,1618.35v276.69c0,49.63-40.23,89.86-89.86,89.86H0"/>
        <path class="cls-3" d="M145,1643.93c46.25-16.69,79.31-60.97,79.31-112.97,0-66.31-53.75-120.06-120.06-120.06h-9.41"/>
        <path class="cls-3" d="M94.51,1743.49c-74.35-1.95-134.01-62.83-134.01-137.65,0-75.07,60.08-136.11,134.78-137.67"/>
        <line class="cls-3" x1="94.84" y1="1293.03" x2="94.84" y2="1594.58"/>
        <line class="cls-3" x1="44.71" y1="1293.03" x2="44.71" y2="1478.92"/>
        <polygon class="cls-3" points="144.28 1793.03 94.9 1842.52 45.4 1793.03 94.78 1743.54 144.28 1793.03"/>
        <line class="cls-3" x1="45.4" y1="1733.05" x2="45.4" y2="1884.28"/>
      </g>
    </g>
  </g>
</svg>