<?xml version="1.0" encoding="UTF-8"?>
<svg id="Capa_1" data-name="Capa 1" xmlns="http://www.w3.org/2000/svg" viewBox="0 0 610.51 129.94">
  <defs>
    <style>
      .cls-1 {
        fill: #84754e;
      }

      .cls-2 {
        fill: #f4f0e4;
      }
    </style>
  </defs>
  <path class="cls-1" d="M72.02,0H610.51V44.11c0,47.37-38.46,85.84-85.84,85.84H0v-57.93C0,32.27,32.27,0,72.02,0Z"/>
  <g>
    <g>
      <g>
        <path class="cls-2" d="M76.52,111.24h-1.41l-5.68-8.61v8.61h-1.41v-10.83h1.41l5.68,8.59v-8.59h1.41v10.83Z"/>
        <path class="cls-2" d="M84.81,110.64c-.83-.47-1.48-1.13-1.96-1.97s-.72-1.79-.72-2.85,.24-2,.72-2.85,1.13-1.5,1.96-1.97c.83-.47,1.74-.71,2.75-.71s1.93,.24,2.76,.71c.83,.47,1.48,1.12,1.95,1.96,.48,.84,.71,1.79,.71,2.85s-.24,2.02-.71,2.85c-.48,.84-1.13,1.49-1.95,1.96-.83,.47-1.75,.71-2.76,.71s-1.92-.24-2.75-.71Zm4.79-1.05c.6-.35,1.08-.85,1.43-1.5,.35-.65,.52-1.41,.52-2.26s-.17-1.63-.52-2.27c-.35-.65-.82-1.15-1.42-1.5-.6-.35-1.28-.53-2.05-.53s-1.45,.18-2.05,.53c-.6,.35-1.07,.85-1.42,1.5-.35,.65-.52,1.4-.52,2.27s.17,1.61,.52,2.26c.35,.65,.82,1.15,1.43,1.5,.6,.35,1.29,.53,2.04,.53s1.44-.18,2.04-.53Z"/>
        <path class="cls-2" d="M107.5,100.42l-4.08,10.81h-1.63l-4.08-10.81h1.5l3.4,9.32,3.4-9.32h1.49Z"/>
        <path class="cls-2" d="M118.67,104.95v1.19h-6.19v-1.19h6.19Z"/>
        <path class="cls-2" d="M133.38,100.42v10.81h-1.41v-4.9h-5.51v4.9h-1.41v-10.81h1.41v4.75h5.51v-4.75h1.41Z"/>
        <path class="cls-2" d="M141.66,110.64c-.83-.47-1.48-1.13-1.96-1.97s-.72-1.79-.72-2.85,.24-2,.72-2.85,1.13-1.5,1.96-1.97c.83-.47,1.74-.71,2.75-.71s1.93,.24,2.76,.71c.83,.47,1.48,1.12,1.95,1.96,.48,.84,.71,1.79,.71,2.85s-.24,2.02-.71,2.85c-.48,.84-1.13,1.49-1.95,1.96-.83,.47-1.75,.71-2.76,.71s-1.92-.24-2.75-.71Zm4.79-1.05c.6-.35,1.08-.85,1.43-1.5,.35-.65,.52-1.41,.52-2.26s-.17-1.63-.52-2.27c-.35-.65-.82-1.15-1.42-1.5-.6-.35-1.28-.53-2.05-.53s-1.45,.18-2.05,.53c-.6,.35-1.07,.85-1.42,1.5-.35,.65-.52,1.4-.52,2.27s.17,1.61,.52,2.26c.35,.65,.82,1.15,1.43,1.5,.6,.35,1.29,.53,2.04,.53s1.44-.18,2.04-.53Z"/>
        <path class="cls-2" d="M162.07,100.42v1.15h-2.95v9.66h-1.41v-9.66h-2.96v-1.15h7.32Z"/>
        <path class="cls-2" d="M168.94,101.57v3.61h3.94v1.16h-3.94v3.72h4.41v1.16h-5.82v-10.83h5.82v1.16h-4.41Z"/>
        <path class="cls-2" d="M180.62,110.09h3.79v1.15h-5.2v-10.81h1.41v9.66Z"/>
        <path class="cls-2" d="M205.83,100.42v10.81h-1.41v-4.9h-5.51v4.9h-1.41v-10.81h1.41v4.75h5.51v-4.75h1.41Z"/>
        <path class="cls-2" d="M219.53,100.42l-3.52,6.73v4.08h-1.41v-4.08l-3.54-6.73h1.57l2.67,5.48,2.67-5.48h1.57Z"/>
        <path class="cls-2" d="M231.13,108.83h-4.72l-.87,2.4h-1.49l3.91-10.75h1.63l3.89,10.75h-1.49l-.87-2.4Zm-.4-1.15l-1.95-5.46-1.95,5.46h3.91Z"/>
        <path class="cls-2" d="M245.31,108.83h-4.72l-.87,2.4h-1.49l3.91-10.75h1.63l3.89,10.75h-1.49l-.87-2.4Zm-.4-1.15l-1.95-5.46-1.95,5.46h3.91Z"/>
        <path class="cls-2" d="M259.75,100.42v1.15h-2.95v9.66h-1.41v-9.66h-2.96v-1.15h7.32Z"/>
      </g>
      <g>
        <path class="cls-2" d="M77.74,25.68c2.79,0,6.46,.82,6.46,4.22,0,1.57-.87,2.94-2.79,3.64,2.6,.65,3.76,2.22,3.76,4.36,0,2.79-2.02,4.65-6.53,4.65h-6.05c-.07,0-.12-.05-.12-.12V25.8c0-.07,.05-.12,.12-.12h5.16Zm-2.94,7.42c0,.07,.05,.12,.12,.12h2.36c2.99,0,4.48-1.11,4.48-3.33s-1.49-3.35-4.48-3.35h-2.36c-.07,0-.12,.05-.12,.12v6.43Zm3.45,8.58c2.92,0,4.48-1.42,4.48-3.86s-1.66-3.73-4.48-3.73h-3.32c-.07,0-.12,.02-.12,.1v7.37c0,.07,.05,.12,.12,.12h3.32Z"/>
        <path class="cls-2" d="M104.13,25.22c5.28,.19,8.77,4,8.58,9.13-.19,5.11-3.9,8.62-9.23,8.43-5.3-.19-8.79-4.05-8.6-9.13,.19-5.01,3.88-8.63,9.25-8.43Zm5.88,10.58c.39-5.3-1.57-9.32-5.98-9.78-3.28-.31-6.12,2-6.63,6.38-.58,4.55,1.57,9.2,6,9.71,3.25,.38,6.34-1.93,6.6-6.31Z"/>
        <path class="cls-2" d="M137.03,28.79c.02,.07,0,.12-.05,.17l-.34,.17c-.07,.02-.12,.02-.14-.05-1.04-1.93-3.11-2.89-5.23-2.89-4.05,0-6.43,3.16-6.43,6.91,0,4.67,2.84,8.75,7.4,8.75,1.23,0,2.43-.34,3.57-1.08,.02-.02,.05-.07,.05-.1v-5.73c0-.27,.12-.39,.39-.39h1.49c.07,0,.12,.02,.12,.1v6.62s-.02,.07-.07,.12c-4.65,1.23-5.4,1.4-6.6,1.4-4.82,0-8.75-3.57-8.75-8.67s3.66-8.65,8.51-8.65c2.51,0,4.82,1.11,6.1,3.32Z"/>
        <path class="cls-2" d="M157.54,25.22c5.28,.19,8.77,4,8.58,9.13-.19,5.11-3.9,8.62-9.23,8.43-5.3-.19-8.79-4.05-8.6-9.13,.19-5.01,3.88-8.63,9.25-8.43Zm5.88,10.58c.39-5.3-1.57-9.32-5.98-9.78-3.28-.31-6.12,2-6.63,6.38-.58,4.55,1.57,9.2,6,9.71,3.25,.38,6.34-1.93,6.6-6.31Z"/>
        <path class="cls-2" d="M171.66,25.8c0-.07,.02-.12,.1-.12h3.13c2.6,0,9.06,.05,11.2,.05,.07,.02,.12,.07,.12,.12v.53c0,.07-.05,.1-.12,.1h-5.9c-.07,0-.12,.02-.12,.1,0,3.21,.02,11.93,.02,15.71v.14c0,.07-.02,.12-.1,.12h-2.12c-.07,0-.12-.05-.12-.12v-15.83c0-.07-.02-.12-.1-.12h-5.9c-.07,0-.1-.02-.1-.1v-.58Z"/>
        <path class="cls-2" d="M198.46,33.99c.67-1.93,1.4-3.9,2.14-6.05l.77-2.19s.02-.07,.1-.07h2.14s.1,.02,.12,.07l2.7,7.81c1.23,3.54,2.51,7.23,3.08,8.84,.02,.1-.02,.14-.1,.14h-2.26c-.07,0-.1-.02-.1-.07-.77-2.17-2.24-6.51-2.43-7.08-.02-.05-.07-.07-.12-.07h-5.52c-.07,0-.1,.02-.12,.07l-2.51,7.08s-.02,.07-.1,.07h-.7c-.1,0-.12-.05-.1-.14l2.99-8.41Zm5.66,.48c.07,0,.12-.05,.1-.14l-2.34-6.77c-.07-.1-.14-.1-.22,0l-2.39,6.77c-.02,.1,0,.14,.1,.14h4.75Zm-1.76-14.91c.22-.48,.6-.67,1.01-.67,.55,0,1.01,.34,1.01,.79,0,.27-.1,.48-.31,.7l-2.84,2.99h-.63l1.76-3.81Z"/>
      </g>
      <g>
        <path class="cls-2" d="M83.48,62.41c0-5.94-3.67-9.4-8.05-9.4-3.15,0-6.66,1.81-9.29,5.78-.05,.05-.15,.1-.21,.1h-1.03c-.15,0-.31-.21-.15-.36,2.63-4.13,6.4-6.71,11.36-6.71,5.78,0,12.08,3.82,12.08,10.07,0,2.68-.77,5.47-2.58,8.16-3.72,5.78-10.28,11.05-14.51,14.04-.21,.15-.1,.41,.16,.41h15.03c.15,0,.21,.1,.21,.26v3.46c0,.15-.05,.21-.21,.21h-21.74c-.26,0-.36-.26-.15-.41,4.6-3.77,19.1-14.56,19.1-25.61Z"/>
        <path class="cls-2" d="M104.45,69.23c-3.51-2.63-6.4-5.47-6.4-8.78,0-5.78,5.42-8.67,10.79-8.67,4.96,0,9.81,2.48,9.81,7.38,0,3.72-2.32,6.66-6.45,9.29-.15,.05-.15,.21,0,.36,4.7,3.3,9.45,6.66,9.45,11,0,6.04-6.76,9.09-13.32,9.09-6.2,0-12.34-2.74-12.34-8.11,0-4.13,3.05-7.64,8.47-11.15,.15-.16,.15-.26,0-.41Zm12.44,12.08c0-3.82-5.63-7.12-10.84-10.84-.05-.05-.16-.05-.26,0-3.46,2.22-6.45,5.68-6.45,9.86,0,4.96,4.54,7.28,9.04,7.28s8.52-2.17,8.52-6.3Zm-6.3-13.58c.1,.05,.21,.05,.31,0,2.74-2.07,4.75-4.7,4.75-8.42,0-4.13-3.3-6.25-6.61-6.25s-6.3,2.07-6.3,5.99c0,3.1,3.72,5.78,7.85,8.67Z"/>
        <path class="cls-2" d="M131.46,74.23v-2.01h15.44v2.01h-15.44Z"/>
        <path class="cls-2" d="M175.5,62.41c0-5.94-3.67-9.4-8.06-9.4-3.15,0-6.66,1.81-9.29,5.78-.05,.05-.16,.1-.21,.1h-1.03c-.16,0-.31-.21-.16-.36,2.63-4.13,6.4-6.71,11.36-6.71,5.78,0,12.08,3.82,12.08,10.07,0,2.68-.77,5.47-2.58,8.16-3.72,5.78-10.28,11.05-14.51,14.04-.21,.15-.1,.41,.15,.41h15.03c.15,0,.21,.1,.21,.26v3.46c0,.15-.05,.21-.21,.21h-21.74c-.26,0-.36-.26-.15-.41,4.6-3.77,19.11-14.56,19.11-25.61Z"/>
        <path class="cls-2" d="M212.73,66.85c0,13.06-9.29,21.27-17.87,22.1-.15,0-.26-.1-.26-.26v-.46c0-.16,.05-.21,.21-.21,6.3-.83,10.95-7.28,12.44-15.65,.05-.26-.26-.36-.41-.21-2.22,2.74-5.11,3.92-8.06,3.92-5.52,0-10.79-4.39-10.79-11.67,0-6.25,4.75-12.86,12.24-12.86s12.5,7.49,12.5,15.29Zm-12.81,7.75c1.81,.15,3.72-.62,5.52-2.89,1.86-2.22,2.48-5.47,2.12-8.37-.41-4.13-2.07-10.58-7.33-10.58-6.14,0-7.9,7.85-7.49,12.65,.41,4.29,3.46,8.78,7.18,9.19Z"/>
      </g>
    </g>
    <g>
      <g>
        <path class="cls-2" d="M330.06,100.42v10.81h-1.41v-4.9h-5.51v4.9h-1.41v-10.81h1.41v4.75h5.51v-4.75h1.41Z"/>
        <path class="cls-2" d="M340.21,110.64c-.83-.47-1.48-1.13-1.96-1.97s-.72-1.79-.72-2.85,.24-2,.72-2.85,1.13-1.5,1.96-1.97c.83-.47,1.74-.71,2.75-.71s1.93,.24,2.76,.71c.83,.47,1.48,1.12,1.95,1.96,.48,.84,.71,1.79,.71,2.85s-.24,2.02-.71,2.85c-.48,.84-1.13,1.49-1.95,1.96-.83,.47-1.75,.71-2.76,.71s-1.92-.24-2.75-.71Zm4.79-1.05c.6-.35,1.08-.85,1.43-1.5,.35-.65,.52-1.41,.52-2.26s-.17-1.63-.52-2.27c-.35-.65-.82-1.15-1.42-1.5-.6-.35-1.28-.53-2.05-.53s-1.45,.18-2.05,.53c-.6,.35-1.07,.85-1.42,1.5-.35,.65-.52,1.4-.52,2.27s.17,1.61,.52,2.26c.35,.65,.82,1.15,1.43,1.5,.6,.35,1.29,.53,2.04,.53s1.44-.18,2.04-.53Z"/>
        <path class="cls-2" d="M362.48,100.42v1.15h-2.95v9.66h-1.41v-9.66h-2.96v-1.15h7.32Z"/>
        <path class="cls-2" d="M371.22,101.57v3.61h3.94v1.16h-3.94v3.72h4.41v1.16h-5.82v-10.83h5.82v1.16h-4.41Z"/>
        <path class="cls-2" d="M384.76,110.09h3.79v1.15h-5.2v-10.81h1.41v9.66Z"/>
        <path class="cls-2" d="M416.33,100.5v10.73h-1.41v-8l-3.57,8h-.99l-3.58-8.02v8.02h-1.41v-10.73h1.52l3.97,8.87,3.97-8.87h1.5Z"/>
        <path class="cls-2" d="M430.69,108.83h-4.72l-.87,2.4h-1.49l3.91-10.75h1.63l3.89,10.75h-1.49l-.87-2.4Zm-.4-1.15l-1.95-5.46-1.95,5.46h3.91Z"/>
        <path class="cls-2" d="M446.03,111.24l-2.57-4.42h-1.71v4.42h-1.41v-10.81h3.49c.82,0,1.51,.14,2.07,.42s.99,.66,1.26,1.13c.28,.48,.42,1.02,.42,1.63,0,.75-.21,1.4-.64,1.97-.43,.57-1.07,.95-1.93,1.13l2.71,4.53h-1.69Zm-4.28-5.55h2.08c.77,0,1.34-.19,1.72-.57,.38-.38,.57-.88,.57-1.51s-.19-1.14-.57-1.49c-.38-.35-.95-.53-1.73-.53h-2.08v4.1Z"/>
        <path class="cls-2" d="M461.05,111.24l-2.57-4.42h-1.71v4.42h-1.41v-10.81h3.49c.82,0,1.51,.14,2.07,.42s.99,.66,1.26,1.13c.28,.48,.42,1.02,.42,1.63,0,.75-.21,1.4-.64,1.97-.43,.57-1.07,.95-1.93,1.13l2.71,4.53h-1.69Zm-4.28-5.55h2.08c.77,0,1.34-.19,1.72-.57,.38-.38,.57-.88,.57-1.51s-.19-1.14-.57-1.49c-.38-.35-.95-.53-1.73-.53h-2.08v4.1Z"/>
        <path class="cls-2" d="M471.78,100.42v10.81h-1.41v-10.81h1.41Z"/>
        <path class="cls-2" d="M481.92,110.64c-.83-.47-1.48-1.13-1.96-1.97s-.72-1.79-.72-2.85,.24-2,.72-2.85,1.13-1.5,1.96-1.97c.83-.47,1.74-.71,2.75-.71s1.93,.24,2.76,.71c.83,.47,1.48,1.12,1.95,1.96,.48,.84,.71,1.79,.71,2.85s-.24,2.02-.71,2.85c-.48,.84-1.13,1.49-1.95,1.96-.83,.47-1.75,.71-2.76,.71s-1.92-.24-2.75-.71Zm4.79-1.05c.6-.35,1.08-.85,1.43-1.5,.35-.65,.52-1.41,.52-2.26s-.17-1.63-.52-2.27c-.35-.65-.82-1.15-1.42-1.5-.6-.35-1.28-.53-2.05-.53s-1.45,.18-2.05,.53c-.6,.35-1.07,.85-1.42,1.5-.35,.65-.52,1.4-.52,2.27s.17,1.61,.52,2.26c.35,.65,.82,1.15,1.43,1.5,.6,.35,1.29,.53,2.04,.53s1.44-.18,2.04-.53Z"/>
        <path class="cls-2" d="M504.2,100.42v1.15h-2.95v9.66h-1.41v-9.66h-2.96v-1.15h7.32Z"/>
      </g>
      <g>
        <path class="cls-2" d="M326.18,38.5c0-3.49,.02-9.9,.02-12.72,0-.07,.02-.1,.1-.1h2.17s.07,.02,.1,.07l6.14,13.95c.02,.07,.17,.07,.19,0l6.29-13.95s.02-.07,.1-.07h2.19c.07,0,.12,.05,.12,.12v16.62c0,.07-.05,.12-.12,.12h-2.12c-.07,0-.1-.05-.1-.12v-14.19c0-.12-.14-.14-.22-.05l-6.43,14.29s-.07,.07-.1,.07h-1.04s-.07-.02-.1-.07l-6.12-13.95c-.07-.12-.22-.07-.22,.02v13.88c0,.07-.02,.12-.1,.12h-.65c-.07,0-.12-.05-.12-.12v-3.93Z"/>
        <path class="cls-2" d="M354.69,25.8c0-.07,.05-.12,.12-.12h9.35c.07,0,.12,.05,.12,.12v.65c0,.07-.05,.1-.12,.1h-7.04c-.07,0-.1,.05-.1,.12v6.6c0,.07,.02,.12,.1,.12h5.54c.07,0,.12,.02,.12,.1v.65c0,.07-.05,.12-.12,.12h-5.52c-.07,0-.12,.02-.12,.1v7.2c0,.07,.05,.12,.12,.12h7.01c.07,0,.12,.02,.12,.1v.65c0,.07-.05,.12-.12,.12h-9.35c-.07,0-.12-.05-.12-.12V25.8Z"/>
        <path class="cls-2" d="M379.34,25.68c5.13,0,8.89,3.06,8.89,8.43,0,4.87-3.47,8.43-8.84,8.43h-4.84c-.07,0-.12-.05-.12-.12V25.8c0-.07,.05-.12,.12-.12h4.79Zm-2.58,15.88c0,.07,.05,.12,.12,.12h3.13c3.23,0,5.76-2.43,5.83-6.36,.12-4.36-2.02-8.77-6.65-8.77h-2.31c-.07,0-.12,.05-.12,.12v14.89Z"/>
        <path class="cls-2" d="M398.6,25.8c0-.07,.05-.12,.12-.12h9.35c.07,0,.12,.05,.12,.12v.65c0,.07-.05,.1-.12,.1h-7.04c-.07,0-.1,.05-.1,.12v6.6c0,.07,.02,.12,.1,.12h5.54c.07,0,.12,.02,.12,.1v.65c0,.07-.05,.12-.12,.12h-5.52c-.07,0-.12,.02-.12,.1v7.2c0,.07,.05,.12,.12,.12h7.01c.07,0,.12,.02,.12,.1v.65c0,.07-.05,.12-.12,.12h-9.35c-.07,0-.12-.05-.12-.12V25.8Z"/>
        <path class="cls-2" d="M418.34,25.75c0-.07,.05-.12,.12-.12h2.12c.07,0,.1,.05,.1,.12v15.8c0,.07,.05,.12,.12,.12h7.01c.07,0,.12,.02,.12,.1v.65c0,.07-.05,.12-.12,.12h-9.35c-.07,0-.12-.05-.12-.12V25.75Z"/>
        <path class="cls-2" d="M438.07,25.75c0-.07,.05-.12,.12-.12h2.12c.07,0,.1,.05,.1,.12v15.8c0,.07,.05,.12,.12,.12h7.01c.07,0,.12,.02,.12,.1v.65c0,.07-.05,.12-.12,.12h-9.35c-.07,0-.12-.05-.12-.12V25.75Z"/>
        <path class="cls-2" d="M458.85,19.56c.22-.48,.6-.67,1.01-.67,.55,0,1.01,.34,1.01,.79,0,.27-.1,.48-.31,.7l-2.84,2.99h-.63l1.76-3.81Zm-1.04,6.22c0-.07,.05-.1,.12-.1h2.1c.07,0,.12,.02,.12,.1v16.65c0,.07-.02,.12-.1,.12h-2.24V25.78Z"/>
        <path class="cls-2" d="M471.23,25.99c0-.22,.1-.31,.31-.31h1.9c.1,0,.19,.05,.27,.12l9.01,12.43c.07,.07,.17,.12,.24,.12,.22,0,.31-.1,.31-.31v-12.05c0-.22,.1-.31,.31-.31h.24c.22,0,.31,.1,.31,.31v16.24c0,.22-.1,.31-.31,.31h-.72c-.12,0-.22-.05-.27-.12l-10.19-14.07c-.07-.07-.17-.12-.24-.12-.22,0-.31,.1-.31,.31v13.68c0,.22-.1,.31-.31,.31h-.24c-.22,0-.31-.1-.31-.31V25.99Z"/>
      </g>
      <g>
        <path class="cls-2" d="M328.83,51.77c6.45,0,10.17,3.92,10.17,8,0,2.74-1.7,5.52-5.42,7.23-.21,.05-.21,.36,.05,.41,5.94,1.39,8.57,5.58,8.57,9.71,0,6.2-5.37,11.82-12.96,11.82-5.47,0-9.45-2.94-11.1-6.2-.15-.16-.1-.26,.1-.31l.67-.31c.1-.05,.21,0,.31,.1,2.07,3.87,6.04,5.01,8.78,5.01,5.78,0,9.35-4.39,9.35-9.76s-2.84-8.47-8.21-8.88c-.26,0-.31-.36-.1-.41,3.72-1.6,5.63-4.85,5.63-8.37s-2.07-6.76-6.04-6.76l.05,.05c-4.49,0-7.49,2.79-9.29,6.35-.05,.21-.21,.21-.36,.05-.26-.21-.52-.46-.88-.72-.05-.05-.1-.16-.1-.26,1.5-3.72,5.52-6.76,10.79-6.76Z"/>
        <path class="cls-2" d="M362.86,51.72c6.76,0,12.24,6.45,12.24,18.49s-5.52,18.33-12.29,18.33-12.34-6.4-12.34-18.33,5.58-18.49,12.39-18.49Zm7.18,18.69c0-10.74-2.89-17.45-7.23-17.45s-7.28,6.71-7.28,17.45,2.94,17.25,7.28,17.25,7.23-6.71,7.23-17.25Z"/>
        <path class="cls-2" d="M408.56,74.23v-2.01h15.44v2.01h-15.44Z"/>
        <path class="cls-2" d="M446.2,51.72c6.76,0,12.24,6.45,12.24,18.49s-5.52,18.33-12.29,18.33-12.34-6.4-12.34-18.33,5.58-18.49,12.39-18.49Zm7.18,18.69c0-10.74-2.89-17.45-7.23-17.45s-7.28,6.71-7.28,17.45,2.94,17.25,7.28,17.25,7.23-6.71,7.23-17.25Z"/>
        <path class="cls-2" d="M466.24,56.83c0-.05,.05-.16,.1-.21l6.82-4.8c.05-.05,.1-.05,.1-.05h.41c.15,0,.21,.1,.21,.26v36.2c0,.15-.05,.21-.21,.21h-4.44c-.15,0-.26-.05-.26-.21v-30.52c0-.16-.05-.26-.21-.26l-2.32-.05c-.15,0-.21-.05-.21-.21v-.36Z"/>
      </g>
    </g>
    <g>
      <path class="cls-2" d="M389.42,80.37v1.41l-8.61,5.68h8.61v1.41h-10.83v-1.41l8.59-5.68h-8.59v-1.41h10.83Z"/>
      <path class="cls-2" d="M389.02,70.84c-.36,.65-.88,1.15-1.54,1.52s-1.44,.55-2.32,.55-1.64-.19-2.3-.57-1.18-.89-1.54-1.54c-.36-.65-.54-1.38-.54-2.19s.18-1.54,.54-2.19,.87-1.17,1.53-1.54c.66-.38,1.43-.57,2.31-.57s1.65,.19,2.32,.58,1.18,.91,1.54,1.57c.36,.66,.54,1.4,.54,2.2s-.18,1.52-.54,2.16Zm-1.05-3.59c-.24-.44-.59-.8-1.07-1.08-.48-.27-1.06-.41-1.74-.41s-1.26,.13-1.74,.4c-.48,.27-.83,.62-1.06,1.05-.23,.43-.35,.91-.35,1.41s.12,.99,.35,1.42c.23,.43,.59,.77,1.06,1.03,.48,.26,1.05,.39,1.74,.39s1.28-.13,1.75-.38c.48-.25,.83-.59,1.06-1.02,.23-.42,.35-.89,.35-1.4s-.12-.98-.36-1.43Z"/>
      <path class="cls-2" d="M388.12,53.71l-7.2-2.64v-1.5l8.5,3.33v1.64l-8.5,3.33v-1.52l7.2-2.65Z"/>
    </g>
    <g>
      <path class="cls-2" d="M484.62,82.44c.44-.86,1.07-1.52,1.88-1.99,.82-.46,1.78-.69,2.89-.69,1.11,0,2.07,.23,2.88,.69,.81,.46,1.43,1.12,1.86,1.99s.64,1.88,.64,3.06v3.37h-10.81v-3.37c0-1.18,.22-2.2,.66-3.06Zm7.88-.13c-.74-.73-1.78-1.1-3.11-1.1s-2.39,.37-3.15,1.11c-.75,.74-1.13,1.8-1.13,3.19v1.96h8.5v-1.95c0-1.4-.37-2.46-1.11-3.2Z"/>
      <path class="cls-2" d="M483.96,70.91h10.81v1.41h-10.81v-1.41Z"/>
      <path class="cls-2" d="M486.51,62.74c-.84-.48-1.5-1.12-1.98-1.95s-.71-1.74-.71-2.74c0-1.18,.28-2.21,.85-3.09s1.38-1.52,2.42-1.92v1.69c-.65,.3-1.15,.73-1.5,1.29s-.53,1.24-.53,2.02,.18,1.43,.53,2.03,.85,1.07,1.5,1.41c.65,.34,1.4,.51,2.27,.51s1.61-.17,2.26-.51c.65-.34,1.15-.81,1.5-1.41s.53-1.28,.53-2.03-.17-1.46-.52-2.02c-.35-.56-.85-1-1.5-1.29v-1.69c1.03,.4,1.83,1.04,2.4,1.92,.56,.88,.85,1.91,.85,3.09,0,1-.24,1.92-.71,2.74-.47,.82-1.12,1.47-1.96,1.95-.84,.48-1.78,.71-2.84,.71s-2-.24-2.85-.71Z"/>
    </g>
  </g>
</svg>