<?xml version="1.0" encoding="UTF-8"?>
<svg id="Capa_1" data-name="Capa 1" xmlns="http://www.w3.org/2000/svg" xmlns:xlink="http://www.w3.org/1999/xlink" viewBox="0 0 456.7 154.53">
  <defs>
    <style>
      .cls-1 {
        fill: #fff;
      }

      .cls-2 {
        fill: #85754e;
      }

      .cls-3 {
        clip-path: url(#clippath);
      }

      .cls-4 {
        fill: none;
      }
    </style>
    <clipPath id="clippath">
      <path class="cls-4" d="M0,.08H450.71V90.19c0,35.51-28.83,64.35-64.35,64.35H0V.08H0Z"/>
    </clipPath>
  </defs>
  <g class="cls-3">
    <rect class="cls-2" x="-3.49" width="460.19" height="160.53"/>
  </g>
  <g>
    <g>
      <path class="cls-1" d="M247.11,97.69c0-.19,.08-.28,.28-.28h1.67c.08,0,.17,.04,.23,.11l7.93,10.94c.06,.06,.15,.11,.21,.11,.19,0,.28-.08,.28-.28v-10.6c0-.19,.08-.28,.28-.28h.21c.19,0,.28,.08,.28,.28v14.29c0,.19-.08,.28-.28,.28h-.64c-.11,0-.19-.04-.23-.11l-8.96-12.38c-.06-.06-.15-.11-.21-.11-.19,0-.28,.08-.28,.28v12.04c0,.19-.08,.28-.28,.28h-.21c-.19,0-.28-.08-.28-.28v-14.29Z"/>
      <path class="cls-1" d="M271.97,97.01c4.64,.17,7.71,3.52,7.54,8.03-.17,4.49-3.43,7.59-8.12,7.42-4.66-.17-7.74-3.56-7.57-8.03,.17-4.41,3.41-7.59,8.14-7.42Zm5.17,9.3c.34-4.66-1.38-8.2-5.26-8.6-2.88-.28-5.38,1.76-5.83,5.62-.51,4.01,1.38,8.1,5.28,8.54,2.86,.34,5.57-1.7,5.81-5.55Z"/>
      <path class="cls-1" d="M285.18,97.41c.06,0,.08,.02,.08,.06l4.47,12.82c.06,.08,.13,.08,.19,0,.59-1.59,3.52-10.03,4.54-12.82,0-.04,.02-.06,.08-.06h.59c.08,0,.13,.04,.11,.13l-5.21,14.65s-.02,.06-.08,.06h-1.63c-.06,0-.08-.02-.11-.06l-5.11-14.65c-.02-.08,0-.13,.08-.13h1.99Z"/>
      <path class="cls-1" d="M348.64,97.41c4.51,0,7.82,2.69,7.82,7.42,0,4.28-3.05,7.42-7.78,7.42h-4.26c-.06,0-.11-.04-.11-.11v-14.62c0-.06,.04-.11,.11-.11h4.22Zm-2.27,13.97c0,.06,.04,.11,.11,.11h2.75c2.84,0,5.07-2.14,5.13-5.6,.11-3.84-1.78-7.71-5.85-7.71h-2.03c-.06,0-.11,.04-.11,.11v13.1Z"/>
      <path class="cls-1" d="M361.76,97.5c0-.06,.04-.08,.11-.08h1.84c.06,0,.11,.02,.11,.08v14.65c0,.06-.02,.11-.08,.11h-1.97v-14.75Z"/>
      <path class="cls-1" d="M377.21,97.22c2.2,.15,3.92,1.33,4.85,3.29,.02,.06,0,.11-.06,.13l-.19,.08c-.06,.02-.08,0-.11-.04-1-2.03-2.59-2.8-5.04-2.8-2.63,0-5.43,1.95-5.43,6,0,4.34,3.16,7.5,6.74,7.5,1.53,0,3.07-.55,4.34-1.91,.02-.06,.06-.06,.13,0l.06,.06s.04,.08,.02,.13c-1.36,1.87-3.43,2.8-5.72,2.8-4.24,0-7.69-3.14-7.69-7.63,0-2.56,1.04-4.92,3.24-6.36,1.44-.93,3.16-1.36,4.85-1.25Z"/>
    </g>
    <g>
      <path class="cls-1" d="M255.45,124.51v8.65h-1.74v-3.68h-3.71v3.68h-1.74v-8.65h1.74v3.56h3.71v-3.56h1.74Z"/>
      <path class="cls-1" d="M259.56,132.68c-.68-.38-1.21-.91-1.61-1.58-.4-.67-.59-1.44-.59-2.29s.2-1.6,.59-2.27c.4-.67,.93-1.2,1.61-1.58s1.42-.57,2.23-.57,1.56,.19,2.24,.57c.67,.38,1.21,.91,1.6,1.58,.39,.67,.59,1.43,.59,2.27s-.2,1.61-.59,2.29c-.39,.67-.93,1.2-1.61,1.58-.68,.38-1.42,.57-2.23,.57s-1.55-.19-2.23-.57Zm3.61-1.33c.4-.24,.71-.57,.93-1.01,.22-.44,.33-.95,.33-1.52s-.11-1.08-.33-1.52c-.22-.43-.53-.77-.93-1-.4-.23-.86-.35-1.38-.35s-.98,.12-1.38,.35c-.4,.23-.71,.56-.94,1-.22,.43-.33,.94-.33,1.52s.11,1.09,.33,1.52c.22,.44,.54,.77,.94,1.01,.4,.24,.86,.35,1.38,.35s.98-.12,1.38-.35Z"/>
      <path class="cls-1" d="M273.99,124.51v1.4h-2.3v7.25h-1.74v-7.25h-2.31v-1.4h6.35Z"/>
      <path class="cls-1" d="M277.6,125.91v2.17h2.91v1.38h-2.91v2.29h3.28v1.41h-5.02v-8.66h5.02v1.41h-3.28Z"/>
      <path class="cls-1" d="M284.8,131.79h2.85v1.38h-4.59v-8.65h1.74v7.28Z"/>
      <path class="cls-1" d="M302.35,124.51v8.65h-1.74v-5.63l-2.32,5.63h-1.31l-2.33-5.63v5.63h-1.74v-8.65h1.97l2.75,6.43,2.75-6.43h1.96Z"/>
      <path class="cls-1" d="M309.97,131.52h-3.45l-.57,1.65h-1.82l3.11-8.66h2.02l3.11,8.66h-1.83l-.57-1.65Zm-.47-1.39l-1.25-3.62-1.25,3.62h2.5Z"/>
      <path class="cls-1" d="M318.61,133.16l-1.91-3.37h-.82v3.37h-1.74v-8.65h3.25c.67,0,1.24,.12,1.71,.35,.47,.24,.82,.55,1.06,.95,.24,.4,.35,.85,.35,1.34,0,.57-.17,1.08-.5,1.54-.33,.46-.82,.77-1.48,.95l2.07,3.51h-2.01Zm-2.73-4.67h1.45c.47,0,.82-.11,1.05-.34s.35-.54,.35-.95-.12-.7-.35-.92c-.23-.22-.58-.33-1.05-.33h-1.45v2.54Z"/>
      <path class="cls-1" d="M327.17,133.16l-1.91-3.37h-.82v3.37h-1.74v-8.65h3.25c.67,0,1.24,.12,1.71,.35,.47,.24,.82,.55,1.06,.95,.24,.4,.35,.85,.35,1.34,0,.57-.17,1.08-.5,1.54-.33,.46-.82,.77-1.48,.95l2.07,3.51h-2.01Zm-2.73-4.67h1.45c.47,0,.82-.11,1.05-.34s.35-.54,.35-.95-.12-.7-.35-.92c-.23-.22-.58-.33-1.05-.33h-1.45v2.54Z"/>
      <path class="cls-1" d="M332.99,124.51v8.65h-1.74v-8.65h1.74Z"/>
      <path class="cls-1" d="M337.09,132.68c-.68-.38-1.21-.91-1.61-1.58-.4-.67-.59-1.44-.59-2.29s.2-1.6,.59-2.27c.4-.67,.93-1.2,1.61-1.58s1.42-.57,2.23-.57,1.56,.19,2.24,.57c.67,.38,1.21,.91,1.6,1.58,.39,.67,.59,1.43,.59,2.27s-.2,1.61-.59,2.29c-.39,.67-.93,1.2-1.61,1.58-.68,.38-1.42,.57-2.23,.57s-1.55-.19-2.23-.57Zm3.61-1.33c.4-.24,.71-.57,.93-1.01,.22-.44,.33-.95,.33-1.52s-.11-1.08-.33-1.52c-.22-.43-.53-.77-.93-1-.4-.23-.86-.35-1.38-.35s-.98,.12-1.38,.35c-.4,.23-.71,.56-.94,1-.22,.43-.33,.94-.33,1.52s.11,1.09,.33,1.52c.22,.44,.54,.77,.94,1.01,.4,.24,.86,.35,1.38,.35s.98-.12,1.38-.35Z"/>
      <path class="cls-1" d="M351.53,124.51v1.4h-2.3v7.25h-1.74v-7.25h-2.31v-1.4h6.35Z"/>
    </g>
    <g>
      <path class="cls-1" d="M247.32,40.22c0-3.72,.03-10.54,.03-13.54,0-.08,.03-.1,.1-.1h2.31s.08,.03,.1,.08l6.54,14.85c.03,.08,.18,.08,.21,0l6.69-14.85c0-.05,.03-.08,.1-.08h2.33c.08,0,.13,.05,.13,.13v17.7c0,.08-.05,.13-.13,.13h-2.26c-.08,0-.1-.05-.1-.13v-15.11c0-.13-.15-.15-.23-.05l-6.85,15.21c-.03,.05-.08,.08-.1,.08h-1.1c-.05,0-.08-.03-.1-.08l-6.51-14.85c-.08-.13-.23-.08-.23,.03v14.77c0,.08-.03,.13-.1,.13h-.69c-.08,0-.13-.05-.13-.13v-4.18Z"/>
      <path class="cls-1" d="M273.05,26.71c0-.08,.05-.13,.13-.13h9.95c.08,0,.13,.05,.13,.13v.69c0,.08-.05,.1-.13,.1h-7.49c-.08,0-.1,.05-.1,.13v7.03c0,.08,.03,.13,.1,.13h5.9c.08,0,.13,.03,.13,.1v.69c0,.08-.05,.13-.13,.13h-5.87c-.08,0-.13,.03-.13,.1v7.67c0,.08,.05,.13,.13,.13h7.46c.08,0,.13,.03,.13,.1v.69c0,.08-.05,.13-.13,.13h-9.95c-.08,0-.13-.05-.13-.13V26.71Z"/>
      <path class="cls-1" d="M294.67,26.58c5.46,0,9.46,3.26,9.46,8.98,0,5.18-3.69,8.98-9.41,8.98h-5.16c-.08,0-.13-.05-.13-.13V26.71c0-.08,.05-.13,.13-.13h5.1Zm-2.75,16.9c0,.08,.05,.13,.13,.13h3.33c3.44,0,6.13-2.59,6.21-6.77,.13-4.64-2.16-9.34-7.08-9.34h-2.46c-.08,0-.13,.05-.13,.13v15.85Z"/>
      <path class="cls-1" d="M310.55,26.71c0-.08,.05-.13,.13-.13h9.95c.08,0,.13,.05,.13,.13v.69c0,.08-.05,.1-.13,.1h-7.49c-.08,0-.1,.05-.1,.13v7.03c0,.08,.03,.13,.1,.13h5.9c.08,0,.13,.03,.13,.1v.69c0,.08-.05,.13-.13,.13h-5.87c-.08,0-.13,.03-.13,.1v7.67c0,.08,.05,.13,.13,.13h7.46c.08,0,.13,.03,.13,.1v.69c0,.08-.05,.13-.13,.13h-9.95c-.08,0-.13-.05-.13-.13V26.71Z"/>
      <path class="cls-1" d="M326.94,26.66c0-.08,.05-.13,.13-.13h2.26c.08,0,.1,.05,.1,.13v16.83c0,.08,.05,.13,.13,.13h7.46c.08,0,.13,.03,.13,.1v.69c0,.08-.05,.13-.13,.13h-9.95c-.08,0-.13-.05-.13-.13V26.66Z"/>
      <path class="cls-1" d="M343.33,26.66c0-.08,.05-.13,.13-.13h2.26c.08,0,.1,.05,.1,.13v16.83c0,.08,.05,.13,.13,.13h7.46c.08,0,.13,.03,.13,.1v.69c0,.08-.05,.13-.13,.13h-9.95c-.08,0-.13-.05-.13-.13V26.66Z"/>
      <path class="cls-1" d="M360.82,20.06c.23-.51,.64-.72,1.08-.72,.59,0,1.08,.36,1.08,.85,0,.28-.1,.51-.33,.74l-3.03,3.18h-.67l1.87-4.05Zm-1.1,6.62c0-.08,.05-.1,.13-.1h2.23c.08,0,.13,.03,.13,.1v17.72c0,.08-.03,.13-.1,.13h-2.38V26.68Z"/>
      <path class="cls-1" d="M369.39,26.91c0-.23,.1-.33,.33-.33h2.03c.1,0,.21,.05,.28,.13l9.59,13.24c.08,.08,.18,.13,.26,.13,.23,0,.33-.1,.33-.33v-12.82c0-.23,.1-.33,.33-.33h.26c.23,0,.33,.1,.33,.33v17.29c0,.23-.1,.33-.33,.33h-.77c-.13,0-.23-.05-.28-.13l-10.85-14.98c-.08-.08-.18-.13-.26-.13-.23,0-.33,.1-.33,.33v14.57c0,.23-.1,.33-.33,.33h-.26c-.23,0-.33-.1-.33-.33V26.91Z"/>
    </g>
    <g>
      <path class="cls-1" d="M249.68,59.61c1.83-1.53,4.25-2.29,7.25-2.29,2.04,0,3.8,.36,5.25,1.07,1.46,.71,2.56,1.68,3.3,2.9s1.11,2.6,1.11,4.14c0,1.77-.46,3.26-1.37,4.48-.91,1.22-2,2.04-3.26,2.46v.17c1.62,.5,2.89,1.4,3.8,2.69,.91,1.29,1.37,2.94,1.37,4.96,0,1.68-.39,3.18-1.16,4.5-.77,1.32-1.91,2.35-3.4,3.09-1.5,.74-3.3,1.11-5.4,1.11-3.17,0-5.74-.8-7.73-2.4s-3.04-3.95-3.15-7.06h5.71c.06,1.37,.53,2.47,1.41,3.3,.88,.83,2.09,1.24,3.63,1.24,1.43,0,2.53-.4,3.3-1.2,.77-.8,1.16-1.83,1.16-3.09,0-1.68-.53-2.89-1.6-3.61-1.06-.73-2.72-1.09-4.96-1.09h-1.22v-4.83h1.22c3.98,0,5.97-1.33,5.97-3.99,0-1.2-.36-2.14-1.07-2.82-.71-.67-1.74-1.01-3.09-1.01s-2.33,.36-3.05,1.07c-.71,.71-1.13,1.62-1.24,2.71h-5.76c.14-2.8,1.13-4.96,2.96-6.49Z"/>
      <path class="cls-1" d="M280.31,61.56c1.75-2.75,4.66-4.12,8.72-4.12s6.97,1.37,8.72,4.12c1.75,2.75,2.63,6.54,2.63,11.39s-.88,8.7-2.63,11.47c-1.75,2.77-4.66,4.16-8.72,4.16s-6.97-1.39-8.72-4.16c-1.75-2.77-2.63-6.6-2.63-11.47s.88-8.64,2.63-11.39Zm13.87,6.16c-.27-1.41-.8-2.57-1.6-3.47-.8-.9-1.98-1.34-3.55-1.34s-2.75,.45-3.55,1.34c-.8,.9-1.33,2.05-1.6,3.47-.27,1.42-.4,3.16-.4,5.23s.13,3.92,.38,5.36c.25,1.44,.78,2.61,1.6,3.49,.81,.88,2,1.32,3.57,1.32s2.76-.44,3.57-1.32c.81-.88,1.34-2.04,1.6-3.49,.25-1.44,.38-3.23,.38-5.36s-.13-3.82-.4-5.23Z"/>
      <path class="cls-1" d="M329.28,71.18v4.96h-17.82v-4.96h17.82Z"/>
      <path class="cls-1" d="M343.71,61.56c1.75-2.75,4.66-4.12,8.72-4.12s6.97,1.37,8.72,4.12c1.75,2.75,2.63,6.54,2.63,11.39s-.88,8.7-2.63,11.47c-1.75,2.77-4.66,4.16-8.72,4.16s-6.97-1.39-8.72-4.16c-1.75-2.77-2.63-6.6-2.63-11.47s.88-8.64,2.63-11.39Zm13.87,6.16c-.27-1.41-.8-2.57-1.6-3.47-.8-.9-1.98-1.34-3.55-1.34s-2.75,.45-3.55,1.34c-.8,.9-1.33,2.05-1.6,3.47-.27,1.42-.4,3.16-.4,5.23s.13,3.92,.38,5.36c.25,1.44,.78,2.61,1.6,3.49,.81,.88,2,1.32,3.57,1.32s2.76-.44,3.57-1.32c.81-.88,1.34-2.04,1.6-3.49,.25-1.44,.38-3.23,.38-5.36s-.13-3.82-.4-5.23Z"/>
      <path class="cls-1" d="M373.4,63.45v-5.42h10.13v30.63h-6.05v-25.21h-4.08Z"/>
    </g>
    <g>
      <path class="cls-1" d="M46.19,97.11c0-.19,.08-.28,.28-.28h1.68c.09,0,.17,.04,.23,.11l7.97,11c.06,.06,.15,.11,.21,.11,.19,0,.28-.08,.28-.28v-10.66c0-.19,.08-.28,.28-.28h.21c.19,0,.28,.08,.28,.28v14.37c0,.19-.08,.28-.28,.28h-.64c-.11,0-.19-.04-.23-.11l-9.02-12.45c-.06-.06-.15-.11-.21-.11-.19,0-.28,.08-.28,.28v12.11c0,.19-.08,.28-.28,.28h-.21c-.19,0-.28-.08-.28-.28v-14.37Z"/>
      <path class="cls-1" d="M71.2,96.42c4.67,.17,7.76,3.54,7.59,8.08-.17,4.52-3.45,7.63-8.17,7.46-4.69-.17-7.78-3.58-7.61-8.08,.17-4.43,3.43-7.63,8.19-7.46Zm5.2,9.36c.34-4.69-1.39-8.25-5.29-8.66-2.9-.28-5.41,1.77-5.86,5.65-.51,4.03,1.39,8.14,5.31,8.59,2.88,.34,5.61-1.71,5.84-5.58Z"/>
      <path class="cls-1" d="M84.48,96.83c.06,0,.08,.02,.08,.06l4.5,12.9c.06,.09,.13,.09,.19,0,.6-1.6,3.54-10.08,4.56-12.9,0-.04,.02-.06,.09-.06h.6c.08,0,.13,.04,.11,.13l-5.24,14.73s-.02,.06-.08,.06h-1.64c-.06,0-.08-.02-.11-.06l-5.14-14.73c-.02-.09,0-.13,.09-.13h2Z"/>
      <path class="cls-1" d="M99.79,96.91c0-.06,.04-.08,.11-.08h1.85c.06,0,.11,.02,.11,.08v14.73c0,.06-.02,.11-.08,.11h-1.98v-14.84Z"/>
      <path class="cls-1" d="M107.83,96.94c0-.06,.04-.11,.11-.11h8.27c.06,0,.11,.04,.11,.11v.58c0,.06-.04,.09-.11,.09h-6.22c-.06,0-.09,.04-.09,.11v5.84c0,.06,.02,.11,.09,.11h4.9c.06,0,.11,.02,.11,.08v.58c0,.06-.04,.11-.11,.11h-4.88c-.06,0-.11,.02-.11,.08v6.37c0,.06,.04,.11,.11,.11h6.2c.06,0,.11,.02,.11,.08v.58c0,.06-.04,.11-.11,.11h-8.27c-.06,0-.11-.04-.11-.11v-14.71Z"/>
      <path class="cls-1" d="M121.46,108.17c0-3.09,.02-8.76,.02-11.25,0-.06,.02-.08,.08-.08h1.92s.06,.02,.08,.06l5.44,12.34c.02,.06,.15,.06,.17,0l5.56-12.34s.02-.06,.08-.06h1.94c.06,0,.11,.04,.11,.11v14.71c0,.06-.04,.11-.11,.11h-1.88c-.06,0-.08-.04-.08-.11v-12.55c0-.11-.13-.13-.19-.04l-5.69,12.64s-.06,.06-.08,.06h-.92s-.06-.02-.08-.06l-5.42-12.34c-.06-.11-.19-.06-.19,.02v12.28c0,.06-.02,.11-.08,.11h-.58c-.06,0-.11-.04-.11-.11v-3.47Z"/>
      <path class="cls-1" d="M147.51,96.83c2.47,0,5.71,.72,5.71,3.73,0,1.39-.77,2.6-2.47,3.22,2.3,.58,3.33,1.96,3.33,3.86,0,2.47-1.79,4.11-5.78,4.11h-5.35c-.06,0-.11-.04-.11-.11v-14.71c0-.06,.04-.11,.11-.11h4.56Zm-2.6,6.57c0,.06,.04,.11,.11,.11h2.09c2.64,0,3.96-.98,3.96-2.94s-1.32-2.96-3.96-2.96h-2.09c-.06,0-.11,.04-.11,.11v5.69Zm3.05,7.59c2.58,0,3.96-1.26,3.96-3.41s-1.47-3.3-3.96-3.3h-2.94c-.06,0-.11,.02-.11,.08v6.52c0,.06,.04,.11,.11,.11h2.94Z"/>
      <path class="cls-1" d="M159.43,96.94c0-.06,.02-.11,.08-.11h5.05c2.49,0,5.71,.62,5.71,3.75s-2.96,3.71-5.52,3.77c-.08,0-.13,.09-.06,.15l2.37,3.05,2.13,2.84c.92,1.17,1.47,1.49,2.3,1.56,.06,0,.11,.02,.11,.08v.17c0,.06-.04,.11-.11,.11h-1.47c-.64,0-1.09,.02-2.17-.94-.34-.32-.83-.79-1.45-1.54-1.26-1.43-2.6-2.98-4.52-5.48h-.32c-.06,0-.09,.02-.09,.09v7.2c0,.06-.02,.11-.08,.11h-1.88c-.06,0-.11-.04-.11-.11,0-2.11,.02-7.2,.02-11.19v-3.52Zm2.05,6.54c0,.06,.04,.11,.11,.11h2.6c2.66,0,3.94-1.04,3.94-3.01s-1.32-2.98-3.94-2.98h-2.6c-.06,0-.11,.04-.11,.11v5.78Z"/>
      <path class="cls-1" d="M175.57,96.94c0-.06,.04-.11,.11-.11h8.27c.06,0,.11,.04,.11,.11v.58c0,.06-.04,.09-.11,.09h-6.22c-.06,0-.09,.04-.09,.11v5.84c0,.06,.02,.11,.09,.11h4.9c.06,0,.11,.02,.11,.08v.58c0,.06-.04,.11-.11,.11h-4.88c-.06,0-.11,.02-.11,.08v6.37c0,.06,.04,.11,.11,.11h6.2c.06,0,.11,.02,.11,.08v.58c0,.06-.04,.11-.11,.11h-8.27c-.06,0-.11-.04-.11-.11v-14.71Z"/>
    </g>
    <g>
      <path class="cls-1" d="M52.61,27.25c2.76,0,6.38,.81,6.38,4.16,0,1.55-.86,2.9-2.76,3.59,2.57,.64,3.71,2.19,3.71,4.31,0,2.76-2,4.59-6.45,4.59h-5.97c-.07,0-.12-.05-.12-.12V27.37c0-.07,.05-.12,.12-.12h5.09Zm-2.9,7.33c0,.07,.05,.12,.12,.12h2.33c2.95,0,4.42-1.09,4.42-3.28s-1.47-3.31-4.42-3.31h-2.33c-.07,0-.12,.05-.12,.12v6.35Zm3.4,8.47c2.88,0,4.42-1.4,4.42-3.81s-1.64-3.69-4.42-3.69h-3.28c-.07,0-.12,.02-.12,.09v7.28c0,.07,.05,.12,.12,.12h3.28Z"/>
      <path class="cls-1" d="M78.66,26.79c5.21,.19,8.66,3.95,8.47,9.02-.19,5.04-3.85,8.52-9.11,8.33-5.23-.19-8.68-4-8.49-9.02,.19-4.95,3.83-8.52,9.13-8.33Zm5.8,10.44c.38-5.23-1.55-9.21-5.9-9.66-3.24-.31-6.04,1.97-6.54,6.3-.57,4.5,1.55,9.09,5.92,9.59,3.21,.38,6.26-1.9,6.52-6.23Z"/>
      <path class="cls-1" d="M111.13,30.31c.02,.07,0,.12-.05,.17l-.33,.17c-.07,.02-.12,.02-.14-.05-1.02-1.9-3.07-2.85-5.16-2.85-4,0-6.35,3.12-6.35,6.83,0,4.61,2.81,8.63,7.3,8.63,1.21,0,2.4-.33,3.52-1.07,.02-.02,.05-.07,.05-.09v-5.66c0-.26,.12-.38,.38-.38h1.47c.07,0,.12,.02,.12,.1v6.54s-.02,.07-.07,.12c-4.59,1.21-5.33,1.38-6.52,1.38-4.76,0-8.63-3.52-8.63-8.56s3.62-8.54,8.4-8.54c2.47,0,4.76,1.09,6.02,3.28Z"/>
      <path class="cls-1" d="M131.38,26.79c5.21,.19,8.66,3.95,8.47,9.02-.19,5.04-3.85,8.52-9.11,8.33-5.23-.19-8.68-4-8.49-9.02,.19-4.95,3.83-8.52,9.13-8.33Zm5.8,10.44c.38-5.23-1.55-9.21-5.9-9.66-3.24-.31-6.04,1.97-6.54,6.3-.57,4.5,1.55,9.09,5.92,9.59,3.21,.38,6.26-1.9,6.52-6.23Z"/>
      <path class="cls-1" d="M145.32,27.37c0-.07,.02-.12,.1-.12h3.09c2.57,0,8.94,.05,11.06,.05,.07,.02,.12,.07,.12,.12v.52c0,.07-.05,.1-.12,.1h-5.83c-.07,0-.12,.02-.12,.09,0,3.16,.02,11.78,.02,15.51v.14c0,.07-.02,.12-.09,.12h-2.09c-.07,0-.12-.05-.12-.12v-15.63c0-.07-.02-.12-.09-.12h-5.83c-.07,0-.1-.02-.1-.1v-.57Z"/>
      <path class="cls-1" d="M171.77,35.45c.67-1.9,1.38-3.85,2.12-5.97l.76-2.17s.02-.07,.1-.07h2.12s.09,.02,.12,.07l2.67,7.71c1.21,3.5,2.47,7.14,3.04,8.73,.02,.09-.02,.14-.1,.14h-2.24c-.07,0-.09-.02-.09-.07-.76-2.14-2.21-6.42-2.4-6.99-.02-.05-.07-.07-.12-.07h-5.45c-.07,0-.1,.02-.12,.07l-2.47,6.99s-.02,.07-.09,.07h-.69c-.1,0-.12-.05-.1-.14l2.95-8.3Zm5.59,.48c.07,0,.12-.05,.1-.14l-2.31-6.68c-.07-.09-.14-.09-.21,0l-2.35,6.68c-.02,.09,0,.14,.09,.14h4.69Zm-1.74-14.72c.21-.48,.59-.67,1-.67,.55,0,1,.33,1,.79,0,.26-.09,.48-.31,.69l-2.81,2.95h-.62l1.74-3.76Z"/>
    </g>
    <g>
      <path class="cls-1" d="M47.68,81.76c2.57-2.14,4.62-3.93,6.15-5.37,1.53-1.43,2.8-2.93,3.82-4.48s1.53-3.08,1.53-4.58c0-1.37-.32-2.44-.96-3.22-.64-.78-1.63-1.17-2.97-1.17s-2.37,.45-3.1,1.35c-.72,.9-1.1,2.12-1.12,3.68h-5.47c.11-3.22,1.07-5.66,2.88-7.32,1.81-1.66,4.11-2.49,6.89-2.49,3.06,0,5.4,.81,7.04,2.43s2.45,3.76,2.45,6.41c0,2.09-.56,4.09-1.69,5.99-1.12,1.9-2.41,3.56-3.86,4.96s-3.34,3.1-5.67,5.08h11.86v4.66h-19.86v-4.18l2.09-1.77Z"/>
      <path class="cls-1" d="M75.5,66.12c0-1.45,.37-2.77,1.11-3.96s1.85-2.14,3.34-2.85c1.49-.71,3.3-1.06,5.45-1.06s3.96,.36,5.45,1.06c1.49,.71,2.6,1.66,3.34,2.85,.74,1.19,1.11,2.51,1.11,3.96s-.36,2.77-1.09,3.88c-.72,1.11-1.69,1.98-2.89,2.59,1.47,.64,2.63,1.58,3.46,2.81,.83,1.23,1.25,2.69,1.25,4.38,0,1.82-.46,3.41-1.39,4.76-.92,1.35-2.19,2.39-3.8,3.12-1.61,.72-3.42,1.09-5.43,1.09s-3.81-.36-5.41-1.09c-1.59-.72-2.85-1.76-3.78-3.12-.92-1.35-1.39-2.94-1.39-4.76,0-1.69,.42-3.16,1.25-4.4,.83-1.25,1.98-2.18,3.46-2.79-2.68-1.39-4.02-3.55-4.02-6.47Zm6.17,10.09c-.95,.78-1.43,1.89-1.43,3.34,0,1.34,.46,2.43,1.39,3.28s2.18,1.27,3.76,1.27,2.83-.43,3.74-1.29,1.37-1.94,1.37-3.26c0-1.42-.47-2.53-1.41-3.32-.94-.79-2.17-1.19-3.7-1.19s-2.77,.39-3.72,1.17Zm6.96-12.34c-.79-.72-1.87-1.09-3.24-1.09s-2.41,.36-3.2,1.09c-.79,.72-1.19,1.75-1.19,3.09,0,1.21,.41,2.17,1.23,2.89,.82,.72,1.87,1.09,3.16,1.09s2.34-.37,3.18-1.11c.83-.74,1.25-1.71,1.25-2.92,0-1.31-.4-2.33-1.19-3.05Z"/>
      <path class="cls-1" d="M123.86,71.39v4.74h-17.04v-4.74h17.04Z"/>
      <path class="cls-1" d="M136.92,81.76c2.57-2.14,4.62-3.93,6.15-5.37,1.53-1.43,2.8-2.93,3.82-4.48s1.53-3.08,1.53-4.58c0-1.37-.32-2.44-.96-3.22-.64-.78-1.63-1.17-2.97-1.17s-2.37,.45-3.1,1.35c-.72,.9-1.1,2.12-1.12,3.68h-5.47c.11-3.22,1.07-5.66,2.88-7.32,1.81-1.66,4.11-2.49,6.89-2.49,3.06,0,5.4,.81,7.04,2.43s2.45,3.76,2.45,6.41c0,2.09-.56,4.09-1.69,5.99-1.12,1.9-2.41,3.56-3.86,4.96s-3.34,3.1-5.67,5.08h11.86v4.66h-19.86v-4.18l2.09-1.77Z"/>
      <path class="cls-1" d="M171.84,82.59c.76,.63,1.79,.94,3.08,.94,1.66,0,2.87-.69,3.62-2.07,.75-1.38,1.13-3.7,1.13-6.97-.62,.86-1.48,1.53-2.59,2.01-1.11,.48-2.31,.72-3.6,.72-1.71,0-3.26-.36-4.64-1.07-1.38-.71-2.47-1.77-3.28-3.18-.8-1.41-1.21-3.12-1.21-5.12,0-2.97,.88-5.34,2.65-7.1,1.77-1.75,4.18-2.63,7.24-2.63,3.81,0,6.49,1.22,8.06,3.66,1.57,2.44,2.35,6.11,2.35,11.01,0,3.48-.3,6.34-.9,8.56-.6,2.22-1.63,3.91-3.1,5.06-1.46,1.15-3.45,1.73-5.97,1.73-1.98,0-3.67-.38-5.07-1.15s-2.46-1.77-3.2-3.01c-.74-1.25-1.16-2.62-1.27-4.12h5.23c.21,1.18,.7,2.08,1.47,2.71Zm6.09-11.24c.8-.86,1.21-2.01,1.21-3.46,0-1.58-.42-2.81-1.27-3.68-.84-.87-1.99-1.31-3.44-1.31s-2.59,.45-3.44,1.35c-.84,.9-1.27,2.08-1.27,3.56s.41,2.58,1.23,3.48c.82,.9,2.04,1.35,3.68,1.35,1.39,0,2.49-.43,3.3-1.29Z"/>
    </g>
    <g>
      <path class="cls-1" d="M54.48,124.4v8.65h-1.74v-3.68h-3.71v3.68h-1.74v-8.65h1.74v3.56h3.71v-3.56h1.74Z"/>
      <path class="cls-1" d="M58.58,132.57c-.68-.38-1.21-.91-1.61-1.58-.4-.67-.59-1.44-.59-2.29s.2-1.6,.59-2.27c.4-.67,.93-1.2,1.61-1.58,.68-.38,1.42-.57,2.23-.57s1.56,.19,2.24,.57c.67,.38,1.21,.91,1.6,1.58,.39,.67,.59,1.43,.59,2.27s-.2,1.61-.59,2.29c-.39,.67-.93,1.2-1.61,1.58-.68,.38-1.42,.57-2.23,.57s-1.55-.19-2.23-.57Zm3.61-1.33c.4-.24,.71-.57,.93-1.01,.22-.44,.33-.95,.33-1.52s-.11-1.08-.33-1.52c-.22-.43-.53-.77-.93-1-.4-.23-.86-.35-1.38-.35s-.98,.12-1.38,.35c-.4,.23-.71,.56-.94,1-.22,.43-.33,.94-.33,1.52s.11,1.09,.33,1.52c.22,.44,.54,.77,.94,1.01,.4,.24,.86,.35,1.38,.35s.98-.12,1.38-.35Z"/>
      <path class="cls-1" d="M73.02,124.4v1.4h-2.3v7.25h-1.74v-7.25h-2.31v-1.4h6.35Z"/>
      <path class="cls-1" d="M76.63,125.8v2.17h2.91v1.38h-2.91v2.29h3.28v1.41h-5.02v-8.66h5.02v1.41h-3.28Z"/>
      <path class="cls-1" d="M83.83,131.68h2.85v1.38h-4.59v-8.65h1.74v7.28Z"/>
      <path class="cls-1" d="M97.97,127.01c-.2-.36-.47-.64-.82-.83-.35-.19-.75-.29-1.21-.29-.51,0-.97,.12-1.36,.35s-.71,.56-.93,.99c-.22,.43-.33,.93-.33,1.49s.11,1.08,.34,1.51c.23,.43,.54,.76,.95,.99,.4,.23,.88,.35,1.41,.35,.66,0,1.2-.17,1.62-.53,.42-.35,.7-.84,.83-1.47h-2.97v-1.33h4.68v1.51c-.12,.6-.36,1.16-.74,1.67-.38,.51-.87,.92-1.47,1.23-.6,.31-1.27,.46-2.01,.46-.83,0-1.59-.19-2.26-.56-.67-.38-1.2-.9-1.59-1.57-.38-.67-.58-1.43-.58-2.28s.19-1.61,.58-2.29c.38-.67,.91-1.2,1.59-1.57,.67-.38,1.42-.56,2.25-.56,.98,0,1.82,.24,2.54,.71,.72,.48,1.21,1.14,1.49,2h-2Z"/>
      <path class="cls-1" d="M106.54,133.05l-1.91-3.37h-.82v3.37h-1.74v-8.65h3.25c.67,0,1.24,.12,1.71,.35,.47,.24,.82,.55,1.06,.96,.24,.4,.35,.85,.35,1.34,0,.57-.17,1.08-.5,1.54-.33,.46-.82,.77-1.48,.95l2.07,3.51h-2.01Zm-2.73-4.67h1.45c.47,0,.82-.11,1.05-.34,.23-.23,.35-.54,.35-.95s-.12-.7-.35-.92c-.23-.22-.58-.33-1.05-.33h-1.45v2.54Z"/>
      <path class="cls-1" d="M115.93,131.41h-3.45l-.57,1.65h-1.82l3.11-8.66h2.02l3.11,8.66h-1.83l-.57-1.65Zm-.47-1.39l-1.25-3.62-1.25,3.62h2.5Z"/>
      <path class="cls-1" d="M127.51,133.05h-1.74l-3.93-5.94v5.94h-1.74v-8.66h1.74l3.93,5.95v-5.95h1.74v8.66Z"/>
      <path class="cls-1" d="M135.25,124.94c.69,.36,1.22,.86,1.6,1.52,.38,.66,.56,1.42,.56,2.29s-.19,1.63-.56,2.27c-.38,.65-.91,1.15-1.6,1.51-.69,.36-1.49,.53-2.4,.53h-3.02v-8.65h3.02c.91,0,1.71,.18,2.4,.53Zm-.35,5.9c.5-.5,.74-1.19,.74-2.09s-.25-1.61-.74-2.11c-.5-.51-1.2-.76-2.11-.76h-1.23v5.71h1.23c.91,0,1.61-.25,2.11-.74Z"/>
      <path class="cls-1" d="M150.05,124.4v8.65h-1.74v-3.68h-3.71v3.68h-1.74v-8.65h1.74v3.56h3.71v-3.56h1.74Z"/>
      <path class="cls-1" d="M159.25,124.4l-2.93,5.64v3.01h-1.73v-3.01l-2.94-5.64h1.96l1.86,3.95,1.85-3.95h1.93Z"/>
      <path class="cls-1" d="M166.16,131.41h-3.45l-.57,1.65h-1.82l3.11-8.66h2.02l3.11,8.66h-1.83l-.57-1.65Zm-.47-1.39l-1.25-3.62-1.25,3.62h2.5Z"/>
      <path class="cls-1" d="M176.23,124.4v1.4h-2.3v7.25h-1.74v-7.25h-2.31v-1.4h6.35Z"/>
      <path class="cls-1" d="M183.98,124.4v1.4h-2.3v7.25h-1.74v-7.25h-2.31v-1.4h6.35Z"/>
    </g>
  </g>
</svg>