<?xml version="1.0" encoding="UTF-8"?>
<svg id="Capa_1" data-name="Capa 1" xmlns="http://www.w3.org/2000/svg" xmlns:xlink="http://www.w3.org/1999/xlink" viewBox="0 0 370 1175.67">
  <defs>
    <style>
      .cls-1 {
        clip-path: url(#clippath);
      }

      .cls-2, .cls-3 {
        fill: none;
      }

      .cls-3 {
        stroke: #85754e;
        stroke-miterlimit: 10;
        stroke-width: 2px;
      }
    </style>
    <clipPath id="clippath">
      <polygon class="cls-2" points="0 1175.67 370 1175.67 338.3 0 0 0 0 1175.67"/>
    </clipPath>
  </defs>
  <g class="cls-1">
    <g>
      <polygon class="cls-3" points="141.2 1293.03 141.2 681.04 481.61 1022.72 481.61 1293.03 141.2 1293.03"/>
      <rect class="cls-3" x="191.88" y="997.41" width="241.6" height="241.6" transform="translate(-256.92 2130.01) rotate(-135)"/>
      <circle class="cls-3" cx="311.73" cy="908.1" r="38.88"/>
      <circle class="cls-3" cx="310.77" cy="622.24" r="111.47"/>
      <path class="cls-3" d="M141.21,682.09v-57.78c0-93.65,75.92-169.56,169.56-169.56,93.65,0,169.56,75.92,169.56,169.56v398.88s198.25,190.35,198.25,190.35"/>
      <line class="cls-3" x1="480.33" y1="624.3" x2="141.21" y2="624.3"/>
      <line class="cls-3" x1="341.28" y1="457.48" x2="341.28" y2="624.3"/>
      <line class="cls-3" x1="310.77" y1="454.16" x2="310.77" y2="624.3"/>
      <line class="cls-3" x1="273.71" y1="458.81" x2="273.71" y2="624.3"/>
      <polyline class="cls-3" points="310.77 454.74 184 332.59 114 332.59"/>
      <circle class="cls-3" cx="341.28" cy="285.41" r="77.37"/>
      <polyline class="cls-3" points="501.91 149.56 501.91 281.81 263.91 281.81"/>
      <polyline class="cls-3" points="184 149.56 615.61 149.56 503.97 33.01"/>
      <line class="cls-3" x1="263.91" y1="-.57" x2="263.91" y2="281.81"/>
      <line class="cls-3" x1="184" y1="-2.11" x2="184" y2="332.59"/>
      <line class="cls-3" x1="184" y1="90.35" x2="-33.07" y2="90.35"/>
      <line class="cls-3" x1="184" y1="247.71" x2="53.17" y2="247.71"/>
      <polygon class="cls-3" points="21 247.69 37.08 263.8 53.19 247.69 37.12 231.58 21 247.69"/>
      <line class="cls-3" x1="333.11" y1="731.47" x2="333.11" y2="873.83"/>
      <line class="cls-3" x1="279.43" y1="729.22" x2="279.43" y2="820.54"/>
    </g>
  </g>
</svg>