<?xml version="1.0" encoding="UTF-8"?>
<svg id="Capa_1" data-name="Capa 1" xmlns="http://www.w3.org/2000/svg" viewBox="0 0 694 805">
  <defs>
    <style>
      .cls-1 {
        fill: #85754e;
      }

      .cls-2, .cls-3 {
        fill: #0d2449;
      }

      .cls-3 {
        stroke: #0d2449;
        stroke-miterlimit: 10;
      }
    </style>
  </defs>
  <g>
    <g>
      <g>
        <path class="cls-2" d="M102.36,196.89c-1.88-.84-3.35-2.02-4.42-3.52-1.07-1.5-1.62-3.23-1.66-5.2h5.02c.17,1.69,.87,3.11,2.1,4.27,1.22,1.16,3.01,1.73,5.35,1.73s4.01-.56,5.3-1.68c1.29-1.12,1.94-2.56,1.94-4.32,0-1.38-.38-2.5-1.14-3.36-.76-.86-1.71-1.52-2.85-1.97-1.14-.45-2.67-.93-4.6-1.45-2.38-.62-4.29-1.24-5.72-1.86-1.43-.62-2.66-1.6-3.67-2.92-1.02-1.33-1.53-3.11-1.53-5.36,0-1.97,.5-3.71,1.5-5.23,1-1.52,2.41-2.69,4.22-3.52,1.81-.83,3.89-1.24,6.23-1.24,3.38,0,6.15,.85,8.3,2.54,2.16,1.69,3.37,3.93,3.65,6.73h-5.17c-.17-1.38-.9-2.59-2.17-3.65-1.28-1.05-2.97-1.58-5.07-1.58-1.97,0-3.57,.51-4.81,1.53-1.24,1.02-1.86,2.44-1.86,4.27,0,1.31,.37,2.38,1.11,3.21,.74,.83,1.66,1.46,2.74,1.89,1.09,.43,2.61,.92,4.58,1.47,2.38,.66,4.29,1.3,5.74,1.94,1.45,.64,2.69,1.62,3.73,2.95,1.03,1.33,1.55,3.13,1.55,5.41,0,1.76-.47,3.41-1.4,4.97-.93,1.55-2.31,2.81-4.14,3.78-1.83,.97-3.98,1.45-6.47,1.45s-4.51-.42-6.39-1.27Z"/>
        <path class="cls-2" d="M163.49,170.24c1.59-2.81,3.75-5.01,6.49-6.6,2.74-1.59,5.79-2.38,9.13-2.38,3.93,0,7.36,.95,10.3,2.85,2.93,1.9,5.07,4.59,6.42,8.07h-5.64c-1-2.17-2.44-3.85-4.32-5.02-1.88-1.17-4.13-1.76-6.75-1.76s-4.78,.59-6.78,1.76c-2,1.17-3.57,2.84-4.71,4.99-1.14,2.16-1.71,4.68-1.71,7.58s.57,5.37,1.71,7.53c1.14,2.16,2.71,3.82,4.71,4.99,2,1.17,4.26,1.76,6.78,1.76s4.87-.58,6.75-1.73c1.88-1.16,3.32-2.82,4.32-4.99h5.64c-1.35,3.45-3.48,6.11-6.42,7.99-2.93,1.88-6.36,2.82-10.3,2.82-3.35,0-6.39-.78-9.13-2.35-2.74-1.57-4.91-3.75-6.49-6.54-1.59-2.79-2.38-5.95-2.38-9.47s.79-6.68,2.38-9.49Z"/>
        <path class="cls-2" d="M245.18,195.8c-2.76-1.57-4.94-3.76-6.55-6.57-1.6-2.81-2.41-5.98-2.41-9.49s.8-6.68,2.41-9.49c1.6-2.81,3.78-5,6.55-6.57,2.76-1.57,5.81-2.35,9.16-2.35s6.45,.79,9.21,2.35c2.76,1.57,4.93,3.75,6.52,6.54,1.59,2.79,2.38,5.97,2.38,9.52s-.79,6.73-2.38,9.52c-1.59,2.79-3.76,4.98-6.52,6.54-2.76,1.57-5.83,2.35-9.21,2.35s-6.4-.78-9.16-2.35Zm15.96-3.49c2.02-1.17,3.6-2.85,4.76-5.02,1.15-2.17,1.73-4.69,1.73-7.55s-.58-5.42-1.73-7.58c-1.16-2.16-2.73-3.82-4.73-4.99-2-1.17-4.28-1.76-6.83-1.76s-4.83,.59-6.83,1.76c-2,1.17-3.58,2.84-4.73,4.99-1.16,2.16-1.73,4.68-1.73,7.58s.58,5.38,1.73,7.55c1.16,2.17,2.74,3.85,4.76,5.02,2.02,1.17,4.28,1.76,6.8,1.76s4.79-.59,6.8-1.76Z"/>
        <path class="cls-2" d="M332.82,197.79l-8.59-14.75h-5.69v14.75h-4.71v-36.06h11.64c2.72,0,5.03,.47,6.91,1.4,1.88,.93,3.29,2.19,4.22,3.78,.93,1.59,1.4,3.4,1.4,5.43,0,2.48-.72,4.67-2.15,6.57-1.43,1.9-3.58,3.16-6.44,3.78l9.05,15.11h-5.64Zm-14.28-18.52h6.93c2.55,0,4.47-.63,5.74-1.89,1.28-1.26,1.91-2.94,1.91-5.04s-.63-3.79-1.89-4.97c-1.26-1.17-3.18-1.76-5.77-1.76h-6.93v13.66Z"/>
        <path class="cls-2" d="M401.51,179.76c-2.05,1.98-5.18,2.97-9.39,2.97h-6.93v15.06h-4.71v-36.06h11.64c4.07,0,7.17,.98,9.29,2.95s3.18,4.5,3.18,7.61-1.03,5.49-3.08,7.48Zm-3.6-2.61c1.24-1.14,1.86-2.76,1.86-4.86,0-4.45-2.55-6.67-7.66-6.67h-6.93v13.25h6.93c2.62,0,4.55-.57,5.79-1.71Z"/>
        <path class="cls-2" d="M450.32,161.73v36.06h-4.71v-36.06h4.71Z"/>
        <path class="cls-2" d="M500.71,195.8c-2.76-1.57-4.94-3.76-6.55-6.57-1.6-2.81-2.41-5.98-2.41-9.49s.8-6.68,2.41-9.49c1.6-2.81,3.78-5,6.55-6.57,2.76-1.57,5.81-2.35,9.16-2.35s6.45,.79,9.21,2.35c2.76,1.57,4.93,3.75,6.52,6.54,1.59,2.79,2.38,5.97,2.38,9.52s-.79,6.73-2.38,9.52c-1.59,2.79-3.76,4.98-6.52,6.54-2.76,1.57-5.83,2.35-9.21,2.35s-6.4-.78-9.16-2.35Zm15.96-3.49c2.02-1.17,3.6-2.85,4.76-5.02,1.15-2.17,1.73-4.69,1.73-7.55s-.58-5.42-1.73-7.58c-1.16-2.16-2.73-3.82-4.73-4.99-2-1.17-4.28-1.76-6.83-1.76s-4.83,.59-6.83,1.76c-2,1.17-3.58,2.84-4.73,4.99-1.16,2.16-1.73,4.68-1.73,7.58s.58,5.38,1.73,7.55c1.16,2.17,2.74,3.85,4.76,5.02,2.02,1.17,4.29,1.76,6.8,1.76s4.79-.59,6.8-1.76Z"/>
        <path class="cls-2" d="M597.72,197.79h-4.71l-18.94-28.71v28.71h-4.71v-36.11h4.71l18.94,28.66v-28.66h4.71v36.11Z"/>
      </g>
      <g>
        <path class="cls-2" d="M137.88,325.47c.27,.36,.36,.59,.44,.58,11.69-1.26,16.76,7.2,21.7,15.27,10.94,17.9,15.95,37.59,16.44,58.48,.01,.62-.19,1.41-.42,2.82-2.17,0-4.37,0-6.56,0-11.15,0-22.31-.28-33.46,0-4.14,.11-5.5-1.09-5.79-5.34-1.7-25.2-10.44-47.75-26.27-67.49-.9-1.12-1.88-2.42-3.12-2.96-2.39-1.04-4.55-.72-4.85,2.55-.13,1.44-.08,2.91-.09,4.36,0,21.01-.11,42.03,.08,63.04,.04,4.39-1.17,5.9-5.72,5.79-11.79-.3-23.6-.22-35.4-.03-3.81,.06-5.37-.8-5.36-5.04,.14-53.5,.13-107.01,0-160.51,0-4.2,1.17-5.6,5.47-5.57,25.7,.17,51.4-.07,77.1,.13,29.14,.22,50.94,26.06,45.86,54.75-2.73,15.43-13.09,25.56-26.27,32.96-4.31,2.42-9.05,4.09-13.81,6.21Zm-5.46-46.02c0-3.23,.41-6.52-.09-9.67-.92-5.87-1.56-11.99-3.77-17.41-4.5-11.01-10-17.14-27.44-16.28-4.01,.2-5.32,1.36-5.29,5.32,.14,17.92,.06,35.85,.06,53.77,0,7.27-.13,14.54,.12,21.8,.05,1.55,1.2,4.06,2.36,4.42,11.45,3.51,22.82-1.27,28.45-11.86,5-9.4,5.87-19.67,5.59-30.09Z"/>
        <path class="cls-2" d="M537.69,402.13c0-2.21,0-3.96,0-5.71,0-52.81,0-105.63,0-158.44,0-6.45,.02-6.47,6.31-6.47,25.19,0,50.39,.04,75.58,.05,10.05,0,18.02,4.44,24.55,11.72,11.48,12.82,16.86,28.42,20.06,44.93,2.72,14.03,3.54,28.22,1.87,42.42-2.44,20.76-9.26,39.84-23.2,55.87-9.25,10.64-20.39,16.56-35.11,16.13-21.3-.62-42.63-.15-63.95-.17-1.89,0-3.78-.2-6.11-.33Zm46.31-85.13c0,5.01,0,10.02,0,15.03,0,20.2-.04,40.4,.09,60.6,.01,1.65,.75,4.27,1.89,4.78,6.75,3,17.62-.09,21.42-6.73,3.4-5.94,6.2-12.46,7.95-19.06,4.87-18.41,5.46-37.32,5.38-56.26-.08-19.93-1.08-39.73-6.97-58.95-4.84-15.79-10.27-20.07-23.97-20.31-4.96-.09-5.89,1.84-5.86,6.24,.16,24.89,.08,49.78,.08,74.66Z"/>
        <path class="cls-2" d="M204.29,316.97c0-18.22,5.03-34.74,17.44-48.39,23.76-26.13,64.45-24.44,86.24,3.38,19.7,25.15,19.63,65.07-.15,90.09-25.41,32.14-74.69,27.87-94.29-8.16-6.35-11.68-9.19-23.02-9.24-36.92Zm96.17,36.22c-.28-2.27-.46-5.31-1.06-8.26-2.9-14.34-9.07-27.32-17.28-39.28-9.27-13.51-20.35-25.37-35.04-33.12-4.28-2.26-9.2-3.74-14-4.51-4.93-.79-8.61,1.58-9.54,6.42-1.03,5.36-1.72,11.22-.63,16.46,5.88,28.3,21.05,50.93,43.75,68.59,5.86,4.56,12.3,8.17,19.67,9.83,7.35,1.65,12.79-2.11,13.72-9.56,.24-1.92,.25-3.87,.41-6.56Z"/>
        <path class="cls-2" d="M391.27,278.38c-4.25,9.24-8.24,17.29-11.67,25.57-3.82,9.2-7.71,18.45-10.51,27.99-3.19,10.87,1.89,19.19,12.99,21.34,8.99,1.74,18.22,2.32,27.38,2.96,3.49,.24,5.53,1.28,7.14,4.45,6.21,12.23,12.71,24.31,19.07,36.46,.73,1.39,1.3,2.86,2.24,4.96-2.07,.15-3.6,.35-5.13,.36-19.23,.02-38.47,.1-57.7-.06-4.48-.04-9.02-.63-13.43-1.52-10.09-2.04-15.51-8.94-15.69-19.15-.19-10.79,3.27-20.76,7.49-30.34,17.18-38.96,34.69-77.77,52.24-116.56,.68-1.49,2.92-2.87,4.64-3.2,7.62-1.43,12.13,1.22,15.97,8.86,23.9,47.57,48.43,94.83,73.05,142.03,3.36,6.44,2.39,12.71,2.59,19.96-3.72,0-7.05,0-10.37,0-10.18,0-20.37-.2-30.54,.1-4.02,.12-6.01-1.39-7.78-4.85-19.22-37.65-38.59-75.22-57.95-112.79-.99-1.92-2.25-3.69-4.02-6.55Z"/>
      </g>
      <path class="cls-2" d="M49.72,363.84s2.91,38.82-20.96,38.82h58.23v-53.38l-37.27,14.56Z"/>
      <path class="cls-2" d="M49.65,270.24s2.91-38.82-20.96-38.82h58.23v53.38s-37.27-14.56-37.27-14.56Z"/>
      <path class="cls-2" d="M537.68,263.08s-2.1-31.57-20.98-31.57h36.97"/>
    </g>
    <path class="cls-1" d="M27.21,454.93c2.29-.14,4.58-.4,6.87-.42,9.56-.05,19.13,.13,28.69-.06,26.77-.55,47.57-20.91,48.59-47.71,.39-10.27,.07-20.56,.21-30.84,.03-1.99,.67-3.98,1.04-5.97,.72,.03,1.43,.07,2.15,.1,.28,1.65,.8,3.3,.81,4.96,.08,9.56-.1,19.13,.09,28.69,.59,29.87,21.79,50.7,51.55,50.79,8.85,.02,17.7-.03,26.54,.05,2.12,.02,4.24,.44,6.36,.67,.02,.74,.04,1.47,.07,2.21-1.83,.3-3.66,.84-5.49,.86-9.33,.1-18.65,.03-27.98,.09-29.43,.2-50.42,20.92-51.03,50.53-.23,11.16-.04,22.33-.04,33.49-.81,.16-1.63,.33-2.44,.49-.57-1.96-1.58-3.91-1.62-5.88-.18-9.08-.01-18.17-.09-27.26-.27-30.56-21.02-51.23-51.5-51.36-8.85-.04-17.7,0-26.54-.09-2.13-.02-4.25-.49-6.37-.76,.04-.86,.08-1.73,.13-2.59Z"/>
    <g>
      <path class="cls-1" d="M302.96,91.75c.48-2.43,.48-5.84,.09-8.62l-3.13-23.15-17.03,31.75h-3.25l-17.33-33.18-3.36,25.1c-.36,2.89-.47,6.56-.17,8.11h-6.09c1.18-2.52,1.47-3.6,2.02-7.73l5.51-41.4h2.81l20.21,38.63,20.2-38.63h2.11l5.7,41.31c.57,4.12,.99,5.3,2.13,7.82h-10.41Z"/>
      <path class="cls-1" d="M250.07,86.85l-.74,4.9h-35.14c1.45-3.39,1.36-5.3,1.36-7.74V50.35c0-2.36,.09-4.45-1.36-7.74h34.3l.06,4.98c-.64-.26-1.16-.49-1.63-.7-1.27-.47-2.88-.92-4.56-.91h-18.8v19.24h22.06l-1.09,3.78h-20.97v19.26h19.89c3.36,.05,6.68-1.84,6.68-1.84l-.09,.42h.04Z"/>
      <path class="cls-1" d="M438.1,68.77l2.06-.21c6.92-1.02,12.81-5.04,12.81-12.5,0-14.13-17-13.48-24.2-13.48h-10.54c1.45,3.29,1.36,5.37,1.36,7.73v33.68c0,2.44,.09,4.35-1.36,7.74h10.74c-1.38-3.39-1.38-5.3-1.38-7.74v-15.13c1.03,.06,2.63,.4,4.88,3.06,7.92,9.42,14.23,15.36,19.11,19.84h9.92c-.98-.95-23.41-23.01-23.41-23.01m-10.5-2.34v-20.95c15.42-.61,17,7.06,17.17,10.58,.15,3.66-1.38,7.98-5.92,9.71l.02-.02-.22,.09c-2.42,1.05-11.05,.59-11.05,.59"/>
      <path class="cls-1" d="M410.34,83.73l-18.62-41.11h-2.13l-18.91,42.29c-1.43,3.15-2.11,4.31-4.13,6.84h6.36l8-18h16.33l8.11,18h10.78c-2.86-2.75-3.79-4-5.78-8.02m-27.86-13.4l6.52-14.68,6.66,14.68h-13.18Z"/>
      <path class="cls-1" d="M359.29,83.73l-18.62-41.11h-2.14l-18.91,42.29c-1.44,3.15-2.12,4.31-4.14,6.84h6.37l8.01-18h16.32l8.11,18h10.79c-2.86-2.75-3.79-4-5.78-8.02m-27.86-13.4l6.53-14.68,6.65,14.68h-13.18Z"/>
    </g>
    <rect class="cls-1" x="198" y="18" width="279.7" height="1.05"/>
    <rect class="cls-1" x="198" y="111.23" width="279.7" height="1.05"/>
    <g>
      <path class="cls-2" d="M252.47,542.62c-.16-1.85-.39-3.25-.4-4.64-.03-14.76,.24-89.17-.14-103.91-.15-5.83,3.27-4.93,6.78-5.08,3.74-.16,6.69-.04,6.15,5.15-.41,3.97-.34,8.04,.09,12,.14,1.26,2.1,3.33,3.24,3.34,19.89,.21,39.77,.13,59.66,.19,2.79,0,3.6-1.24,3.53-3.81-.12-4.33,.11-8.67-.07-12.99-.13-2.97,1.03-4.04,3.92-3.86,2.68,.16,5.38,.03,8.42,.03v89.75h-12.3c0-5.43-.12-46.85,.05-52.09,.1-2.94-.59-4.37-3.93-4.35-19.57,.11-39.13,.1-58.7,0-3.23-.02-4.17,1.31-4.04,4.32,.17,4.16-.09,67.99,.08,72.16,.12,2.94-.99,4.05-3.92,3.83-2.68-.2-5.38-.04-8.42-.04Z"/>
      <path class="cls-2" d="M388.57,585.24c-16.3-.71-29.5-6.53-39.23-17.29-19.31-21.35-17.68-54.4-17.6-55.8l12.1,.68-6.05-.34,6.05,.33c-.02,.29-1.39,29.5,14.53,47.04,7.48,8.24,17.82,12.71,30.73,13.27l-.53,12.11Z"/>
    </g>
    <path class="cls-2" d="M194.31,542.62c-2.37,0-4.85-.12-7.45-.36-14.18-1.31-20.96-9.38-24.16-15.93-3.24-6.64-3.36-12.85-3.37-13.53l6.06-.03,6.06-.06s.1,4.53,2.37,8.99c2.76,5.42,7.41,8.35,14.19,8.98,11.4,1.05,19.31-.5,23.51-4.61,3.39-3.32,4.66-8.75,3.77-16.16-2.01-16.75-12.82-25.82-34.8-38.67-4.11-2.4-17.54-11.21-17.93-23.7-.14-4.58,1.49-8.61,4.73-11.67,7.79-7.34,22.5-7.29,35.69-6.67,.86,.04,1.65,.08,2.35,.1,22.79,.85,26.19,12.8,26.19,19.84h-12.12c0-2.49,0-7.67-14.55-8.21-.73-.03-1.56-.07-2.47-.11-6.57-.31-21.96-1.03-26.61,3.35-.58,.54-1.16,1.33-1.11,3.01,.15,4.92,6.39,10.76,12.12,14.11,24.32,14.22,37.99,25.96,40.54,47.28,1.32,11.06-1.09,19.69-7.16,25.64-5.71,5.59-14.39,8.4-25.86,8.4Z"/>
    <polygon class="cls-2" points="617.21 428.95 574.57 522.44 535.36 428.95 522.17 428.95 530.82 449.09 502.74 521.7 462.18 428.95 448.9 428.95 498.83 542.62 507.44 542.62 537.59 464.83 570.05 542.62 578.51 542.62 630.58 428.95 617.21 428.95"/>
    <path class="cls-2" d="M406.94,542.79c-13.08,0-25.37-5.09-34.61-14.34-9.25-9.25-14.34-21.54-14.34-34.61v-15.94c0-26.99,21.96-48.95,48.95-48.95s48.95,21.96,48.95,48.95v15.94c0,26.99-21.96,48.95-48.95,48.95Zm0-101.73c-20.31,0-36.83,16.52-36.83,36.83v15.94c0,9.84,3.83,19.09,10.79,26.05,6.96,6.96,16.21,10.79,26.05,10.79,20.31,0,36.83-16.52,36.83-36.83v-15.94c0-20.31-16.52-36.83-36.83-36.83Z"/>
    <g>
      <path class="cls-3" d="M415.68,560.78c11.08,0,19.19,6.61,19.19,18.21,0,10.51-7.49,18.21-19.09,18.21h-10.46c-.16,0-.26-.1-.26-.26v-35.89c0-.16,.1-.26,.26-.26h10.35Zm-5.57,34.28c0,.16,.1,.26,.26,.26h6.76c6.97,0,12.43-5.25,12.59-13.73,.26-9.42-4.37-18.93-14.36-18.93h-4.99c-.16,0-.26,.1-.26,.26v32.15Z"/>
      <path class="cls-3" d="M455.53,570.66c.16,0,.21,.05,.21,.21v15.4c0,3.95,.47,5.93,1.92,7.33,.78,.88,1.98,1.3,3.59,1.3,2.65,0,6.24-1.51,8.48-3.9,.05-.05,.05-.1,.05-.16v-19.97c0-.16,.05-.21,.21-.21h4.47c.16,0,.26,.05,.26,.21v26.06c0,.16-.1,.26-.26,.26h-4.47c-.16,0-.21-.1-.21-.26v-3.28c0-.21-.21-.36-.36-.21-2.96,2.24-7.02,3.75-10.56,3.75-6.4,0-8.06-2.5-8.06-10.51v-15.81c0-.16,.1-.21,.26-.21h4.47Z"/>
      <path class="cls-3" d="M496.94,558.07c.16,0,.21,.05,.21,.21v14.36c0,.21,.21,.31,.36,.16,1.92-1.51,4.94-2.24,7.39-2.24,7.75,0,13.37,5.67,13.37,13.58s-6.14,13.47-14.15,13.47c-4.16,0-8.48-1.2-11.81-3.02-.05-.05-.1-.16-.1-.21v-36.1c0-.16,.1-.21,.26-.21h4.47Zm8.01,37.76c5.67,0,8.27-4.58,8.27-10.25,0-6.24-3.33-13.11-9.99-13.11-2.5,0-4.53,.94-6.03,2.76-.05,.05-.05,.1-.05,.16v17.22c0,.05,0,.1,.05,.16,1.82,1.87,4.84,3.07,7.75,3.07Z"/>
      <path class="cls-3" d="M551.04,579.19c-.16-3.17-1.04-6.66-4.58-7.33-3.8-.73-8.17,1.72-10.25,4.89-.16,.21-.47,.1-.47-.16v-2.39c0-.05,.05-.16,.1-.21,2.6-2.19,5.62-3.54,9.05-4.01,2.34-.36,5.36,0,7.49,1.2,3.48,1.82,3.59,6.76,3.59,10.09v15.66c0,.16-.1,.26-.26,.26h-4.27c-.16,0-.21-.1-.21-.26v-3.95l-.1,.05c-2.91,2.71-6.61,4.27-10.56,4.27-4.63,0-7.96-2.39-7.96-6.55,0-7.8,12.85-7.33,18.31-11.34,.05-.05,.1-.16,.1-.21Zm-8.22,16.18c2.91,0,5.88-1.3,8.22-4.42,.05-.05,.05-.1,.05-.16v-9.42c0-.21-.21-.36-.36-.21-5.15,3.07-12.74,3.23-12.74,9.47,0,3.12,1.87,4.73,4.84,4.73Z"/>
      <path class="cls-3" d="M579.34,561.4c.26,1.87-1.41,3.59-3.28,3.28-1.3-.21-2.34-1.25-2.5-2.55-.26-1.77,1.3-3.54,3.28-3.28,1.3,.16,2.34,1.14,2.5,2.55Zm-5.2,9.26h4.53c.16,0,.26,.1,.26,.26v26.06c0,.16-.1,.21-.26,.21h-4.47c-.16,0-.21-.05-.21-.21,0-4.73-.05-19.25-.05-26.06,0-.16,.05-.26,.21-.26Z"/>
    </g>
  </g>
  <g>
    <g>
      <path class="cls-2" d="M417.6,777.88c.17-.85,.17-2.04,.03-3.01l-1.09-8.09-5.95,11.1h-1.14l-6.06-11.6-1.18,8.77c-.13,1.01-.17,2.29-.06,2.83h-2.13c.41-.88,.51-1.26,.71-2.7l1.93-14.47h.98l7.07,13.51,7.06-13.51h.74l1.99,14.44c.2,1.44,.35,1.85,.74,2.73h-3.64Z"/>
      <path class="cls-2" d="M399.11,776.16l-.26,1.71h-12.28c.51-1.18,.48-1.85,.48-2.71v-11.76c0-.83,.03-1.56-.48-2.7h11.99l.02,1.74c-.23-.09-.4-.17-.57-.24-.44-.17-1.01-.32-1.59-.32h-6.57v6.73h7.71l-.38,1.32h-7.33v6.73h6.95c1.17,.02,2.34-.64,2.34-.64l-.03,.15h.01Z"/>
      <path class="cls-2" d="M464.84,769.84l.72-.07c2.42-.36,4.48-1.76,4.48-4.37,0-4.94-5.94-4.71-8.46-4.71h-3.68c.51,1.15,.48,1.88,.48,2.7v11.77c0,.85,.03,1.52-.48,2.71h3.75c-.48-1.18-.48-1.85-.48-2.71v-5.29c.36,.02,.92,.14,1.71,1.07,2.77,3.29,4.98,5.37,6.68,6.94h3.47c-.34-.33-8.19-8.04-8.19-8.04m-3.67-.82v-7.32c5.39-.21,5.94,2.47,6,3.7,.05,1.28-.48,2.79-2.07,3.4h0s-.08,.03-.08,.03c-.85,.37-3.86,.21-3.86,.21"/>
      <path class="cls-2" d="M455.14,775.07l-6.51-14.37h-.75l-6.61,14.78c-.5,1.1-.74,1.51-1.45,2.39h2.22l2.8-6.29h5.71l2.84,6.29h3.77c-1-.96-1.32-1.4-2.02-2.8m-9.74-4.68l2.28-5.13,2.33,5.13h-4.61Z"/>
      <path class="cls-2" d="M437.29,775.07l-6.51-14.37h-.75l-6.61,14.78c-.5,1.1-.74,1.51-1.45,2.39h2.23l2.8-6.29h5.7l2.83,6.29h3.77c-1-.96-1.33-1.4-2.02-2.8m-9.74-4.68l2.28-5.13,2.32,5.13h-4.61Z"/>
    </g>
    <g>
      <path class="cls-2" d="M235.6,770.87c.6,.76,.9,1.63,.9,2.61,0,.88-.22,1.66-.65,2.33-.43,.67-1.06,1.2-1.88,1.58-.82,.38-1.79,.57-2.91,.57h-7.13v-16.53h6.82c1.12,0,2.09,.18,2.9,.54,.81,.36,1.43,.87,1.85,1.52,.42,.65,.63,1.38,.63,2.2,0,.96-.26,1.77-.77,2.42s-1.2,1.11-2.05,1.37c.93,.17,1.7,.64,2.3,1.4Zm-8.36-2.63h3.03c.79,0,1.4-.18,1.82-.53,.43-.36,.64-.87,.64-1.53s-.21-1.18-.64-1.54-1.03-.54-1.82-.54h-3.03v4.14Zm5.22,6.44c.45-.38,.67-.92,.67-1.61s-.24-1.27-.71-1.67-1.11-.6-1.92-.6h-3.27v4.45h3.34c.81,0,1.43-.19,1.88-.57Z"/>
      <path class="cls-2" d="M250.52,777.96l-3.65-6.44h-1.56v6.44h-3.32v-16.53h6.21c1.28,0,2.37,.22,3.27,.67s1.57,1.06,2.02,1.82c.45,.77,.67,1.62,.67,2.57,0,1.09-.32,2.07-.95,2.95-.63,.88-1.57,1.48-2.82,1.81l3.96,6.7h-3.84Zm-5.21-8.93h2.77c.9,0,1.57-.22,2.01-.65,.44-.43,.66-1.04,.66-1.81s-.22-1.35-.66-1.76c-.44-.42-1.11-.63-2.01-.63h-2.77v4.86Z"/>
      <path class="cls-2" d="M263.43,777.03c-1.29-.73-2.32-1.73-3.08-3.02s-1.14-2.74-1.14-4.37,.38-3.06,1.14-4.35,1.78-2.29,3.08-3.02c1.29-.73,2.72-1.09,4.26-1.09s2.99,.36,4.28,1.09c1.29,.73,2.31,1.73,3.06,3.02,.75,1.29,1.12,2.74,1.12,4.35s-.38,3.08-1.12,4.37c-.75,1.29-1.77,2.29-3.07,3.02-1.29,.73-2.72,1.09-4.26,1.09s-2.97-.36-4.26-1.09Zm6.89-2.55c.76-.45,1.35-1.09,1.78-1.93,.43-.84,.64-1.81,.64-2.91s-.21-2.07-.64-2.9-1.02-1.46-1.78-1.91c-.76-.44-1.63-.66-2.63-.66s-1.88,.22-2.64,.66c-.77,.44-1.36,1.08-1.79,1.91s-.64,1.8-.64,2.9,.21,2.08,.64,2.91c.43,.84,1.02,1.48,1.79,1.93,.77,.45,1.65,.67,2.64,.67s1.87-.22,2.63-.67Z"/>
      <path class="cls-2" d="M290.78,777.96l-6.02-7.37v7.37h-3.32v-16.53h3.32v7.41l6.02-7.41h4l-6.82,8.19,7.01,8.34h-4.19Z"/>
      <path class="cls-2" d="M303.31,764.1v4.14h5.57v2.63h-5.57v4.38h6.28v2.7h-9.59v-16.56h9.59v2.7h-6.28Z"/>
      <path class="cls-2" d="M323.97,777.96l-3.65-6.44h-1.56v6.44h-3.32v-16.53h6.21c1.28,0,2.37,.22,3.27,.67,.9,.45,1.58,1.06,2.03,1.82,.45,.77,.67,1.62,.67,2.57,0,1.09-.32,2.07-.95,2.95s-1.57,1.48-2.82,1.81l3.96,6.7h-3.84Zm-5.21-8.93h2.77c.9,0,1.57-.22,2.01-.65,.44-.43,.66-1.04,.66-1.81s-.22-1.35-.66-1.76c-.44-.42-1.11-.63-2.01-.63h-2.77v4.86Z"/>
      <path class="cls-2" d="M356.51,767.32l-.78,3.65h3.01v2.96h-3.65l-.85,4.03h-3.15l.85-4.03h-4.31l-.85,4.03h-3.13l.85-4.03h-3.58v-2.96h4.22l.78-3.65h-3.55v-2.96h4.19l.83-3.93h3.13l-.83,3.93h4.31l.83-3.93h3.15l-.83,3.93h3.03v2.96h-3.67Zm-3.15,0h-4.31l-.78,3.65h4.31l.78-3.65Z"/>
      <path class="cls-2" d="M365.01,763.74v-3.05h5.71v17.27h-3.41v-14.21h-2.3Z"/>
    </g>
    <g>
      <path class="cls-2" d="M297.48,737.35c-.3,.56-.78,1.01-1.42,1.35s-1.46,.51-2.44,.51h-2v4.59h-2.4v-11.94h4.4c.92,0,1.71,.16,2.36,.48s1.14,.76,1.46,1.32c.33,.56,.49,1.19,.49,1.9,0,.64-.15,1.24-.45,1.8Zm-2.49-.52c.32-.3,.48-.73,.48-1.27,0-1.16-.65-1.75-1.95-1.75h-1.9v3.47h1.9c.66,0,1.15-.15,1.47-.45Z"/>
      <path class="cls-2" d="M310.92,743.8l-2.63-4.65h-1.13v4.65h-2.4v-11.94h4.48c.92,0,1.71,.16,2.36,.49,.65,.33,1.14,.76,1.46,1.32,.33,.55,.49,1.17,.49,1.86,0,.79-.23,1.5-.68,2.13-.46,.63-1.13,1.07-2.04,1.31l2.86,4.84h-2.77Zm-3.76-6.45h2c.65,0,1.13-.16,1.45-.47s.48-.75,.48-1.31-.16-.97-.48-1.27c-.32-.3-.8-.45-1.45-.45h-2v3.51Z"/>
      <path class="cls-2" d="M323.32,743.13c-.94-.53-1.68-1.25-2.22-2.18-.55-.93-.82-1.98-.82-3.16s.27-2.21,.82-3.14c.55-.93,1.29-1.66,2.22-2.18,.94-.52,1.96-.79,3.08-.79s2.16,.26,3.09,.79c.93,.53,1.67,1.25,2.21,2.18s.81,1.98,.81,3.14-.27,2.23-.81,3.16c-.54,.93-1.28,1.66-2.22,2.18-.94,.52-1.96,.79-3.08,.79s-2.15-.26-3.08-.79Zm4.98-1.84c.55-.33,.98-.79,1.28-1.39s.46-1.31,.46-2.11-.15-1.5-.46-2.1c-.31-.6-.74-1.06-1.28-1.38-.55-.32-1.18-.48-1.9-.48s-1.36,.16-1.91,.48c-.55,.32-.98,.78-1.29,1.38-.31,.6-.46,1.3-.46,2.1s.15,1.5,.46,2.11c.31,.6,.74,1.07,1.29,1.39,.55,.33,1.19,.49,1.91,.49s1.35-.16,1.9-.49Z"/>
      <path class="cls-2" d="M347.68,737.35c-.3,.56-.78,1.01-1.42,1.35s-1.46,.51-2.44,.51h-2v4.59h-2.4v-11.94h4.4c.92,0,1.71,.16,2.36,.48s1.14,.76,1.46,1.32c.33,.56,.49,1.19,.49,1.9,0,.64-.15,1.24-.45,1.8Zm-2.49-.52c.32-.3,.48-.73,.48-1.27,0-1.16-.65-1.75-1.95-1.75h-1.9v3.47h1.9c.66,0,1.15-.15,1.47-.45Z"/>
      <path class="cls-2" d="M357.36,733.79v2.99h4.02v1.9h-4.02v3.17h4.54v1.95h-6.93v-11.96h6.93v1.95h-4.54Z"/>
      <path class="cls-2" d="M375.36,743.8l-2.63-4.65h-1.13v4.65h-2.4v-11.94h4.48c.92,0,1.71,.16,2.36,.49,.65,.33,1.14,.76,1.46,1.32,.33,.55,.49,1.17,.49,1.86,0,.79-.23,1.5-.68,2.13-.46,.63-1.13,1.07-2.04,1.31l2.86,4.84h-2.77Zm-3.76-6.45h2c.65,0,1.13-.16,1.45-.47s.48-.75,.48-1.31-.16-.97-.48-1.27c-.32-.3-.8-.45-1.45-.45h-2v3.51Z"/>
      <path class="cls-2" d="M393.43,731.86v1.93h-3.18v10.01h-2.4v-10.01h-3.18v-1.93h8.76Z"/>
      <path class="cls-2" d="M409.81,731.86l-4.04,7.79v4.16h-2.4v-4.16l-4.06-7.79h2.7l2.57,5.46,2.55-5.46h2.67Z"/>
    </g>
    <g>
      <path class="cls-2" d="M224.21,681.63c0,2.5,1.33,4.41,3.99,5.72,.56,.28,1.72,.77,3.49,1.49,1.77,.71,3.15,1.33,4.14,1.85,4.69,2.26,7.03,5.92,7.03,10.97,0,3.58-1.16,6.49-3.49,8.73-2.32,2.25-5.39,3.37-9.21,3.37-4.49,0-7.75-1.22-9.78-3.67-2.03-2.44-3-5.57-2.92-9.39h5.66c0,2.38,.57,4.31,1.7,5.78,1.13,1.47,2.91,2.21,5.33,2.21,1.99,0,3.61-.57,4.86-1.7,1.25-1.13,1.88-2.73,1.88-4.8,0-2.86-1.47-5.01-4.41-6.44-.87-.48-2.23-1.08-4.05-1.82-1.83-.73-3.22-1.36-4.17-1.88-3.89-2.15-5.84-5.56-5.84-10.25,0-3.1,1.06-5.67,3.19-7.72,2.13-2.05,4.94-3.07,8.43-3.07,4.05,0,7.01,1.1,8.88,3.31,1.87,2.21,2.76,4.98,2.68,8.32h-5.36c-.08-1.99-.65-3.59-1.7-4.8-1.05-1.21-2.55-1.82-4.5-1.82s-3.31,.52-4.32,1.55-1.52,2.38-1.52,4.05Z"/>
      <path class="cls-2" d="M277.26,704.34l3.4,4.05c-3.7,3.62-8.23,5.42-13.59,5.42-6.32,0-11.44-2.01-15.38-6.02s-5.9-9.14-5.9-15.38,1.98-11.33,5.93-15.38c3.95-4.05,9.03-6.08,15.23-6.08,5.44,0,9.87,1.59,13.29,4.77l-3.46,4.29c-2.78-2.42-6.06-3.64-9.83-3.64-4.57,0-8.22,1.49-10.94,4.47-2.72,2.98-4.08,6.83-4.08,11.56s1.42,8.47,4.26,11.47c2.84,3,6.49,4.5,10.94,4.5,3.73,0,7.11-1.35,10.13-4.05Z"/>
      <path class="cls-2" d="M280.9,692.42c0-6.2,1.99-11.33,5.96-15.38,3.97-4.05,9-6.08,15.08-6.08s11.29,2.02,15.26,6.05c3.97,4.03,5.96,9.15,5.96,15.35s-1.98,11.28-5.93,15.35c-3.95,4.07-9.03,6.11-15.23,6.11s-11.26-2.01-15.2-6.02c-3.93-4.01-5.9-9.14-5.9-15.38Zm10.28-11.53c-2.76,3-4.14,6.85-4.14,11.53s1.39,8.52,4.17,11.5c2.78,2.98,6.38,4.47,10.79,4.47s8.12-1.49,10.88-4.47c2.76-2.98,4.14-6.81,4.14-11.5s-1.39-8.53-4.17-11.53c-2.78-3-6.4-4.5-10.85-4.5s-8.06,1.5-10.82,4.5Z"/>
      <path class="cls-2" d="M350.7,683c0,2.5-.57,4.64-1.7,6.41-1.13,1.77-2.71,3.07-4.74,3.9l10.37,19.73h-6.26l-9.72-18.66h-4.89v18.66h-5.84v-41.25h10.67c3.89,0,6.88,.95,8.97,2.86,2.09,1.91,3.13,4.69,3.13,8.34Zm-12.4-6.08h-4.53v12.52h4.53c2.03,0,3.59-.57,4.68-1.7,1.09-1.13,1.64-2.69,1.64-4.68s-.54-3.46-1.61-4.53c-1.07-1.07-2.64-1.61-4.71-1.61Z"/>
      <path class="cls-2" d="M380.2,683c0,3.58-1.11,6.4-3.34,8.46-2.23,2.07-5.15,3.1-8.76,3.1h-4.83v18.48h-5.84v-41.25h10.67c3.89,0,6.88,.95,8.97,2.86s3.13,4.69,3.13,8.34Zm-12.4-6.08h-4.53v12.52h4.53c2.03,0,3.59-.57,4.68-1.7,1.09-1.13,1.64-2.69,1.64-4.68s-.54-3.46-1.61-4.53c-1.07-1.07-2.64-1.61-4.71-1.61Z"/>
      <path class="cls-2" d="M390.45,671.79v41.25h-5.84v-41.25h5.84Z"/>
      <path class="cls-2" d="M395.22,692.42c0-6.2,1.99-11.33,5.96-15.38,3.97-4.05,9-6.08,15.08-6.08s11.29,2.02,15.26,6.05c3.97,4.03,5.96,9.15,5.96,15.35s-1.98,11.28-5.93,15.35c-3.95,4.07-9.03,6.11-15.23,6.11s-11.26-2.01-15.2-6.02c-3.93-4.01-5.9-9.14-5.9-15.38Zm10.28-11.53c-2.76,3-4.14,6.85-4.14,11.53s1.39,8.52,4.17,11.5c2.78,2.98,6.38,4.47,10.79,4.47s8.12-1.49,10.88-4.47c2.76-2.98,4.14-6.81,4.14-11.5s-1.39-8.53-4.17-11.53c-2.78-3-6.4-4.5-10.85-4.5s-8.06,1.5-10.82,4.5Z"/>
      <path class="cls-2" d="M469.07,713.04l-21.1-31.29v31.29h-5.72v-41.25h6.02l20.98,31.65v-31.65h5.72v41.25h-5.9Z"/>
    </g>
    <polygon class="cls-2" points="414.83 735.68 414.83 737.91 455.76 736.85 414.83 735.68"/>
    <polygon class="cls-2" points="282.2 737.91 282.2 735.68 241.27 736.74 282.2 737.91"/>
  </g>
</svg>