<?xml version="1.0" encoding="UTF-8"?>
<svg id="Capa_1" data-name="Capa 1" xmlns="http://www.w3.org/2000/svg" viewBox="0 0 665.02 867.79">
  <defs>
    <style>
      .cls-1 {
        fill: #85754e;
      }

      .cls-2 {
        fill: #0d2449;
      }
    </style>
  </defs>
  <g>
    <g>
      <g>
        <path class="cls-2" d="M87.87,211.25c-1.88-.84-3.35-2.02-4.42-3.52-1.07-1.5-1.62-3.23-1.66-5.2h5.02c.17,1.69,.87,3.11,2.1,4.27,1.22,1.16,3.01,1.73,5.35,1.73s4.01-.56,5.3-1.68c1.29-1.12,1.94-2.56,1.94-4.32,0-1.38-.38-2.5-1.14-3.36s-1.71-1.52-2.85-1.97-2.67-.93-4.6-1.45c-2.38-.62-4.29-1.24-5.72-1.86s-2.66-1.6-3.67-2.92c-1.02-1.33-1.53-3.11-1.53-5.36,0-1.97,.5-3.71,1.5-5.23,1-1.52,2.41-2.69,4.22-3.52,1.81-.83,3.89-1.24,6.23-1.24,3.38,0,6.15,.85,8.3,2.54,2.16,1.69,3.37,3.93,3.65,6.73h-5.17c-.17-1.38-.9-2.59-2.17-3.65-1.28-1.05-2.97-1.58-5.07-1.58-1.97,0-3.57,.51-4.81,1.53-1.24,1.02-1.86,2.44-1.86,4.27,0,1.31,.37,2.38,1.11,3.21,.74,.83,1.66,1.46,2.74,1.89,1.09,.43,2.61,.92,4.58,1.47,2.38,.66,4.29,1.3,5.74,1.94,1.45,.64,2.69,1.62,3.73,2.95,1.03,1.33,1.55,3.13,1.55,5.41,0,1.76-.47,3.41-1.4,4.97-.93,1.55-2.31,2.81-4.14,3.78-1.83,.97-3.98,1.45-6.47,1.45s-4.51-.42-6.39-1.27h.01Z"/>
        <path class="cls-2" d="M149,184.6c1.59-2.81,3.75-5.01,6.49-6.6,2.74-1.59,5.79-2.38,9.13-2.38,3.93,0,7.36,.95,10.3,2.85,2.93,1.9,5.07,4.59,6.42,8.07h-5.64c-1-2.17-2.44-3.85-4.32-5.02s-4.13-1.76-6.75-1.76-4.78,.59-6.78,1.76-3.57,2.84-4.71,4.99c-1.14,2.16-1.71,4.68-1.71,7.58s.57,5.37,1.71,7.53c1.14,2.16,2.71,3.82,4.71,4.99,2,1.17,4.26,1.76,6.78,1.76s4.87-.58,6.75-1.73c1.88-1.16,3.32-2.82,4.32-4.99h5.64c-1.35,3.45-3.48,6.11-6.42,7.99-2.93,1.88-6.36,2.82-10.3,2.82-3.35,0-6.39-.78-9.13-2.35s-4.91-3.75-6.49-6.54c-1.59-2.79-2.38-5.95-2.38-9.47s.79-6.68,2.38-9.49h0Z"/>
        <path class="cls-2" d="M230.69,210.16c-2.76-1.57-4.94-3.76-6.55-6.57-1.6-2.81-2.41-5.98-2.41-9.49s.8-6.68,2.41-9.49c1.6-2.81,3.78-5,6.55-6.57,2.76-1.57,5.81-2.35,9.16-2.35s6.45,.79,9.21,2.35c2.76,1.57,4.93,3.75,6.52,6.54s2.38,5.97,2.38,9.52-.79,6.73-2.38,9.52c-1.59,2.79-3.76,4.98-6.52,6.54-2.76,1.57-5.83,2.35-9.21,2.35s-6.4-.78-9.16-2.35h0Zm15.96-3.49c2.02-1.17,3.6-2.85,4.76-5.02,1.15-2.17,1.73-4.69,1.73-7.55s-.58-5.42-1.73-7.58c-1.16-2.16-2.73-3.82-4.73-4.99s-4.28-1.76-6.83-1.76-4.83,.59-6.83,1.76-3.58,2.84-4.73,4.99c-1.16,2.16-1.73,4.68-1.73,7.58s.58,5.38,1.73,7.55c1.16,2.17,2.74,3.85,4.76,5.02,2.02,1.17,4.28,1.76,6.8,1.76s4.79-.59,6.8-1.76Z"/>
        <path class="cls-2" d="M318.33,212.15l-8.59-14.75h-5.69v14.75h-4.71v-36.06h11.64c2.72,0,5.03,.47,6.91,1.4s3.29,2.19,4.22,3.78,1.4,3.4,1.4,5.43c0,2.48-.72,4.67-2.15,6.57s-3.58,3.16-6.44,3.78l9.05,15.11h-5.64Zm-14.28-18.53h6.93c2.55,0,4.47-.63,5.74-1.89,1.28-1.26,1.91-2.94,1.91-5.04s-.63-3.79-1.89-4.97c-1.26-1.17-3.18-1.76-5.77-1.76h-6.93v13.66h.01Z"/>
        <path class="cls-2" d="M387.02,194.12c-2.05,1.98-5.18,2.97-9.39,2.97h-6.93v15.06h-4.71v-36.06h11.64c4.07,0,7.17,.98,9.29,2.95s3.18,4.5,3.18,7.61-1.03,5.49-3.08,7.48h0Zm-3.6-2.62c1.24-1.14,1.86-2.76,1.86-4.86,0-4.45-2.55-6.67-7.66-6.67h-6.93v13.25h6.93c2.62,0,4.55-.57,5.79-1.71h.01Z"/>
        <path class="cls-2" d="M435.83,176.09v36.06h-4.71v-36.06h4.71Z"/>
        <path class="cls-2" d="M486.22,210.16c-2.76-1.57-4.94-3.76-6.55-6.57-1.6-2.81-2.41-5.98-2.41-9.49s.8-6.68,2.41-9.49c1.6-2.81,3.78-5,6.55-6.57,2.76-1.57,5.81-2.35,9.16-2.35s6.45,.79,9.21,2.35c2.76,1.57,4.93,3.75,6.52,6.54s2.38,5.97,2.38,9.52-.79,6.73-2.38,9.52c-1.59,2.79-3.76,4.98-6.52,6.54-2.76,1.57-5.83,2.35-9.21,2.35s-6.4-.78-9.16-2.35h0Zm15.96-3.49c2.02-1.17,3.6-2.85,4.76-5.02,1.15-2.17,1.73-4.69,1.73-7.55s-.58-5.42-1.73-7.58c-1.16-2.16-2.73-3.82-4.73-4.99s-4.28-1.76-6.83-1.76-4.83,.59-6.83,1.76-3.58,2.84-4.73,4.99c-1.16,2.16-1.73,4.68-1.73,7.58s.58,5.38,1.73,7.55c1.16,2.17,2.74,3.85,4.76,5.02,2.02,1.17,4.29,1.76,6.8,1.76s4.79-.59,6.8-1.76Z"/>
        <path class="cls-2" d="M583.23,212.15h-4.71l-18.94-28.71v28.71h-4.71v-36.11h4.71l18.94,28.66v-28.66h4.71v36.11h0Z"/>
      </g>
      <g>
        <path class="cls-2" d="M123.39,339.83c.27,.36,.36,.59,.44,.58,11.69-1.26,16.76,7.2,21.7,15.27,10.94,17.9,15.95,37.59,16.44,58.48,.01,.62-.19,1.41-.42,2.82h-6.56c-11.15,0-22.31-.28-33.46,0-4.14,.11-5.5-1.09-5.79-5.34-1.7-25.2-10.44-47.75-26.27-67.49-.9-1.12-1.88-2.42-3.12-2.96-2.39-1.04-4.55-.72-4.85,2.55-.13,1.44-.08,2.91-.09,4.36,0,21.01-.11,42.03,.08,63.04,.04,4.39-1.17,5.9-5.72,5.79-11.79-.3-23.6-.22-35.4-.03-3.81,.06-5.37-.8-5.36-5.04,.14-53.5,.13-107.01,0-160.51,0-4.2,1.17-5.6,5.47-5.57,25.7,.17,51.4-.07,77.1,.13,29.14,.22,50.94,26.06,45.86,54.75-2.73,15.43-13.09,25.56-26.27,32.96-4.31,2.42-9.05,4.09-13.81,6.21h.03Zm-5.46-46.02c0-3.23,.41-6.52-.09-9.67-.92-5.87-1.56-11.99-3.77-17.41-4.5-11.01-10-17.14-27.44-16.28-4.01,.2-5.32,1.36-5.29,5.32,.14,17.92,.06,35.85,.06,53.77,0,7.27-.13,14.54,.12,21.8,.05,1.55,1.2,4.06,2.36,4.42,11.45,3.51,22.82-1.27,28.45-11.86,5-9.4,5.87-19.67,5.59-30.09h0Z"/>
        <path class="cls-2" d="M523.2,416.49V252.34c0-6.45,.02-6.47,6.31-6.47,25.19,0,50.39,.04,75.58,.05,10.05,0,18.02,4.44,24.55,11.72,11.48,12.82,16.86,28.42,20.06,44.93,2.72,14.03,3.54,28.22,1.87,42.42-2.44,20.76-9.26,39.84-23.2,55.87-9.25,10.64-20.39,16.56-35.11,16.13-21.3-.62-42.63-.15-63.95-.17-1.89,0-3.78-.2-6.11-.33Zm46.31-85.13v15.03c0,20.2-.04,40.4,.09,60.6,.01,1.65,.75,4.27,1.89,4.78,6.75,3,17.62-.09,21.42-6.73,3.4-5.94,6.2-12.46,7.95-19.06,4.87-18.41,5.46-37.32,5.38-56.26-.08-19.93-1.08-39.73-6.97-58.95-4.84-15.79-10.27-20.07-23.97-20.31-4.96-.09-5.89,1.84-5.86,6.24,.16,24.89,.08,49.78,.08,74.66h-.01Z"/>
        <path class="cls-2" d="M189.8,331.33c0-18.22,5.03-34.74,17.44-48.39,23.76-26.13,64.45-24.44,86.24,3.38,19.7,25.15,19.63,65.07-.15,90.09-25.41,32.14-74.69,27.87-94.29-8.16-6.35-11.68-9.19-23.02-9.24-36.92h0Zm96.17,36.22c-.28-2.27-.46-5.31-1.06-8.26-2.9-14.34-9.07-27.32-17.28-39.28-9.27-13.51-20.35-25.37-35.04-33.12-4.28-2.26-9.2-3.74-14-4.51-4.93-.79-8.61,1.58-9.54,6.42-1.03,5.36-1.72,11.22-.63,16.46,5.88,28.3,21.05,50.93,43.75,68.59,5.86,4.56,12.3,8.17,19.67,9.83,7.35,1.65,12.79-2.11,13.72-9.56,.24-1.92,.25-3.87,.41-6.56h0Z"/>
        <path class="cls-2" d="M376.78,292.74c-4.25,9.24-8.24,17.29-11.67,25.57-3.82,9.2-7.71,18.45-10.51,27.99-3.19,10.87,1.89,19.19,12.99,21.34,8.99,1.74,18.22,2.32,27.38,2.96,3.49,.24,5.53,1.28,7.14,4.45,6.21,12.23,12.71,24.31,19.07,36.46,.73,1.39,1.3,2.86,2.24,4.96-2.07,.15-3.6,.35-5.13,.36-19.23,.02-38.47,.1-57.7-.06-4.48-.04-9.02-.63-13.43-1.52-10.09-2.04-15.51-8.94-15.69-19.15-.19-10.79,3.27-20.76,7.49-30.34,17.18-38.96,34.69-77.77,52.24-116.56,.68-1.49,2.92-2.87,4.64-3.2,7.62-1.43,12.13,1.22,15.97,8.86,23.9,47.57,48.43,94.83,73.05,142.03,3.36,6.44,2.39,12.71,2.59,19.96h-10.37c-10.18,0-20.37-.2-30.54,.1-4.02,.12-6.01-1.39-7.78-4.85-19.22-37.65-38.59-75.22-57.95-112.79-.99-1.92-2.25-3.69-4.02-6.55v-.02Z"/>
      </g>
      <path class="cls-2" d="M35.23,378.2s2.91,38.82-20.96,38.82h58.23v-53.38l-37.27,14.56Z"/>
      <path class="cls-2" d="M35.16,284.6s2.91-38.82-20.96-38.82h58.23v53.38l-37.27-14.56Z"/>
      <path class="cls-2" d="M523.19,277.44s-2.1-31.57-20.98-31.57h36.97"/>
    </g>
    <path class="cls-1" d="M12.72,469.29c2.29-.14,4.58-.4,6.87-.42,9.56-.05,19.13,.13,28.69-.06,26.77-.55,47.57-20.91,48.59-47.71,.39-10.27,.07-20.56,.21-30.84,.03-1.99,.67-3.98,1.04-5.97,.72,.03,1.43,.07,2.15,.1,.28,1.65,.8,3.3,.81,4.96,.08,9.56-.1,19.13,.09,28.69,.59,29.87,21.79,50.7,51.55,50.79,8.85,.02,17.7-.03,26.54,.05,2.12,.02,4.24,.44,6.36,.67,.02,.74,.04,1.47,.07,2.21-1.83,.3-3.66,.84-5.49,.86-9.33,.1-18.65,.03-27.98,.09-29.43,.2-50.42,20.92-51.03,50.53-.23,11.16-.04,22.33-.04,33.49-.81,.16-1.63,.33-2.44,.49-.57-1.96-1.58-3.91-1.62-5.88-.18-9.08-.01-18.17-.09-27.26-.27-30.56-21.02-51.23-51.5-51.36-8.85-.04-17.7,0-26.54-.09-2.13-.02-4.25-.49-6.37-.76,.04-.86,.08-1.73,.13-2.59h0Z"/>
    <g>
      <path class="cls-1" d="M288.47,106.11c.48-2.43,.48-5.84,.09-8.62l-3.13-23.15-17.03,31.75h-3.25l-17.33-33.18-3.36,25.1c-.36,2.89-.47,6.56-.17,8.11h-6.09c1.18-2.52,1.47-3.6,2.02-7.73l5.51-41.4h2.81l20.21,38.63,20.2-38.63h2.11l5.7,41.31c.57,4.12,.99,5.3,2.13,7.82h-10.42Z"/>
      <path class="cls-1" d="M235.58,101.21l-.74,4.9h-35.14c1.45-3.39,1.36-5.3,1.36-7.74v-33.65c0-2.36,.09-4.45-1.36-7.74h34.3l.06,4.98c-.64-.26-1.16-.49-1.63-.7-1.27-.47-2.88-.92-4.56-.91h-18.8v19.24h22.06l-1.09,3.78h-20.97v19.26h19.89c3.36,.05,6.68-1.84,6.68-1.84l-.09,.42h.03Z"/>
      <path class="cls-1" d="M423.61,83.13l2.06-.21c6.92-1.02,12.81-5.04,12.81-12.5,0-14.13-17-13.48-24.2-13.48h-10.54c1.45,3.29,1.36,5.37,1.36,7.73v33.68c0,2.44,.09,4.35-1.36,7.74h10.74c-1.38-3.39-1.38-5.3-1.38-7.74v-15.13c1.03,.06,2.63,.4,4.88,3.06,7.92,9.42,14.23,15.36,19.11,19.84h9.92c-.98-.95-23.41-23.01-23.41-23.01m-10.5-2.34v-20.95c15.42-.61,17,7.06,17.17,10.58,.15,3.66-1.38,7.98-5.92,9.71l.02-.02-.22,.09c-2.42,1.05-11.05,.59-11.05,.59"/>
      <path class="cls-1" d="M395.85,98.09l-18.62-41.11h-2.13l-18.91,42.29c-1.43,3.15-2.11,4.31-4.13,6.84h6.36l8-18h16.33l8.11,18h10.78c-2.86-2.75-3.79-4-5.78-8.02m-27.86-13.4l6.52-14.68,6.66,14.68h-13.18Z"/>
      <path class="cls-1" d="M344.8,98.09l-18.62-41.11h-2.14l-18.91,42.29c-1.44,3.15-2.12,4.31-4.14,6.84h6.37l8.01-18h16.32l8.11,18h10.79c-2.86-2.75-3.79-4-5.78-8.02m-27.86-13.4l6.53-14.68,6.65,14.68h-13.18Z"/>
    </g>
    <rect class="cls-1" x="183.51" y="32.36" width="279.7" height="1.05"/>
    <rect class="cls-1" x="183.51" y="125.59" width="279.7" height="1.05"/>
    <g>
      <path class="cls-2" d="M237.98,556.98c-.16-1.85-.39-3.25-.4-4.64-.03-14.76,.24-89.17-.14-103.91-.15-5.83,3.27-4.93,6.78-5.08,3.74-.16,6.69-.04,6.15,5.15-.41,3.97-.34,8.04,.09,12,.14,1.26,2.1,3.33,3.24,3.34,19.89,.21,39.77,.13,59.66,.19,2.79,0,3.6-1.24,3.53-3.81-.12-4.33,.11-8.67-.07-12.99-.13-2.97,1.03-4.04,3.92-3.86,2.68,.16,5.38,.03,8.42,.03v89.75h-12.3c0-5.43-.12-46.85,.05-52.09,.1-2.94-.59-4.37-3.93-4.35-19.57,.11-39.13,.1-58.7,0-3.23-.02-4.17,1.31-4.04,4.32,.17,4.16-.09,67.99,.08,72.16,.12,2.94-.99,4.05-3.92,3.83-2.68-.2-5.38-.04-8.42-.04h0Z"/>
      <path class="cls-2" d="M374.08,599.6c-16.3-.71-29.5-6.53-39.23-17.29-19.31-21.35-17.68-54.4-17.6-55.8l12.1,.68-6.05-.34,6.05,.33c-.02,.29-1.39,29.5,14.53,47.04,7.48,8.24,17.82,12.71,30.73,13.27l-.53,12.11h0Z"/>
    </g>
    <path class="cls-2" d="M179.82,556.98c-2.37,0-4.85-.12-7.45-.36-14.18-1.31-20.96-9.38-24.16-15.93-3.24-6.64-3.36-12.85-3.37-13.53l6.06-.03,6.06-.06s.1,4.53,2.37,8.99c2.76,5.42,7.41,8.35,14.19,8.98,11.4,1.05,19.31-.5,23.51-4.61,3.39-3.32,4.66-8.75,3.77-16.16-2.01-16.75-12.82-25.82-34.8-38.67-4.11-2.4-17.54-11.21-17.93-23.7-.14-4.58,1.49-8.61,4.73-11.67,7.79-7.34,22.5-7.29,35.69-6.67,.86,.04,1.65,.08,2.35,.1,22.79,.85,26.19,12.8,26.19,19.84h-12.12c0-2.49,0-7.67-14.55-8.21-.73-.03-1.56-.07-2.47-.11-6.57-.31-21.96-1.03-26.61,3.35-.58,.54-1.16,1.33-1.11,3.01,.15,4.92,6.39,10.76,12.12,14.11,24.32,14.22,37.99,25.96,40.54,47.28,1.32,11.06-1.09,19.69-7.16,25.64-5.71,5.59-14.39,8.4-25.86,8.4h0Z"/>
    <polygon class="cls-2" points="602.72 443.31 560.08 536.8 520.87 443.31 507.68 443.31 516.33 463.45 488.25 536.06 447.69 443.31 434.41 443.31 484.34 556.98 492.95 556.98 523.1 479.19 555.56 556.98 564.02 556.98 616.09 443.31 602.72 443.31"/>
    <path class="cls-2" d="M392.45,557.15c-13.08,0-25.37-5.09-34.61-14.34-9.25-9.25-14.34-21.54-14.34-34.61v-15.94c0-26.99,21.96-48.95,48.95-48.95s48.95,21.96,48.95,48.95v15.94c0,26.99-21.96,48.95-48.95,48.95Zm0-101.73c-20.31,0-36.83,16.52-36.83,36.83v15.94c0,9.84,3.83,19.09,10.79,26.05s16.21,10.79,26.05,10.79c20.31,0,36.83-16.52,36.83-36.83v-15.94c0-20.31-16.52-36.83-36.83-36.83h0Z"/>
  </g>
  <g>
    <g>
      <path class="cls-2" d="M403.11,820.24c.17-.85,.17-2.04,.03-3.01l-1.09-8.09-5.95,11.1h-1.14l-6.06-11.6-1.18,8.77c-.13,1.01-.17,2.29-.06,2.83h-2.13c.41-.88,.51-1.26,.71-2.7l1.93-14.47h.98l7.07,13.51,7.06-13.51h.74l1.99,14.44c.2,1.44,.35,1.85,.74,2.73h-3.64Z"/>
      <path class="cls-2" d="M384.62,818.52l-.26,1.71h-12.28c.51-1.18,.48-1.85,.48-2.71v-11.76c0-.83,.03-1.56-.48-2.7h11.99l.02,1.74c-.23-.09-.4-.17-.57-.24-.44-.17-1.01-.32-1.59-.32h-6.57v6.73h7.71l-.38,1.32h-7.33v6.73h6.95c1.17,.02,2.34-.64,2.34-.64l-.03,.15h0Z"/>
      <path class="cls-2" d="M450.35,812.2l.72-.07c2.42-.36,4.48-1.76,4.48-4.37,0-4.94-5.94-4.71-8.46-4.71h-3.68c.51,1.15,.48,1.88,.48,2.7v11.77c0,.85,.03,1.52-.48,2.71h3.75c-.48-1.18-.48-1.85-.48-2.71v-5.29c.36,.02,.92,.14,1.71,1.07,2.77,3.29,4.98,5.37,6.68,6.94h3.47c-.34-.33-8.19-8.04-8.19-8.04m-3.67-.82v-7.32c5.39-.21,5.94,2.47,6,3.7,.05,1.28-.48,2.79-2.07,3.4h0l-.08,.03c-.85,.37-3.86,.21-3.86,.21"/>
      <path class="cls-2" d="M440.65,817.43l-6.51-14.37h-.75l-6.61,14.78c-.5,1.1-.74,1.51-1.45,2.39h2.22l2.8-6.29h5.71l2.84,6.29h3.77c-1-.96-1.32-1.4-2.02-2.8m-9.74-4.68l2.28-5.13,2.33,5.13h-4.61Z"/>
      <path class="cls-2" d="M422.8,817.43l-6.51-14.37h-.75l-6.61,14.78c-.5,1.1-.74,1.51-1.45,2.39h2.23l2.8-6.29h5.7l2.83,6.29h3.77c-1-.96-1.33-1.4-2.02-2.8m-9.74-4.68l2.28-5.13,2.32,5.13h-4.6Z"/>
    </g>
    <polygon class="cls-2" points="400.34 778.04 400.34 780.27 441.27 779.21 400.34 778.04"/>
    <polygon class="cls-2" points="267.71 780.27 267.71 778.04 226.78 779.1 267.71 780.27"/>
  </g>
</svg>