<?xml version="1.0" encoding="UTF-8"?>
<svg id="Capa_1" data-name="Capa 1" xmlns="http://www.w3.org/2000/svg" xmlns:xlink="http://www.w3.org/1999/xlink" viewBox="0 0 489.14 409.25">
  <defs>
    <style>
      .cls-1 {
        stroke-width: 5px;
      }

      .cls-1, .cls-2, .cls-3 {
        stroke: #85754e;
        stroke-miterlimit: 10;
      }

      .cls-1, .cls-2, .cls-3, .cls-4 {
        fill: none;
      }

      .cls-2 {
        stroke-width: 3px;
      }

      .cls-5 {
        clip-path: url(#clippath-2);
      }

      .cls-6 {
        clip-path: url(#clippath-1);
      }

      .cls-3 {
        stroke-width: .8px;
      }

      .cls-7 {
        fill: #85754e;
      }

      .cls-8 {
        clip-path: url(#clippath);
      }

      .cls-9 {
        fill: #0d2449;
      }
    </style>
    <clipPath id="clippath">
      <rect class="cls-4" x="108.72" y="559.16" width="377.42" height="324.79"/>
    </clipPath>
    <clipPath id="clippath-1">
      <path class="cls-4" d="M438.1,287.99H117.1s0,559.28,0,559.28c187.18-45.74,322.78-208.25,322.78-409.52l-1.79-149.76Z"/>
    </clipPath>
    <clipPath id="clippath-2">
      <rect class="cls-2" x="23.96" y="435.69" width="413.8" height="413.8" transform="translate(-411.72 873.45) rotate(-90)"/>
    </clipPath>
  </defs>
  <g>
    <g>
      <g>
        <path class="cls-9" d="M35.02,112.36c-1.44-.65-2.56-1.54-3.38-2.69-.82-1.15-1.24-2.47-1.27-3.98h3.84c.13,1.29,.67,2.38,1.6,3.26,.94,.88,2.3,1.33,4.09,1.33s3.07-.43,4.05-1.29c.99-.86,1.48-1.96,1.48-3.3,0-1.05-.29-1.91-.87-2.57-.58-.66-1.31-1.16-2.18-1.5-.87-.34-2.04-.71-3.52-1.11-1.82-.47-3.28-.95-4.37-1.42-1.09-.47-2.03-1.22-2.81-2.23-.78-1.01-1.17-2.38-1.17-4.09,0-1.5,.38-2.83,1.15-3.99,.76-1.16,1.84-2.06,3.22-2.69,1.38-.63,2.97-.95,4.77-.95,2.58,0,4.7,.65,6.35,1.94,1.65,1.29,2.58,3.01,2.79,5.14h-3.96c-.13-1.05-.69-1.98-1.66-2.79-.98-.8-2.27-1.21-3.88-1.21-1.5,0-2.73,.39-3.68,1.17-.95,.78-1.42,1.87-1.42,3.26,0,1,.28,1.82,.85,2.45,.57,.63,1.27,1.11,2.1,1.44,.83,.33,2,.71,3.5,1.13,1.82,.5,3.28,1,4.39,1.48,1.11,.49,2.06,1.24,2.85,2.25,.79,1.02,1.19,2.39,1.19,4.13,0,1.34-.36,2.61-1.07,3.8-.71,1.19-1.77,2.15-3.16,2.89-1.4,.74-3.05,1.11-4.94,1.11s-3.45-.32-4.88-.97Z"/>
        <path class="cls-9" d="M81.75,91.99c1.21-2.15,2.87-3.83,4.96-5.04,2.1-1.21,4.42-1.82,6.98-1.82,3.01,0,5.63,.73,7.87,2.18,2.24,1.45,3.88,3.51,4.9,6.17h-4.31c-.76-1.66-1.87-2.94-3.3-3.84-1.44-.9-3.16-1.34-5.16-1.34s-3.65,.45-5.18,1.34c-1.53,.9-2.73,2.17-3.6,3.82-.87,1.65-1.31,3.58-1.31,5.79s.43,4.11,1.31,5.75c.87,1.65,2.07,2.92,3.6,3.82,1.53,.9,3.26,1.34,5.18,1.34s3.72-.44,5.16-1.33c1.44-.88,2.54-2.16,3.3-3.82h4.31c-1.03,2.64-2.66,4.67-4.9,6.11-2.24,1.44-4.86,2.16-7.87,2.16-2.56,0-4.89-.6-6.98-1.8-2.1-1.2-3.75-2.87-4.96-5-1.21-2.14-1.82-4.55-1.82-7.24s.61-5.11,1.82-7.26Z"/>
        <path class="cls-9" d="M144.2,111.53c-2.11-1.2-3.78-2.87-5-5.02-1.23-2.15-1.84-4.57-1.84-7.26s.61-5.11,1.84-7.26c1.23-2.15,2.89-3.82,5-5.02,2.11-1.2,4.44-1.8,7-1.8s4.93,.6,7.04,1.8c2.11,1.2,3.77,2.87,4.98,5,1.21,2.14,1.82,4.56,1.82,7.28s-.61,5.14-1.82,7.28c-1.21,2.14-2.87,3.8-4.98,5-2.11,1.2-4.46,1.8-7.04,1.8s-4.89-.6-7-1.8Zm12.2-2.67c1.54-.9,2.76-2.18,3.64-3.84,.88-1.66,1.33-3.59,1.33-5.77s-.44-4.15-1.33-5.79c-.88-1.65-2.09-2.92-3.62-3.82-1.53-.9-3.27-1.34-5.22-1.34s-3.69,.45-5.22,1.34c-1.53,.9-2.74,2.17-3.62,3.82-.88,1.65-1.33,3.58-1.33,5.79s.44,4.11,1.33,5.77c.88,1.66,2.1,2.94,3.64,3.84,1.54,.9,3.28,1.34,5.2,1.34s3.66-.45,5.2-1.34Z"/>
        <path class="cls-9" d="M211.21,113.05l-6.57-11.27h-4.35v11.27h-3.6v-27.57h8.9c2.08,0,3.84,.36,5.28,1.07,1.44,.71,2.51,1.67,3.22,2.89,.71,1.21,1.07,2.6,1.07,4.15,0,1.9-.55,3.57-1.64,5.02-1.09,1.45-2.74,2.41-4.92,2.89l6.92,11.55h-4.31Zm-10.92-14.16h5.3c1.95,0,3.41-.48,4.39-1.44,.98-.96,1.46-2.25,1.46-3.86s-.48-2.9-1.44-3.8c-.96-.9-2.43-1.34-4.41-1.34h-5.3v10.44Z"/>
        <path class="cls-9" d="M263.71,99.27c-1.57,1.52-3.96,2.27-7.18,2.27h-5.3v11.51h-3.6v-27.57h8.9c3.11,0,5.48,.75,7.1,2.25,1.62,1.5,2.43,3.44,2.43,5.81s-.79,4.2-2.35,5.72Zm-2.75-2c.95-.87,1.42-2.11,1.42-3.72,0-3.4-1.95-5.1-5.85-5.1h-5.3v10.13h5.3c2,0,3.48-.44,4.43-1.31Z"/>
        <path class="cls-9" d="M301.03,85.48v27.57h-3.6v-27.57h3.6Z"/>
        <path class="cls-9" d="M339.55,111.53c-2.11-1.2-3.78-2.87-5-5.02-1.23-2.15-1.84-4.57-1.84-7.26s.61-5.11,1.84-7.26c1.23-2.15,2.89-3.82,5-5.02,2.11-1.2,4.44-1.8,7-1.8s4.93,.6,7.04,1.8c2.11,1.2,3.77,2.87,4.98,5,1.21,2.14,1.82,4.56,1.82,7.28s-.61,5.14-1.82,7.28c-1.21,2.14-2.87,3.8-4.98,5-2.11,1.2-4.46,1.8-7.04,1.8s-4.89-.6-7-1.8Zm12.2-2.67c1.54-.9,2.76-2.18,3.64-3.84,.88-1.66,1.33-3.59,1.33-5.77s-.44-4.15-1.33-5.79c-.88-1.65-2.09-2.92-3.62-3.82-1.53-.9-3.27-1.34-5.22-1.34s-3.69,.45-5.22,1.34c-1.53,.9-2.74,2.17-3.62,3.82-.88,1.65-1.33,3.58-1.33,5.79s.44,4.11,1.33,5.77c.88,1.66,2.1,2.94,3.64,3.84,1.54,.9,3.28,1.34,5.2,1.34s3.66-.45,5.2-1.34Z"/>
        <path class="cls-9" d="M413.72,113.05h-3.6l-14.48-21.95v21.95h-3.6v-27.61h3.6l14.48,21.91v-21.91h3.6v27.61Z"/>
      </g>
      <g>
        <path class="cls-9" d="M84.7,210.66c.2,.28,.28,.45,.33,.44,8.94-.96,12.82,5.5,16.59,11.67,8.36,13.69,12.19,28.74,12.57,44.71,.01,.48-.14,1.08-.32,2.16-1.66,0-3.34,0-5.02,0-8.53,0-17.06-.22-25.58,0-3.16,.08-4.21-.83-4.43-4.08-1.3-19.26-7.98-36.51-20.08-51.6-.69-.85-1.44-1.85-2.38-2.26-1.82-.79-3.48-.55-3.71,1.95-.1,1.1-.06,2.22-.07,3.33,0,16.06-.09,32.13,.06,48.19,.03,3.36-.9,4.51-4.37,4.42-9.02-.23-18.04-.17-27.06-.02-2.92,.05-4.1-.61-4.09-3.85,.1-40.9,.1-81.81,0-122.71,0-3.21,.89-4.28,4.18-4.26,19.65,.13,39.3-.05,58.94,.1,22.27,.17,38.94,19.92,35.06,41.86-2.09,11.79-10.01,19.54-20.08,25.19-3.3,1.85-6.92,3.13-10.56,4.74Zm-4.17-35.18c0-2.47,.31-4.98-.07-7.39-.71-4.49-1.19-9.17-2.88-13.31-3.44-8.42-7.65-13.11-20.97-12.44-3.06,.15-4.07,1.04-4.04,4.07,.11,13.7,.05,27.41,.05,41.11,0,5.56-.1,11.11,.09,16.66,.04,1.18,.91,3.11,1.81,3.38,8.76,2.68,17.45-.97,21.75-9.07,3.82-7.18,4.48-15.04,4.28-23Z"/>
        <path class="cls-9" d="M390.35,269.27c0-1.69,0-3.03,0-4.37,0-40.37,0-80.75,0-121.12,0-4.93,.01-4.95,4.82-4.94,19.26,0,38.52,.03,57.78,.04,7.68,0,13.78,3.39,18.77,8.96,8.77,9.8,12.89,21.72,15.33,34.35,2.08,10.73,2.71,21.58,1.43,32.43-1.87,15.87-7.08,30.46-17.73,42.71-7.07,8.13-15.59,12.66-26.84,12.33-16.28-.48-32.59-.12-48.89-.13-1.45,0-2.89-.15-4.67-.25Zm35.4-65.08c0,3.83,0,7.66,0,11.49,0,15.44-.03,30.89,.07,46.33,0,1.26,.58,3.26,1.45,3.65,5.16,2.29,13.47-.07,16.38-5.15,2.6-4.54,4.74-9.52,6.08-14.57,3.73-14.07,4.17-28.53,4.12-43.01-.06-15.23-.82-30.37-5.33-45.07-3.7-12.07-7.85-15.34-18.33-15.52-3.79-.07-4.5,1.4-4.48,4.77,.12,19.03,.06,38.05,.06,57.08Z"/>
        <path class="cls-9" d="M135.47,204.16c0-13.93,3.85-26.56,13.33-36.99,18.16-19.98,49.27-18.69,65.93,2.58,15.06,19.23,15.01,49.74-.12,68.87-19.42,24.57-57.1,21.31-72.08-6.24-4.86-8.93-7.02-17.59-7.06-28.22Zm73.52,27.69c-.22-1.74-.35-4.06-.81-6.32-2.22-10.96-6.94-20.89-13.21-30.03-7.09-10.33-15.55-19.39-26.78-25.32-3.28-1.73-7.03-2.86-10.7-3.45-3.77-.61-6.58,1.21-7.29,4.91-.79,4.09-1.32,8.58-.48,12.59,4.5,21.63,16.09,38.94,33.45,52.43,4.48,3.48,9.4,6.25,15.04,7.51,5.62,1.26,9.77-1.62,10.49-7.31,.18-1.47,.19-2.96,.31-5.01Z"/>
        <path class="cls-9" d="M278.42,174.66c-3.25,7.06-6.3,13.22-8.92,19.55-2.92,7.04-5.89,14.1-8.03,21.4-2.44,8.31,1.45,14.67,9.93,16.31,6.87,1.33,13.93,1.78,20.93,2.26,2.67,.19,4.23,.98,5.46,3.4,4.75,9.35,9.71,18.58,14.58,27.87,.56,1.06,.99,2.19,1.71,3.79-1.58,.11-2.75,.27-3.92,.27-14.7,.02-29.41,.08-44.11-.05-3.43-.03-6.9-.48-10.26-1.16-7.72-1.56-11.86-6.84-12-14.64-.14-8.25,2.5-15.87,5.73-23.19,13.13-29.78,26.52-59.45,39.93-89.11,.52-1.14,2.23-2.2,3.54-2.44,5.83-1.09,9.28,.93,12.21,6.77,18.27,36.37,37.02,72.49,55.85,108.58,2.57,4.92,1.83,9.71,1.98,15.26-2.84,0-5.39,0-7.93,0-7.78,0-15.57-.15-23.35,.07-3.08,.09-4.6-1.06-5.95-3.71-14.69-28.78-29.5-57.5-44.3-86.23-.75-1.46-1.72-2.82-3.07-5.01Z"/>
      </g>
      <path class="cls-9" d="M17.31,239.99s2.23,29.68-16.03,29.68H45.8v-40.8l-28.49,11.13Z"/>
      <path class="cls-9" d="M17.25,168.44s2.23-29.68-16.03-29.68H45.74v40.8s-28.49-11.13-28.49-11.13Z"/>
      <path class="cls-9" d="M390.35,162.96s-1.6-24.13-16.04-24.13h28.26"/>
    </g>
    <path class="cls-9" d="M361.04,254.27s6.66,15.25,16.98,15.25h-21.88"/>
    <path class="cls-9" d="M112.5,251.09s1.86,18.56,11.14,18.56h-18.19"/>
    <path class="cls-7" d="M.1,309.63c1.75-.11,3.5-.31,5.25-.32,7.31-.04,14.63,.1,21.94-.05,20.46-.42,36.37-15.98,37.15-36.47,.3-7.85,.06-15.72,.16-23.58,.02-1.52,.52-3.04,.79-4.56,.55,.03,1.1,.05,1.64,.08,.22,1.26,.61,2.52,.62,3.79,.06,7.31-.08,14.63,.07,21.94,.45,22.84,16.66,38.76,39.41,38.83,6.76,.02,13.53-.02,20.29,.04,1.62,.02,3.24,.34,4.86,.52,.02,.56,.03,1.13,.05,1.69-1.4,.23-2.8,.64-4.2,.66-7.13,.08-14.26,.02-21.39,.07-22.5,.15-38.55,15.99-39.01,38.63-.18,8.53-.03,17.07-.03,25.6-.62,.12-1.25,.25-1.87,.37-.43-1.5-1.21-2.99-1.24-4.5-.13-6.94,0-13.89-.07-20.84-.21-23.36-16.07-39.16-39.37-39.27-6.76-.03-13.53,0-20.29-.07-1.63-.02-3.25-.38-4.87-.58,.03-.66,.06-1.32,.1-1.98Z"/>
    <g>
      <path class="cls-9" d="M172.3,376.67c-.13-1.42-.3-2.48-.3-3.55-.02-11.28,.18-68.17-.11-79.44-.11-4.46,2.5-3.77,5.18-3.88,2.86-.12,5.12-.03,4.7,3.93-.31,3.03-.26,6.15,.07,9.18,.1,.97,1.61,2.54,2.48,2.55,15.2,.16,30.41,.1,45.61,.14,2.13,0,2.75-.95,2.7-2.92-.09-3.31,.09-6.62-.05-9.93-.1-2.27,.79-3.09,3-2.95,2.05,.12,4.11,.03,6.44,.03v68.61h-9.4c0-4.15-.09-35.82,.04-39.82,.07-2.25-.45-3.34-3-3.33-14.96,.09-29.92,.08-44.88,0-2.47-.01-3.19,1-3.09,3.3,.13,3.18-.07,51.98,.06,55.16,.09,2.25-.76,3.09-3,2.93-2.05-.15-4.12-.03-6.44-.03Z"/>
      <path class="cls-9" d="M276.35,409.25c-12.46-.54-22.55-4.99-29.99-13.22-14.76-16.32-13.52-41.59-13.46-42.66l9.25,.52-4.62-.26,4.62,.25c-.01,.22-1.06,22.55,11.11,35.96,5.72,6.3,13.62,9.71,23.5,10.14l-.4,9.25Z"/>
    </g>
    <path class="cls-9" d="M127.84,376.67c-1.81,0-3.71-.09-5.7-.27-10.84-1-16.03-7.17-18.47-12.18-2.48-5.08-2.57-9.82-2.57-10.35l4.63-.02,4.63-.04s.08,3.46,1.81,6.87c2.11,4.14,5.66,6.39,10.85,6.86,8.71,.8,14.76-.38,17.97-3.53,2.59-2.54,3.56-6.69,2.89-12.35-1.53-12.81-9.8-19.74-26.61-29.56-3.14-1.84-13.41-8.57-13.71-18.12-.11-3.5,1.14-6.59,3.62-8.92,5.95-5.61,17.2-5.57,27.28-5.1,.66,.03,1.26,.06,1.8,.08,17.42,.65,20.02,9.78,20.02,15.17h-9.26c0-1.9,0-5.86-11.12-6.28-.56-.02-1.19-.05-1.89-.08-5.02-.24-16.78-.79-20.34,2.56-.44,.42-.89,1.02-.85,2.3,.12,3.76,4.89,8.23,9.27,10.79,18.6,10.87,29.04,19.85,30.99,36.14,1.01,8.46-.83,15.05-5.48,19.6-4.37,4.27-11,6.42-19.77,6.42Z"/>
    <polygon class="cls-9" points="451.14 289.77 418.55 361.24 388.57 289.77 378.49 289.77 385.1 305.17 363.63 360.68 332.62 289.77 322.47 289.77 360.64 376.67 367.22 376.67 390.27 317.2 415.09 376.67 421.56 376.67 461.37 289.77 451.14 289.77"/>
    <path class="cls-9" d="M290.4,376.8c-10,0-19.39-3.89-26.46-10.96-7.07-7.07-10.96-16.47-10.96-26.46v-12.19c0-20.63,16.79-37.42,37.42-37.42s37.42,16.79,37.42,37.42v12.19c0,20.63-16.79,37.42-37.42,37.42Zm0-77.77c-15.53,0-28.16,12.63-28.16,28.16v12.19c0,7.52,2.93,14.59,8.25,19.91,5.32,5.32,12.39,8.25,19.91,8.25,15.53,0,28.16-12.63,28.16-28.16v-12.19c0-15.53-12.63-28.16-28.16-28.16Z"/>
    <g>
      <g>
        <path class="cls-7" d="M221,42.61c.28-1.41,.28-3.4,.06-5.02l-1.82-13.47-9.91,18.47h-1.89l-10.08-19.31-1.96,14.6c-.21,1.68-.28,3.82-.1,4.72h-3.55c.68-1.47,.85-2.09,1.18-4.5l3.21-24.09h1.64l11.76,22.48,11.75-22.48h1.23l3.31,24.04c.33,2.4,.58,3.08,1.24,4.55h-6.06Z"/>
        <path class="cls-7" d="M188.33,39.75l-.43,2.85h-20.45c.84-1.97,.79-3.08,.79-4.5V18.52c0-1.38,.05-2.59-.79-4.5h19.95l.03,2.9c-.37-.15-.67-.28-.95-.41-.74-.28-1.68-.53-2.65-.53h-10.94v11.19h12.83l-.63,2.2h-12.2v11.21h11.57c1.95,.03,3.89-1.07,3.89-1.07l-.05,.24h.02Z"/>
        <path class="cls-7" d="M305.32,29.24l1.2-.12c4.02-.59,7.45-2.93,7.45-7.27,0-8.22-9.89-7.84-14.08-7.84h-6.13c.84,1.91,.79,3.13,.79,4.5v19.6c0,1.42,.05,2.53-.79,4.51h6.25c-.8-1.97-.8-3.08-.8-4.51v-8.8c.6,.04,1.53,.23,2.84,1.78,4.61,5.48,8.28,8.94,11.12,11.55h5.77c-.57-.55-13.62-13.39-13.62-13.39m-6.11-1.36V15.69c8.97-.36,9.89,4.11,9.99,6.15,.08,2.13-.8,4.65-3.44,5.65h.01s-.13,.04-.13,.04c-1.41,.61-6.43,.34-6.43,.34"/>
        <path class="cls-7" d="M287.28,37.94l-10.83-23.92h-1.24l-11.01,24.61c-.83,1.83-1.23,2.51-2.41,3.98h3.7l4.65-10.47h9.5l4.72,10.47h6.27c-1.66-1.6-2.21-2.33-3.36-4.67m-16.21-7.8l3.8-8.54,3.87,8.54h-7.67Z"/>
        <path class="cls-7" d="M255.68,37.94l-10.83-23.92h-1.24l-11,24.61c-.84,1.83-1.23,2.51-2.41,3.98h3.71l4.66-10.47h9.49l4.72,10.47h6.28c-1.66-1.6-2.21-2.33-3.36-4.67m-16.21-7.8l3.8-8.54,3.87,8.54h-7.67Z"/>
      </g>
      <line class="cls-3" x1="159.98" y1="53.94" x2="330.38" y2="53.94"/>
      <line class="cls-3" x1="159.98" x2="330.38"/>
    </g>
  </g>
  <g class="cls-8">
    <g class="cls-6">
      <g>
        <rect class="cls-2" x="-287.78" y="123.94" width="209.7" height="413.8" transform="translate(-513.77 147.9) rotate(-90)"/>
        <g>
          <g class="cls-5">
            <g>
              <circle class="cls-1" cx="23.96" cy="435.69" r="413.8" transform="translate(-301.06 144.56) rotate(-45)"/>
              <circle class="cls-1" cx="23.96" cy="435.69" r="343.91" transform="translate(-301.06 144.56) rotate(-45)"/>
              <circle class="cls-1" cx="23.96" cy="435.69" r="275.19" transform="translate(-301.06 144.56) rotate(-45)"/>
              <circle class="cls-1" cx="23.96" cy="435.69" r="206.4" transform="translate(-301.06 144.56) rotate(-45)"/>
              <circle class="cls-1" cx="23.96" cy="435.69" r="138.81" transform="translate(-301.06 144.56) rotate(-45)"/>
              <circle class="cls-1" cx="23.96" cy="435.69" r="70.27" transform="translate(-25.71 2.18) rotate(-3.39)"/>
            </g>
          </g>
          <rect class="cls-2" x="23.96" y="435.69" width="413.8" height="413.8" transform="translate(-411.72 873.45) rotate(-90)"/>
        </g>
        <path class="cls-2" d="M127.24,228.92c-56.32,0-101.98,45.66-101.98,101.98,0,56.32,45.66,101.98,101.98,101.98"/>
        <path class="cls-2" d="M332.16,226.07c-56.32,0-101.98,46.94-101.98,104.84,0,57.9,45.66,104.83,101.98,104.83V226.07Z"/>
        <path class="cls-2" d="M436.72,226.07c-56.32,0-101.98,46.94-101.98,104.84,0,57.9,45.66,104.83,101.98,104.83"/>
        <rect class="cls-2" x="22.41" y="227.97" width="209.67" height="205.86" transform="translate(-203.66 458.15) rotate(-90)"/>
        <rect class="cls-2" x="644.24" y="19.58" width="209.67" height="622.64" transform="translate(418.18 1079.98) rotate(-90)"/>
        <rect class="cls-2" x="229.13" y="227.11" width="209.67" height="207.59" transform="translate(3.07 664.87) rotate(-90)"/>
        <circle class="cls-2" cx="127.24" cy="330.9" r="101.98" transform="translate(-17.7 7.36) rotate(-3.1)"/>
        <polyline class="cls-2" points="645.4 849.48 437.76 639.81 645.4 435.73 436.03 226.07"/>
      </g>
    </g>
  </g>
</svg>