<?xml version="1.0" encoding="UTF-8"?>
<svg id="Capa_1" data-name="Capa 1" xmlns="http://www.w3.org/2000/svg" viewBox="0 0 130.17 54.17">
  <defs>
    <style>
      .cls-1 {
        fill: #84754e;
      }

      .cls-2 {
        fill: #0d2449;
      }
    </style>
  </defs>
  <g>
    <path class="cls-1" d="M101.17,54.05c.08-.43,.08-1.03,.02-1.52l-.55-4.09-3.01,5.61h-.57l-3.06-5.86-.59,4.43c-.06,.51-.08,1.16-.03,1.43h-1.08c.21-.44,.26-.64,.36-1.37l.97-7.32h.5l3.57,6.83,3.57-6.83h.37l1.01,7.3c.1,.73,.18,.94,.38,1.38h-1.84Z"/>
    <path class="cls-1" d="M91.82,53.18l-.13,.87h-6.21c.26-.6,.24-.94,.24-1.37v-5.95c0-.42,.02-.79-.24-1.37h6.06v.88c-.1-.05-.19-.09-.28-.12-.22-.08-.51-.16-.81-.16h-3.32v3.4h3.9l-.19,.67h-3.71v3.4h3.51c.59,0,1.18-.33,1.18-.33l-.02,.07h0Z"/>
    <path class="cls-1" d="M125.05,49.99l.36-.04c1.22-.18,2.26-.89,2.26-2.21,0-2.5-3-2.38-4.28-2.38h-1.86c.26,.58,.24,.95,.24,1.37v5.95c0,.43,.02,.77-.24,1.37h1.9c-.24-.6-.24-.94-.24-1.37v-2.67c.18,.01,.46,.07,.86,.54,1.4,1.67,2.52,2.72,3.38,3.51h1.75c-.17-.17-4.14-4.07-4.14-4.07m-1.86-.41v-3.7c2.73-.11,3,1.25,3.03,1.87,.03,.65-.24,1.41-1.05,1.72h0s-.04,.01-.04,.01c-.43,.19-1.95,.1-1.95,.1"/>
    <path class="cls-1" d="M120.14,52.63l-3.29-7.26h-.38l-3.34,7.47c-.25,.56-.37,.76-.73,1.21h1.12l1.41-3.18h2.89l1.43,3.18h1.91c-.5-.49-.67-.71-1.02-1.42m-4.92-2.37l1.15-2.59,1.18,2.59h-2.33Z"/>
    <path class="cls-1" d="M111.12,52.63l-3.29-7.26h-.38l-3.34,7.47c-.25,.56-.37,.76-.73,1.21h1.13l1.42-3.18h2.88l1.43,3.18h1.91c-.5-.49-.67-.71-1.02-1.42m-4.92-2.37l1.15-2.59,1.17,2.59h-2.33Z"/>
  </g>
  <g>
    <path class="cls-1" d="M32.25,50.51c.3,.38,.45,.82,.45,1.32,0,.45-.11,.84-.33,1.18-.22,.34-.54,.6-.95,.8-.42,.19-.91,.29-1.47,.29h-3.6v-8.36h3.45c.57,0,1.06,.09,1.47,.28,.41,.18,.72,.44,.93,.77,.21,.33,.32,.7,.32,1.11,0,.49-.13,.89-.39,1.22s-.6,.56-1.04,.69c.47,.09,.86,.32,1.16,.71Zm-4.23-1.33h1.53c.4,0,.71-.09,.92-.27,.22-.18,.32-.44,.32-.77s-.11-.59-.32-.78c-.22-.18-.52-.28-.92-.28h-1.53v2.1Zm2.64,3.26c.23-.19,.34-.46,.34-.81s-.12-.64-.36-.84c-.24-.2-.56-.31-.97-.31h-1.65v2.25h1.69c.41,0,.72-.1,.95-.29Z"/>
    <path class="cls-1" d="M39.79,54.09l-1.84-3.26h-.79v3.26h-1.68v-8.36h3.14c.65,0,1.2,.11,1.65,.34,.45,.23,.8,.53,1.02,.92,.23,.39,.34,.82,.34,1.3,0,.55-.16,1.05-.48,1.49s-.79,.75-1.42,.92l2,3.39h-1.94Zm-2.63-4.51h1.4c.46,0,.79-.11,1.02-.33,.22-.22,.34-.52,.34-.92s-.11-.68-.34-.89c-.22-.21-.56-.32-1.02-.32h-1.4v2.45Z"/>
    <path class="cls-1" d="M46.32,53.62c-.65-.37-1.17-.88-1.56-1.53-.38-.65-.57-1.39-.57-2.21s.19-1.55,.57-2.2c.38-.65,.9-1.16,1.56-1.53,.65-.37,1.37-.55,2.15-.55s1.51,.18,2.16,.55,1.17,.88,1.54,1.53c.38,.65,.57,1.38,.57,2.2s-.19,1.56-.57,2.21c-.38,.65-.9,1.16-1.55,1.53-.65,.37-1.37,.55-2.16,.55s-1.5-.18-2.15-.55Zm3.48-1.29c.38-.23,.68-.55,.9-.98,.22-.42,.32-.91,.32-1.47s-.11-1.05-.32-1.47c-.22-.42-.51-.74-.9-.96-.38-.22-.83-.34-1.33-.34s-.95,.11-1.34,.34c-.39,.22-.69,.54-.9,.96-.22,.42-.32,.91-.32,1.47s.11,1.05,.32,1.47c.22,.42,.52,.75,.9,.98,.39,.23,.83,.34,1.34,.34s.95-.11,1.33-.34Z"/>
    <path class="cls-1" d="M60.15,54.09l-3.04-3.72v3.72h-1.68v-8.36h1.68v3.75l3.04-3.75h2.02l-3.45,4.14,3.54,4.21h-2.12Z"/>
    <path class="cls-1" d="M66.48,47.08v2.1h2.81v1.33h-2.81v2.21h3.17v1.37h-4.85v-8.37h4.85v1.36h-3.17Z"/>
    <path class="cls-1" d="M76.92,54.09l-1.84-3.26h-.79v3.26h-1.68v-8.36h3.14c.65,0,1.2,.11,1.65,.34,.45,.23,.8,.53,1.02,.92,.23,.39,.34,.82,.34,1.3,0,.55-.16,1.05-.48,1.49s-.79,.75-1.42,.92l2,3.39h-1.94Zm-2.63-4.51h1.4c.46,0,.79-.11,1.02-.33,.22-.22,.34-.52,.34-.92s-.11-.68-.34-.89c-.22-.21-.56-.32-1.02-.32h-1.4v2.45Z"/>
    <path class="cls-1" d="M14.77,48.71l-.4,1.84h1.52v1.5h-1.84l-.43,2.04h-1.59l.43-2.04h-2.18l-.43,2.04h-1.58l.43-2.04h-1.81v-1.5h2.13l.39-1.84h-1.8v-1.5h2.12l.42-1.99h1.58l-.42,1.99h2.18l.42-1.99h1.59l-.42,1.99h1.53v1.5h-1.86Zm-1.59,0h-2.18l-.4,1.84h2.18l.39-1.84Z"/>
    <path class="cls-1" d="M19.06,46.91v-1.54h2.89v8.73h-1.72v-7.18h-1.16Z"/>
  </g>
  <g>
    <path class="cls-2" d="M40.44,33.56c-.15,.28-.39,.51-.72,.68-.33,.17-.74,.26-1.23,.26h-1.01v2.32h-1.21v-6.04h2.22c.47,0,.87,.08,1.19,.24s.58,.38,.74,.67c.16,.28,.25,.6,.25,.96,0,.32-.08,.63-.23,.91Zm-1.26-.26c.16-.15,.24-.37,.24-.64,0-.59-.33-.88-.99-.88h-.96v1.76h.96c.33,0,.58-.08,.74-.23Z"/>
    <path class="cls-2" d="M47.24,36.82l-1.33-2.35h-.57v2.35h-1.21v-6.04h2.27c.47,0,.87,.08,1.19,.25s.58,.39,.74,.67,.25,.59,.25,.94c0,.4-.12,.76-.35,1.08-.23,.32-.57,.54-1.03,.66l1.44,2.45h-1.4Zm-1.9-3.26h1.01c.33,0,.57-.08,.74-.24s.24-.38,.24-.66-.08-.49-.24-.64c-.16-.15-.41-.23-.74-.23h-1.01v1.77Z"/>
    <path class="cls-2" d="M53.51,36.48c-.47-.26-.85-.63-1.12-1.1s-.42-1-.42-1.6,.14-1.12,.42-1.59,.65-.84,1.12-1.1c.47-.26,.99-.4,1.56-.4s1.09,.13,1.56,.4c.47,.27,.84,.63,1.12,1.1,.27,.47,.41,1,.41,1.59s-.14,1.13-.41,1.6c-.27,.47-.65,.84-1.12,1.1-.47,.27-.99,.4-1.56,.4s-1.08-.13-1.56-.4Zm2.52-.93c.28-.16,.49-.4,.65-.71,.16-.31,.23-.66,.23-1.06s-.08-.76-.23-1.06c-.16-.3-.37-.53-.65-.7-.28-.16-.6-.24-.96-.24s-.68,.08-.96,.24-.5,.39-.65,.7c-.16,.3-.23,.66-.23,1.06s.08,.76,.23,1.06c.16,.31,.37,.54,.65,.71s.6,.25,.96,.25,.68-.08,.96-.25Z"/>
    <path class="cls-2" d="M65.82,33.56c-.15,.28-.39,.51-.72,.68-.33,.17-.74,.26-1.23,.26h-1.01v2.32h-1.21v-6.04h2.22c.47,0,.87,.08,1.19,.24s.58,.38,.74,.67c.16,.28,.25,.6,.25,.96,0,.32-.08,.63-.23,.91Zm-1.26-.26c.16-.15,.24-.37,.24-.64,0-.59-.33-.88-.99-.88h-.96v1.76h.96c.33,0,.58-.08,.74-.23Z"/>
    <path class="cls-2" d="M70.71,31.76v1.51h2.03v.96h-2.03v1.6h2.29v.99h-3.5v-6.05h3.5v.99h-2.29Z"/>
    <path class="cls-2" d="M79.82,36.82l-1.33-2.35h-.57v2.35h-1.21v-6.04h2.27c.47,0,.87,.08,1.19,.25s.58,.39,.74,.67,.25,.59,.25,.94c0,.4-.12,.76-.35,1.08-.23,.32-.57,.54-1.03,.66l1.44,2.45h-1.4Zm-1.9-3.26h1.01c.33,0,.57-.08,.74-.24s.24-.38,.24-.66-.08-.49-.24-.64c-.16-.15-.41-.23-.74-.23h-1.01v1.77Z"/>
    <path class="cls-2" d="M88.95,30.78v.98h-1.61v5.06h-1.21v-5.06h-1.61v-.98h4.43Z"/>
    <path class="cls-2" d="M97.23,30.78l-2.04,3.94v2.1h-1.21v-2.1l-2.05-3.94h1.37l1.3,2.76,1.29-2.76h1.35Z"/>
  </g>
  <g>
    <path class="cls-2" d="M3.41,5.39c0,1.27,.67,2.23,2.02,2.89,.28,.14,.87,.39,1.76,.75,.89,.36,1.59,.67,2.09,.93,2.37,1.14,3.56,2.99,3.56,5.54,0,1.81-.59,3.28-1.76,4.41-1.18,1.14-2.73,1.7-4.66,1.7-2.27,0-3.92-.62-4.94-1.85C.45,18.55-.04,16.96,0,15.04H2.86c0,1.21,.29,2.18,.86,2.92,.57,.74,1.47,1.11,2.7,1.11,1,0,1.82-.29,2.46-.86,.63-.57,.95-1.38,.95-2.43,0-1.45-.74-2.53-2.23-3.25-.44-.24-1.12-.55-2.05-.92-.92-.37-1.63-.69-2.11-.95C1.47,9.58,.48,7.85,.48,5.48c0-1.57,.54-2.87,1.61-3.9C3.17,.55,4.59,.03,6.36,.03,8.41,.03,9.91,.59,10.85,1.7c.94,1.11,1.4,2.52,1.36,4.2h-2.71c-.04-1-.33-1.81-.86-2.43-.53-.61-1.29-.92-2.27-.92s-1.67,.26-2.18,.78c-.51,.52-.77,1.21-.77,2.05Z"/>
    <path class="cls-2" d="M30.22,16.87l1.72,2.05c-1.87,1.83-4.16,2.74-6.87,2.74-3.19,0-5.79-1.01-7.77-3.04-1.99-2.03-2.98-4.62-2.98-7.77s1-5.73,3-7.77c2-2.05,4.56-3.07,7.7-3.07,2.75,0,4.99,.8,6.72,2.41l-1.75,2.17c-1.41-1.23-3.06-1.84-4.97-1.84-2.31,0-4.15,.75-5.53,2.26-1.38,1.51-2.06,3.46-2.06,5.85s.72,4.28,2.15,5.8c1.44,1.52,3.28,2.28,5.53,2.28,1.89,0,3.6-.68,5.12-2.05Z"/>
    <path class="cls-2" d="M32.06,10.85c0-3.13,1-5.73,3.01-7.77,2.01-2.05,4.55-3.07,7.62-3.07s5.7,1.02,7.71,3.06c2.01,2.04,3.01,4.63,3.01,7.76s-1,5.7-3,7.76c-2,2.06-4.57,3.09-7.7,3.09s-5.7-1.01-7.68-3.04c-1.99-2.03-2.98-4.62-2.98-7.77Zm5.2-5.83c-1.4,1.52-2.09,3.46-2.09,5.83s.7,4.31,2.11,5.82c1.41,1.51,3.22,2.26,5.45,2.26s4.1-.75,5.5-2.26,2.09-3.44,2.09-5.82-.7-4.31-2.11-5.83c-1.41-1.52-3.23-2.27-5.48-2.27s-4.07,.76-5.47,2.27Z"/>
    <path class="cls-2" d="M67.35,6.09c0,1.27-.29,2.35-.86,3.24s-1.37,1.55-2.4,1.97l5.24,9.97h-3.16l-4.91-9.43h-2.47v9.43h-2.95V.42h5.39c1.97,0,3.48,.48,4.53,1.45,1.05,.96,1.58,2.37,1.58,4.22Zm-6.27-3.07h-2.29v6.33h2.29c1.02,0,1.81-.29,2.37-.86s.83-1.36,.83-2.37-.27-1.75-.81-2.29-1.34-.81-2.38-.81Z"/>
    <path class="cls-2" d="M82.26,6.09c0,1.81-.56,3.23-1.69,4.28-1.12,1.04-2.6,1.57-4.43,1.57h-2.44v9.34h-2.95V.42h5.39c1.97,0,3.48,.48,4.53,1.45,1.05,.96,1.58,2.37,1.58,4.22Zm-6.27-3.07h-2.29v6.33h2.29c1.02,0,1.81-.29,2.37-.86s.83-1.36,.83-2.37-.27-1.75-.81-2.29-1.34-.81-2.38-.81Z"/>
    <path class="cls-2" d="M87.44,.42V21.27h-2.95V.42h2.95Z"/>
    <path class="cls-2" d="M89.85,10.85c0-3.13,1-5.73,3.01-7.77s4.55-3.07,7.62-3.07,5.7,1.02,7.71,3.06c2.01,2.04,3.01,4.63,3.01,7.76s-1,5.7-3,7.76c-2,2.06-4.56,3.09-7.7,3.09s-5.69-1.01-7.68-3.04c-1.99-2.03-2.98-4.62-2.98-7.77Zm5.2-5.83c-1.4,1.52-2.09,3.46-2.09,5.83s.7,4.31,2.11,5.82,3.22,2.26,5.45,2.26,4.1-.75,5.5-2.26c1.4-1.51,2.09-3.44,2.09-5.82s-.7-4.31-2.11-5.83c-1.41-1.52-3.23-2.27-5.48-2.27s-4.07,.76-5.47,2.27Z"/>
    <path class="cls-2" d="M127.19,21.27l-10.67-15.82v15.82h-2.89V.42h3.04l10.61,16V.42h2.89V21.27h-2.98Z"/>
  </g>
  <polygon class="cls-2" points="99.77 32.72 99.77 33.85 120.46 33.31 99.77 32.72"/>
  <polygon class="cls-2" points="32.72 33.85 32.72 32.72 12.03 33.25 32.72 33.85"/>
</svg>