<?xml version="1.0" encoding="utf-8"?>
<!-- Generator: Adobe Illustrator 26.5.0, SVG Export Plug-In . SVG Version: 6.00 Build 0)  -->
<svg version="1.1" id="Capa_1" xmlns="http://www.w3.org/2000/svg" xmlns:xlink="http://www.w3.org/1999/xlink" x="0px" y="0px"
	 viewBox="0 0 533 637.8" style="enable-background:new 0 0 533 637.8;" xml:space="preserve">
<style type="text/css">
	.st0{fill:#1B2746;}
	.st1{fill:#84764F;}
</style>
<g>
	<g>
		<g>
			<g>
				<g>
					<path class="st0" d="M81.4,159.3c-1.5-0.7-2.6-1.6-3.4-2.7c-0.8-1.2-1.3-2.5-1.3-4h3.9c0.1,1.3,0.7,2.4,1.6,3.3
						c0.9,0.9,2.3,1.3,4.2,1.3c1.7,0,3.1-0.4,4.1-1.3c1-0.9,1.5-2,1.5-3.3c0-1.1-0.3-1.9-0.9-2.6c-0.6-0.7-1.3-1.2-2.2-1.5
						c-0.9-0.3-2.1-0.7-3.6-1.1c-1.8-0.5-3.3-1-4.4-1.4c-1.1-0.5-2.1-1.2-2.8-2.3c-0.8-1-1.2-2.4-1.2-4.2c0-1.5,0.4-2.9,1.2-4.1
						c0.8-1.2,1.9-2.1,3.3-2.7c1.4-0.6,3-1,4.8-1c2.6,0,4.8,0.7,6.4,2c1.7,1.3,2.6,3,2.8,5.2h-4c-0.1-1.1-0.7-2-1.7-2.8
						c-1-0.8-2.3-1.2-3.9-1.2c-1.5,0-2.8,0.4-3.7,1.2c-1,0.8-1.4,1.9-1.4,3.3c0,1,0.3,1.8,0.9,2.5c0.6,0.6,1.3,1.1,2.1,1.5
						c0.8,0.3,2,0.7,3.5,1.1c1.8,0.5,3.3,1,4.5,1.5c1.1,0.5,2.1,1.3,2.9,2.3c0.8,1,1.2,2.4,1.2,4.2c0,1.4-0.4,2.6-1.1,3.9
						c-0.7,1.2-1.8,2.2-3.2,2.9c-1.4,0.7-3.1,1.1-5,1.1C84.5,160.3,82.9,159.9,81.4,159.3z"/>
				</g>
				<g>
					<path class="st0" d="M128.8,138.6c1.2-2.2,2.9-3.9,5-5.1c2.1-1.2,4.5-1.8,7.1-1.8c3,0,5.7,0.7,8,2.2c2.3,1.5,3.9,3.6,5,6.3
						l-4.4,0c-0.8-1.7-1.9-3-3.3-3.9c-1.5-0.9-3.2-1.4-5.2-1.4c-2,0-3.7,0.5-5.3,1.4c-1.6,0.9-2.8,2.2-3.6,3.9
						c-0.9,1.7-1.3,3.6-1.3,5.9c0,2.2,0.4,4.2,1.3,5.8c0.9,1.7,2.1,3,3.6,3.9c1.6,0.9,3.3,1.4,5.3,1.4c2,0,3.8-0.4,5.2-1.3
						c1.5-0.9,2.6-2.2,3.3-3.9l4.4,0c-1,2.7-2.7,4.7-5,6.2c-2.3,1.5-4.9,2.2-8,2.2c-2.6,0-5-0.6-7.1-1.8c-2.1-1.2-3.8-2.9-5-5.1
						c-1.2-2.2-1.8-4.6-1.8-7.3C127,143.3,127.6,140.8,128.8,138.6z"/>
				</g>
				<g>
					<path class="st0" d="M192.2,158.4c-2.1-1.2-3.8-2.9-5.1-5.1c-1.2-2.2-1.9-4.6-1.9-7.4s0.6-5.2,1.9-7.4c1.2-2.2,2.9-3.9,5.1-5.1
						c2.1-1.2,4.5-1.8,7.1-1.8c2.6,0,5,0.6,7.1,1.8c2.1,1.2,3.8,2.9,5.1,5.1c1.2,2.2,1.8,4.6,1.8,7.4c0,2.8-0.6,5.2-1.8,7.4
						c-1.2,2.2-2.9,3.9-5.1,5.1c-2.1,1.2-4.5,1.8-7.1,1.8C196.7,160.3,194.3,159.7,192.2,158.4z M204.5,155.7
						c1.6-0.9,2.8-2.2,3.7-3.9c0.9-1.7,1.3-3.6,1.3-5.9c0-2.2-0.4-4.2-1.3-5.9c-0.9-1.7-2.1-3-3.7-3.9c-1.6-0.9-3.3-1.4-5.3-1.4
						c-2,0-3.7,0.5-5.3,1.4c-1.6,0.9-2.8,2.2-3.7,3.9c-0.9,1.7-1.3,3.6-1.3,5.9c0,2.2,0.4,4.2,1.3,5.9c0.9,1.7,2.1,3,3.7,3.9
						c1.6,0.9,3.3,1.4,5.3,1.4C201.2,157.1,203,156.6,204.5,155.7z"/>
				</g>
				<g>
					<path class="st0" d="M260.1,160l-6.7-11.4H249l0,11.4l-3.7,0l0-28l9,0c2.1,0,3.9,0.4,5.4,1.1c1.5,0.7,2.5,1.7,3.3,2.9
						c0.7,1.2,1.1,2.6,1.1,4.2c0,1.9-0.6,3.6-1.7,5.1c-1.1,1.5-2.8,2.4-5,2.9l7,11.7H260.1z M249,145.6l5.4,0c2,0,3.5-0.5,4.5-1.5
						c1-1,1.5-2.3,1.5-3.9c0-1.7-0.5-2.9-1.5-3.9c-1-0.9-2.5-1.4-4.5-1.4l-5.4,0L249,145.6z"/>
				</g>
				<g>
					<path class="st0" d="M313.4,146c-1.6,1.5-4,2.3-7.3,2.3h-5.4l0,11.7l-3.6,0l0-28l9,0c3.2,0,5.6,0.8,7.2,2.3s2.5,3.5,2.5,5.9
						C315.7,142.5,314.9,144.5,313.4,146z M310.6,144c1-0.9,1.4-2.1,1.4-3.8c0-3.4-2-5.2-5.9-5.2l-5.4,0v10.3h5.4
						C308.1,145.3,309.6,144.9,310.6,144z"/>
				</g>
				<g>
					<path class="st0" d="M351.2,132l0,28l-3.6,0l0-28L351.2,132z"/>
				</g>
				<g>
					<path class="st0" d="M390.3,158.4c-2.1-1.2-3.8-2.9-5.1-5.1c-1.2-2.2-1.9-4.6-1.9-7.4s0.6-5.2,1.9-7.4c1.2-2.2,2.9-3.9,5.1-5.1
						c2.1-1.2,4.5-1.8,7.1-1.8c2.6,0,5,0.6,7.1,1.8c2.1,1.2,3.8,2.9,5.1,5.1c1.2,2.2,1.8,4.6,1.8,7.4c0,2.8-0.6,5.2-1.8,7.4
						c-1.2,2.2-2.9,3.9-5.1,5.1c-2.1,1.2-4.5,1.8-7.1,1.8C394.8,160.3,392.4,159.7,390.3,158.4z M402.6,155.7
						c1.6-0.9,2.8-2.2,3.7-3.9c0.9-1.7,1.3-3.6,1.3-5.9c0-2.2-0.4-4.2-1.3-5.9c-0.9-1.7-2.1-3-3.7-3.9c-1.6-0.9-3.3-1.4-5.3-1.4
						c-2,0-3.7,0.5-5.3,1.4c-1.6,0.9-2.8,2.2-3.7,3.9c-0.9,1.7-1.3,3.6-1.3,5.9c0,2.2,0.4,4.2,1.3,5.9c0.9,1.7,2.1,3,3.7,3.9
						c1.6,0.9,3.3,1.4,5.3,1.4C399.3,157.1,401.1,156.6,402.6,155.7z"/>
				</g>
				<g>
					<path class="st0" d="M465.5,160l-3.6,0l-14.7-22.3l0,22.3l-3.6,0l0-28h3.6l14.7,22.2l0-22.2h3.6L465.5,160z"/>
				</g>
			</g>
			<g>
				<g>
					<path class="st0" d="M109,259c0.2,0.3,0.3,0.5,0.3,0.5c9.1-1,13,5.6,16.8,11.8c8.5,13.9,12.4,29.1,12.7,45.3
						c0,0.5-0.1,1.1-0.3,2.2c-1.7,0-3.4,0-5.1,0c-8.6,0-17.3-0.2-25.9,0c-3.2,0.1-4.3-0.8-4.5-4.1c-1.3-19.5-8.1-37-20.4-52.3
						c-0.7-0.9-1.5-1.9-2.4-2.3c-1.8-0.8-3.5-0.6-3.8,2c-0.1,1.1-0.1,2.3-0.1,3.4c0,16.3-0.1,32.6,0.1,48.9c0,3.4-0.9,4.6-4.4,4.5
						c-9.1-0.2-18.3-0.2-27.4,0c-3,0-4.2-0.6-4.2-3.9c0.1-41.5,0.1-83,0-124.4c0-3.3,0.9-4.3,4.2-4.3c19.9,0.1,39.9-0.1,59.8,0.1
						c22.6,0.2,39.5,20.2,35.6,42.4c-2.1,12-10.1,19.8-20.4,25.5C116.3,256,112.7,257.3,109,259z M104.7,223.3
						c0-2.5,0.3-5.1-0.1-7.5c-0.7-4.6-1.2-9.3-2.9-13.5c-3.5-8.5-7.8-13.3-21.3-12.6c-3.1,0.2-4.1,1.1-4.1,4.1
						c0.1,13.9,0,27.8,0,41.7c0,5.6-0.1,11.3,0.1,16.9c0,1.2,0.9,3.1,1.8,3.4c8.9,2.7,17.7-1,22.1-9.2
						C104.3,239.3,104.9,231.4,104.7,223.3z"/>
				</g>
				<g>
					<path class="st0" d="M418.9,318.4c0-1.7,0-3.1,0-4.4c0-40.9,0-81.9,0-122.8c0-5,0-5,4.9-5c19.5,0,39.1,0,58.6,0
						c7.8,0,14,3.4,19,9.1c8.9,9.9,13.1,22,15.5,34.8c2.1,10.9,2.7,21.9,1.5,32.9c-1.9,16.1-7.2,30.9-18,43.3
						c-7.2,8.2-15.8,12.8-27.2,12.5c-16.5-0.5-33.1-0.1-49.6-0.1C422.2,318.7,420.7,318.5,418.9,318.4z M454.8,252.4
						c0,3.9,0,7.8,0,11.7c0,15.7,0,31.3,0.1,47c0,1.3,0.6,3.3,1.5,3.7c5.2,2.3,13.7-0.1,16.6-5.2c2.6-4.6,4.8-9.7,6.2-14.8
						c3.8-14.3,4.2-28.9,4.2-43.6c-0.1-15.4-0.8-30.8-5.4-45.7c-3.8-12.2-8-15.6-18.6-15.7c-3.8-0.1-4.6,1.4-4.5,4.8
						C454.9,213.8,454.8,233.1,454.8,252.4z"/>
				</g>
				<g>
					<path class="st0" d="M160.5,252.4c0-14.1,3.9-26.9,13.5-37.5c18.4-20.3,50-18.9,66.9,2.6c15.3,19.5,15.2,50.4-0.1,69.8
						c-19.7,24.9-57.9,21.6-73.1-6.3C162.7,271.9,160.5,263.2,160.5,252.4z M235,280.5c-0.2-1.8-0.4-4.1-0.8-6.4
						c-2.2-11.1-7-21.2-13.4-30.5c-7.2-10.5-15.8-19.7-27.2-25.7c-3.3-1.8-7.1-2.9-10.9-3.5c-3.8-0.6-6.7,1.2-7.4,5
						c-0.8,4.2-1.3,8.7-0.5,12.8c4.6,21.9,16.3,39.5,33.9,53.2c4.5,3.5,9.5,6.3,15.2,7.6c5.7,1.3,9.9-1.6,10.6-7.4
						C234.9,284.1,234.9,282.5,235,280.5z"/>
				</g>
				<g>
					<path class="st0" d="M305.4,222.5c-3.3,7.2-6.4,13.4-9,19.8c-3,7.1-6,14.3-8.1,21.7c-2.5,8.4,1.5,14.9,10.1,16.5
						c7,1.3,14.1,1.8,21.2,2.3c2.7,0.2,4.3,1,5.5,3.4c4.8,9.5,9.9,18.8,14.8,28.3c0.6,1.1,1,2.2,1.7,3.8c-1.6,0.1-2.8,0.3-4,0.3
						c-14.9,0-29.8,0.1-44.7,0c-3.5,0-7-0.5-10.4-1.2c-7.8-1.6-12-6.9-12.2-14.8c-0.1-8.4,2.5-16.1,5.8-23.5
						c13.3-30.2,26.9-60.3,40.5-90.4c0.5-1.2,2.3-2.2,3.6-2.5c5.9-1.1,9.4,0.9,12.4,6.9c18.5,36.9,37.5,73.5,56.6,110.1
						c2.6,5,1.9,9.9,2,15.5c-2.9,0-5.5,0-8,0c-7.9,0-15.8-0.2-23.7,0.1c-3.1,0.1-4.7-1.1-6-3.8c-14.9-29.2-29.9-58.3-44.9-87.4
						C307.8,226.1,306.8,224.7,305.4,222.5z"/>
				</g>
			</g>
			<g>
				<path class="st0" d="M40.6,288.7c0,0,2.3,30.1-16.3,30.1l45.1,0l0-41.4L40.6,288.7z"/>
			</g>
			<g>
				<path class="st0" d="M40.6,216.1c0,0,2.3-30.1-16.3-30.1l45.1,0l0,41.4L40.6,216.1z"/>
			</g>
			<g>
				<path class="st0" d="M418.9,210.6c0,0-1.6-24.5-16.3-24.5l28.7,0"/>
			</g>
		</g>
		<g>
			<path class="st1" d="M23.2,359.3c1.8-0.1,3.6-0.3,5.3-0.3c7.4,0,14.8,0.1,22.2,0c20.8-0.4,36.9-16.2,37.7-37
				c0.3-8,0.1-15.9,0.2-23.9c0-1.5,0.5-3.1,0.8-4.6c0.6,0,1.1,0.1,1.7,0.1c0.2,1.3,0.6,2.6,0.6,3.8c0.1,7.4-0.1,14.8,0.1,22.2
				c0.5,23.2,16.9,39.3,40,39.4c6.9,0,13.7,0,20.6,0c1.6,0,3.3,0.3,4.9,0.5c0,0.6,0,1.1,0.1,1.7c-1.4,0.2-2.8,0.7-4.3,0.7
				c-7.2,0.1-14.5,0-21.7,0.1c-22.8,0.2-39.1,16.2-39.6,39.2c-0.2,8.7,0,17.3,0,26c-0.6,0.1-1.3,0.3-1.9,0.4c-0.4-1.5-1.2-3-1.3-4.6
				c-0.1-7,0-14.1-0.1-21.1c-0.2-23.7-16.3-39.7-39.9-39.8c-6.9,0-13.7,0-20.6-0.1c-1.6,0-3.3-0.4-4.9-0.6
				C23.1,360.7,23.1,360,23.2,359.3z"/>
		</g>
		<g>
			<g>
				<path class="st1" d="M237,77.8c0.4-1.9,0.4-4.5,0.1-6.7l-2.4-17.9l-13.2,24.6h-2.5L205.4,52l-2.6,19.5c-0.3,2.2-0.4,5.1-0.1,6.3
					l-4.7,0c0.9-2,1.1-2.8,1.6-6l4.3-32.1l2.2,0l15.7,30l15.7-30l1.6,0l4.4,32c0.4,3.2,0.8,4.1,1.6,6.1L237,77.8z"/>
			</g>
			<g>
				<path class="st1" d="M195.9,74l-0.6,3.8l-27.2,0c1.1-2.6,1.1-4.1,1.1-6l0-26.1c0-1.8,0.1-3.4-1.1-6l8.2,0l18.4,0l0,3.9
					c-0.5-0.2-0.9-0.4-1.3-0.5c-1-0.4-2.2-0.7-3.5-0.7l-14.6,0l0,14.9l17.1,0l-0.8,2.9l-16.3,0l0,14.9l15.4,0c2.6,0,5.2-1.4,5.2-1.4
					L195.9,74L195.9,74z"/>
			</g>
			<g>
				<path class="st1" d="M341.7,60l1.6-0.2c5.4-0.8,9.9-3.9,9.9-9.7c0-11-13.2-10.4-18.8-10.4l-8.2,0c1.1,2.5,1.1,4.2,1.1,6l0,26.1
					c0,1.9,0.1,3.4-1.1,6l8.3,0c-1.1-2.6-1.1-4.1-1.1-6l0-11.7c0.8,0,2,0.3,3.8,2.4c6.1,7.3,11,11.9,14.8,15.4l7.7,0
					C359.1,77.1,341.7,60,341.7,60 M333.6,58.1V41.9c12-0.5,13.2,5.5,13.3,8.2c0.1,2.8-1.1,6.2-4.6,7.5l0,0l-0.2,0.1
					C340.3,58.5,333.6,58.1,333.6,58.1"/>
			</g>
			<g>
				<path class="st1" d="M320.2,71.5l-14.4-31.9h-1.7l-14.7,32.8c-1.1,2.4-1.6,3.3-3.2,5.3h0l4.4,0h0.5l6.2-14l12.7,0l6.3,14l8.4,0
					C322.5,75.6,321.7,74.7,320.2,71.5 M298.6,61.2l5.1-11.4l5.2,11.4L298.6,61.2z"/>
			</g>
			<g>
				<path class="st1" d="M280.6,71.5l-14.4-31.9l-1.7,0l-14.7,32.8c-1.1,2.4-1.6,3.3-3.2,5.3h0l4.4,0h0.5l6.2-14l12.7,0l6.3,14
					l8.4,0C282.9,75.6,282.2,74.7,280.6,71.5 M259,61.2l5.1-11.4l5.2,11.4L259,61.2z"/>
			</g>
		</g>
		<g>
			<rect x="155.6" y="20.6" class="st1" width="216.8" height="0.8"/>
		</g>
		<g>
			<rect x="155.6" y="92.9" class="st1" width="216.8" height="0.8"/>
		</g>
		<g>
			<g>
				<g>
					<path class="st0" d="M197.8,427.3c-0.1-1.4-0.3-2.5-0.3-3.6c0-11.4,0.2-69.1-0.1-80.6c-0.1-4.5,2.5-3.8,5.3-3.9
						c2.9-0.1,5.2,0,4.8,4c-0.3,3.1-0.3,6.2,0.1,9.3c0.1,1,1.6,2.6,2.5,2.6c15.4,0.2,30.8,0.1,46.3,0.1c2.2,0,2.8-1,2.7-3
						c-0.1-3.4,0.1-6.7-0.1-10.1c-0.1-2.3,0.8-3.1,3-3c2.1,0.1,4.2,0,6.5,0c0,14,0,55.7,0,69.6c-3,0-6.1,0-9.5,0
						c0-4.2-0.1-36.3,0-40.4c0.1-2.3-0.5-3.4-3-3.4c-15.2,0.1-30.3,0.1-45.5,0c-2.5,0-3.2,1-3.1,3.3c0.1,3.2-0.1,52.7,0.1,55.9
						c0.1,2.3-0.8,3.1-3,3C202.3,427.2,200.2,427.3,197.8,427.3z"/>
				</g>
			</g>
			<g>
				<path class="st0" d="M303.3,460.4c-12.6-0.5-22.9-5.1-30.4-13.4c-15-16.5-13.7-42.2-13.6-43.3l9.4,0.5L264,404l4.7,0.3
					c0,0.2-1.1,22.9,11.3,36.5c5.8,6.4,13.8,9.9,23.8,10.3L303.3,460.4z"/>
			</g>
		</g>
		<g>
			<path class="st0" d="M152.7,427.3c-1.8,0-3.8-0.1-5.8-0.3c-11-1-16.3-7.3-18.7-12.3c-2.5-5.1-2.6-10-2.6-10.5l4.7,0l4.7,0
				c0,0,0.1,3.5,1.8,7c2.1,4.2,5.7,6.5,11,7c8.8,0.8,15-0.4,18.2-3.6c2.6-2.6,3.6-6.8,2.9-12.5c-1.6-13-9.9-20-27-30
				c-3.2-1.9-13.6-8.7-13.9-18.4c-0.1-3.6,1.2-6.7,3.7-9c6-5.7,17.4-5.7,27.7-5.2c0.7,0,1.3,0.1,1.8,0.1
				c17.7,0.7,20.3,9.9,20.3,15.4h-9.4c0-1.9,0-5.9-11.3-6.4c-0.6,0-1.2-0.1-1.9-0.1c-5.1-0.2-17-0.8-20.6,2.6
				c-0.4,0.4-0.9,1-0.9,2.3c0.1,3.8,5,8.3,9.4,10.9c18.9,11,29.5,20.1,31.4,36.7c1,8.6-0.8,15.3-5.6,19.9
				C168.3,425.1,161.6,427.3,152.7,427.3z"/>
		</g>
		<polygon class="st0" points="480.6,339.2 447.5,411.7 417.1,339.2 406.9,339.2 413.6,354.8 391.8,411.1 360.4,339.2 350.1,339.2 
			388.8,427.3 395.5,427.3 418.9,367 444,427.3 450.6,427.3 491,339.2 		"/>
		<g>
			<path class="st0" d="M317.6,427.4c-10.1,0-19.7-3.9-26.8-11.1c-7.2-7.2-11.1-16.7-11.1-26.8v-12.4c0-20.9,17-38,38-38
				c20.9,0,37.9,17,38,38l0,12.4C355.5,410.4,338.5,427.4,317.6,427.4z M317.6,348.6c-15.7,0-28.6,12.8-28.6,28.6l0,12.4
				c0,7.6,3,14.8,8.4,20.2c5.4,5.4,12.6,8.4,20.2,8.4c15.7,0,28.6-12.8,28.6-28.6l0-12.4C346.1,361.4,333.3,348.6,317.6,348.6z"/>
		</g>
		<g>
			<path class="st0" d="M324.3,441.4c8.6,0,14.9,5.1,14.9,14.1c0,8.1-5.8,14.1-14.8,14.1h-8.1c-0.1,0-0.2-0.1-0.2-0.2l0-27.8
				c0-0.1,0.1-0.2,0.2-0.2L324.3,441.4z M320,468c0,0.1,0.1,0.2,0.2,0.2h5.2c5.4,0,9.6-4.1,9.8-10.6c0.2-7.3-3.4-14.7-11.1-14.7
				h-3.9c-0.1,0-0.2,0.1-0.2,0.2L320,468z"/>
			<path class="st0" d="M355.2,449c0.1,0,0.2,0,0.2,0.2l0,11.9c0,3.1,0.4,4.6,1.5,5.7c0.6,0.7,1.5,1,2.8,1c2.1,0,4.8-1.2,6.6-3
				c0,0,0-0.1,0-0.1l0-15.5c0-0.1,0-0.2,0.2-0.2h3.5c0.1,0,0.2,0,0.2,0.2l0,20.2c0,0.1-0.1,0.2-0.2,0.2h-3.5c-0.1,0-0.2-0.1-0.2-0.2
				v-2.5c0-0.2-0.2-0.3-0.3-0.2c-2.3,1.7-5.4,2.9-8.2,2.9c-5,0-6.3-1.9-6.3-8.1v-12.3c0-0.1,0.1-0.2,0.2-0.2H355.2z"/>
			<path class="st0" d="M387.3,439.3c0.1,0,0.2,0,0.2,0.2l0,11.1c0,0.2,0.2,0.2,0.3,0.1c1.5-1.2,3.8-1.7,5.7-1.7
				c6,0,10.4,4.4,10.4,10.5c0,6.3-4.8,10.4-11,10.4c-3.2,0-6.6-0.9-9.2-2.3c0,0-0.1-0.1-0.1-0.2l0-28c0-0.1,0.1-0.2,0.2-0.2H387.3z
				 M393.6,468.6c4.4,0,6.4-3.5,6.4-7.9c0-4.8-2.6-10.2-7.7-10.2c-1.9,0-3.5,0.7-4.7,2.1c0,0,0,0.1,0,0.1v13.4c0,0,0,0.1,0,0.1
				C389,467.6,391.3,468.6,393.6,468.6z"/>
			<path class="st0" d="M429.3,455.7c-0.1-2.5-0.8-5.2-3.5-5.7c-2.9-0.6-6.3,1.3-7.9,3.8c-0.1,0.2-0.4,0.1-0.4-0.1v-1.9
				c0,0,0-0.1,0.1-0.2c2-1.7,4.4-2.7,7-3.1c1.8-0.3,4.2,0,5.8,0.9c2.7,1.4,2.8,5.2,2.8,7.8v12.1c0,0.1-0.1,0.2-0.2,0.2l-3.3,0
				c-0.1,0-0.2-0.1-0.2-0.2v-3.1l-0.1,0c-2.3,2.1-5.1,3.3-8.2,3.3c-3.6,0-6.2-1.9-6.2-5.1c0-6.1,10-5.7,14.2-8.8
				C429.2,455.8,429.3,455.7,429.3,455.7z M422.9,468.2c2.3,0,4.6-1,6.4-3.4c0,0,0-0.1,0-0.1v-7.3c0-0.2-0.2-0.3-0.3-0.2
				c-4,2.4-9.9,2.5-9.9,7.3C419.2,467,420.6,468.2,422.9,468.2z"/>
			<path class="st0" d="M451.2,441.9c0.2,1.5-1.1,2.8-2.5,2.5c-1-0.2-1.8-1-1.9-2c-0.2-1.4,1-2.7,2.5-2.5
				C450.3,440,451.1,440.8,451.2,441.9z M447.2,449l3.5,0c0.1,0,0.2,0.1,0.2,0.2l0,20.2c0,0.1-0.1,0.2-0.2,0.2l-3.5,0
				c-0.1,0-0.2,0-0.2-0.2c0-3.7,0-14.9,0-20.2C447,449.1,447.1,449,447.2,449z"/>
		</g>
	</g>
	<g>
		<g>
			<g>
				<path class="st0" d="M327.5,609.9c0.1-0.7,0.1-1.6,0-2.4l-0.9-6.4l-4.7,8.8H321l-4.8-9.2l-0.9,6.9c-0.1,0.8-0.1,1.8,0,2.2h-1.7
					c0.3-0.7,0.4-1,0.6-2.1l1.5-11.4h0.8L322,607l5.6-10.7h0.6l1.6,11.4c0.2,1.1,0.3,1.5,0.6,2.2H327.5z"/>
			</g>
			<g>
				<path class="st0" d="M312.9,608.5l-0.2,1.4H303c0.4-0.9,0.4-1.5,0.4-2.1v-9.3c0-0.7,0-1.2-0.4-2.1h2.9h6.6l0,1.4
					c-0.2-0.1-0.3-0.1-0.5-0.2c-0.3-0.1-0.8-0.3-1.3-0.3h-5.2v5.3h6.1l-0.3,1h-5.8v5.3h5.5c0.9,0,1.8-0.5,1.8-0.5L312.9,608.5
					L312.9,608.5z"/>
			</g>
			<g>
				<path class="st0" d="M364.8,603.5l0.6-0.1c1.9-0.3,3.5-1.4,3.5-3.5c0-3.9-4.7-3.7-6.7-3.7h-2.9c0.4,0.9,0.4,1.5,0.4,2.1v9.3
					c0,0.7,0,1.2-0.4,2.1h3c-0.4-0.9-0.4-1.5-0.4-2.1v-4.2c0.3,0,0.7,0.1,1.3,0.8c2.2,2.6,3.9,4.2,5.3,5.5h2.7
					C371,609.6,364.8,603.5,364.8,603.5 M361.9,602.9v-5.8c4.3-0.2,4.7,1.9,4.7,2.9c0,1-0.4,2.2-1.6,2.7l0,0l-0.1,0
					C364.3,603,361.9,602.9,361.9,602.9"/>
			</g>
			<g>
				<path class="st0" d="M357.1,607.7l-5.1-11.4h-0.6l-5.2,11.7c-0.4,0.9-0.6,1.2-1.1,1.9h0h1.6h0.2l2.2-5h4.5l2.2,5h3
					C358,609.1,357.7,608.8,357.1,607.7 M349.4,604l1.8-4.1l1.8,4.1H349.4z"/>
			</g>
			<g>
				<path class="st0" d="M343,607.7l-5.1-11.4h-0.6l-5.2,11.7c-0.4,0.9-0.6,1.2-1.1,1.9h0h1.6h0.2l2.2-5h4.5l2.2,5h3
					C343.9,609.1,343.6,608.8,343,607.7 M335.4,604l1.8-4.1l1.8,4.1H335.4z"/>
			</g>
		</g>
		<g>
			<path class="st0" d="M219.8,604.4c0.5,0.6,0.7,1.3,0.7,2.1c0,0.7-0.2,1.3-0.5,1.8c-0.3,0.5-0.8,0.9-1.5,1.2
				c-0.6,0.3-1.4,0.4-2.3,0.4h-5.6v-13.1h5.4c0.9,0,1.6,0.1,2.3,0.4c0.6,0.3,1.1,0.7,1.5,1.2c0.3,0.5,0.5,1.1,0.5,1.7
				c0,0.8-0.2,1.4-0.6,1.9c-0.4,0.5-0.9,0.9-1.6,1.1C218.7,603.4,219.3,603.8,219.8,604.4z M213.2,602.3h2.4c0.6,0,1.1-0.1,1.4-0.4
				c0.3-0.3,0.5-0.7,0.5-1.2c0-0.5-0.2-0.9-0.5-1.2c-0.3-0.3-0.8-0.4-1.4-0.4h-2.4V602.3z M217.3,607.4c0.4-0.3,0.5-0.7,0.5-1.3
				c0-0.6-0.2-1-0.6-1.3c-0.4-0.3-0.9-0.5-1.5-0.5h-2.6v3.5h2.6C216.5,607.8,216.9,607.7,217.3,607.4z"/>
			<path class="st0" d="M231.6,609.9l-2.9-5.1h-1.2v5.1h-2.6v-13.1h4.9c1,0,1.9,0.2,2.6,0.5c0.7,0.4,1.2,0.8,1.6,1.4
				c0.4,0.6,0.5,1.3,0.5,2c0,0.9-0.2,1.6-0.7,2.3c-0.5,0.7-1.2,1.2-2.2,1.4l3.1,5.3H231.6z M227.5,602.9h2.2c0.7,0,1.2-0.2,1.6-0.5
				c0.3-0.3,0.5-0.8,0.5-1.4c0-0.6-0.2-1.1-0.5-1.4c-0.3-0.3-0.9-0.5-1.6-0.5h-2.2V602.9z"/>
			<path class="st0" d="M241.8,609.2c-1-0.6-1.8-1.4-2.4-2.4c-0.6-1-0.9-2.2-0.9-3.5c0-1.3,0.3-2.4,0.9-3.4c0.6-1,1.4-1.8,2.4-2.4
				c1-0.6,2.1-0.9,3.4-0.9c1.2,0,2.4,0.3,3.4,0.9c1,0.6,1.8,1.4,2.4,2.4c0.6,1,0.9,2.2,0.9,3.4c0,1.3-0.3,2.4-0.9,3.5
				c-0.6,1-1.4,1.8-2.4,2.4c-1,0.6-2.1,0.9-3.4,0.9C243.9,610.1,242.8,609.8,241.8,609.2z M247.2,607.2c0.6-0.4,1.1-0.9,1.4-1.5
				c0.3-0.7,0.5-1.4,0.5-2.3s-0.2-1.6-0.5-2.3c-0.3-0.7-0.8-1.2-1.4-1.5c-0.6-0.3-1.3-0.5-2.1-0.5s-1.5,0.2-2.1,0.5
				c-0.6,0.3-1.1,0.9-1.4,1.5c-0.3,0.7-0.5,1.4-0.5,2.3s0.2,1.6,0.5,2.3c0.3,0.7,0.8,1.2,1.4,1.5c0.6,0.4,1.3,0.5,2.1,0.5
				S246.6,607.6,247.2,607.2z"/>
			<path class="st0" d="M263.4,609.9l-4.8-5.8v5.8H256v-13.1h2.6v5.9l4.8-5.9h3.2l-5.4,6.5l5.5,6.6H263.4z"/>
			<path class="st0" d="M273.3,599v3.3h4.4v2.1h-4.4v3.5h5v2.1h-7.6v-13.1h7.6v2.1H273.3z"/>
			<path class="st0" d="M289.6,609.9l-2.9-5.1h-1.2v5.1h-2.6v-13.1h4.9c1,0,1.9,0.2,2.6,0.5c0.7,0.4,1.2,0.8,1.6,1.4
				c0.4,0.6,0.5,1.3,0.5,2c0,0.9-0.2,1.6-0.7,2.3s-1.2,1.2-2.2,1.4l3.1,5.3H289.6z M285.5,602.9h2.2c0.7,0,1.2-0.2,1.6-0.5
				c0.3-0.3,0.5-0.8,0.5-1.4c0-0.6-0.2-1.1-0.5-1.4c-0.3-0.3-0.9-0.5-1.6-0.5h-2.2V602.9z"/>
			<path class="st0" d="M192.5,601.5l-0.6,2.9h2.4v2.3h-2.9l-0.7,3.2h-2.5l0.7-3.2h-3.4l-0.7,3.2h-2.5l0.7-3.2h-2.8v-2.3h3.3
				l0.6-2.9h-2.8v-2.3h3.3l0.7-3.1h2.5l-0.7,3.1h3.4l0.7-3.1h2.5l-0.7,3.1h2.4v2.3H192.5z M190,601.5h-3.4l-0.6,2.9h3.4L190,601.5z"
				/>
			<path class="st0" d="M199.2,598.7v-2.4h4.5v13.6H201v-11.2H199.2z"/>
		</g>
		<g>
			<path class="st0" d="M232.6,577.9c-0.2,0.4-0.6,0.8-1.1,1.1c-0.5,0.3-1.2,0.4-1.9,0.4H228v3.6h-1.9v-9.4h3.5
				c0.7,0,1.4,0.1,1.9,0.4c0.5,0.3,0.9,0.6,1.2,1c0.3,0.4,0.4,0.9,0.4,1.5C232.9,577,232.8,577.4,232.6,577.9z M230.6,577.5
				c0.3-0.2,0.4-0.6,0.4-1c0-0.9-0.5-1.4-1.5-1.4H228v2.7h1.5C230,577.8,230.4,577.7,230.6,577.5z"/>
			<path class="st0" d="M243.2,583l-2.1-3.7h-0.9v3.7h-1.9v-9.4h3.5c0.7,0,1.4,0.1,1.9,0.4c0.5,0.3,0.9,0.6,1.2,1
				c0.3,0.4,0.4,0.9,0.4,1.5c0,0.6-0.2,1.2-0.5,1.7c-0.4,0.5-0.9,0.8-1.6,1l2.3,3.8H243.2z M240.2,577.9h1.6c0.5,0,0.9-0.1,1.1-0.4
				c0.3-0.2,0.4-0.6,0.4-1c0-0.4-0.1-0.8-0.4-1c-0.3-0.2-0.6-0.4-1.1-0.4h-1.6V577.9z"/>
			<path class="st0" d="M253,582.4c-0.7-0.4-1.3-1-1.8-1.7c-0.4-0.7-0.6-1.6-0.6-2.5c0-0.9,0.2-1.7,0.6-2.5c0.4-0.7,1-1.3,1.8-1.7
				c0.7-0.4,1.6-0.6,2.4-0.6c0.9,0,1.7,0.2,2.4,0.6c0.7,0.4,1.3,1,1.7,1.7c0.4,0.7,0.6,1.6,0.6,2.5c0,0.9-0.2,1.8-0.6,2.5
				c-0.4,0.7-1,1.3-1.8,1.7c-0.7,0.4-1.6,0.6-2.4,0.6S253.7,582.9,253,582.4z M256.9,581c0.4-0.3,0.8-0.6,1-1.1
				c0.2-0.5,0.4-1,0.4-1.7c0-0.6-0.1-1.2-0.4-1.7c-0.2-0.5-0.6-0.8-1-1.1c-0.4-0.3-0.9-0.4-1.5-0.4c-0.6,0-1.1,0.1-1.5,0.4
				c-0.4,0.3-0.8,0.6-1,1.1c-0.2,0.5-0.4,1-0.4,1.7c0,0.6,0.1,1.2,0.4,1.7c0.2,0.5,0.6,0.8,1,1.1s0.9,0.4,1.5,0.4
				C256,581.4,256.5,581.2,256.9,581z"/>
			<path class="st0" d="M272.3,577.9c-0.2,0.4-0.6,0.8-1.1,1.1c-0.5,0.3-1.2,0.4-1.9,0.4h-1.6v3.6h-1.9v-9.4h3.5
				c0.7,0,1.4,0.1,1.9,0.4c0.5,0.3,0.9,0.6,1.2,1c0.3,0.4,0.4,0.9,0.4,1.5C272.6,577,272.5,577.4,272.3,577.9z M270.3,577.5
				c0.3-0.2,0.4-0.6,0.4-1c0-0.9-0.5-1.4-1.5-1.4h-1.5v2.7h1.5C269.6,577.8,270,577.7,270.3,577.5z"/>
			<path class="st0" d="M279.9,575.1v2.4h3.2v1.5h-3.2v2.5h3.6v1.5H278v-9.4h5.5v1.5H279.9z"/>
			<path class="st0" d="M294.1,583l-2.1-3.7h-0.9v3.7h-1.9v-9.4h3.5c0.7,0,1.4,0.1,1.9,0.4s0.9,0.6,1.2,1c0.3,0.4,0.4,0.9,0.4,1.5
				c0,0.6-0.2,1.2-0.5,1.7c-0.4,0.5-0.9,0.8-1.6,1l2.3,3.8H294.1z M291.1,577.9h1.6c0.5,0,0.9-0.1,1.1-0.4c0.3-0.2,0.4-0.6,0.4-1
				c0-0.4-0.1-0.8-0.4-1c-0.3-0.2-0.6-0.4-1.1-0.4h-1.6V577.9z"/>
			<path class="st0" d="M308.4,573.5v1.5h-2.5v7.9H304v-7.9h-2.5v-1.5H308.4z"/>
			<path class="st0" d="M321.3,573.5l-3.2,6.2v3.3h-1.9v-3.3l-3.2-6.2h2.1l2,4.3l2-4.3H321.3z"/>
		</g>
		<g>
			<path class="st0" d="M174.7,533.8c0,2,1.1,3.5,3.2,4.5c0.4,0.2,1.4,0.6,2.8,1.2c1.4,0.6,2.5,1.1,3.3,1.5c3.7,1.8,5.6,4.7,5.6,8.7
				c0,2.8-0.9,5.1-2.8,6.9c-1.8,1.8-4.3,2.7-7.3,2.7c-3.5,0-6.1-1-7.7-2.9c-1.6-1.9-2.4-4.4-2.3-7.4h4.5c0,1.9,0.4,3.4,1.3,4.6
				c0.9,1.2,2.3,1.7,4.2,1.7c1.6,0,2.8-0.4,3.8-1.3c1-0.9,1.5-2.2,1.5-3.8c0-2.3-1.2-4-3.5-5.1c-0.7-0.4-1.8-0.9-3.2-1.4
				c-1.4-0.6-2.5-1.1-3.3-1.5c-3.1-1.7-4.6-4.4-4.6-8.1c0-2.4,0.8-4.5,2.5-6.1c1.7-1.6,3.9-2.4,6.7-2.4c3.2,0,5.5,0.9,7,2.6
				c1.5,1.7,2.2,3.9,2.1,6.6h-4.2c-0.1-1.6-0.5-2.8-1.3-3.8c-0.8-1-2-1.4-3.6-1.4c-1.5,0-2.6,0.4-3.4,1.2
				C175.1,531.5,174.7,532.5,174.7,533.8z"/>
			<path class="st0" d="M216.6,551.8l2.7,3.2c-2.9,2.9-6.5,4.3-10.7,4.3c-5,0-9-1.6-12.1-4.8c-3.1-3.2-4.7-7.2-4.7-12.1
				c0-4.9,1.6-8.9,4.7-12.1c3.1-3.2,7.1-4.8,12-4.8c4.3,0,7.8,1.3,10.5,3.8l-2.7,3.4c-2.2-1.9-4.8-2.9-7.8-2.9
				c-3.6,0-6.5,1.2-8.6,3.5c-2.2,2.4-3.2,5.4-3.2,9.1c0,3.7,1.1,6.7,3.4,9.1c2.2,2.4,5.1,3.6,8.6,3.6
				C211.6,555,214.2,553.9,216.6,551.8z"/>
			<path class="st0" d="M219.5,542.4c0-4.9,1.6-8.9,4.7-12.1c3.1-3.2,7.1-4.8,11.9-4.8c4.9,0,8.9,1.6,12.1,4.8
				c3.1,3.2,4.7,7.2,4.7,12.1c0,4.9-1.6,8.9-4.7,12.1c-3.1,3.2-7.1,4.8-12,4.8c-4.9,0-8.9-1.6-12-4.8
				C221,551.3,219.5,547.3,219.5,542.4z M227.6,533.3c-2.2,2.4-3.3,5.4-3.3,9.1c0,3.7,1.1,6.7,3.3,9.1c2.2,2.4,5,3.5,8.5,3.5
				c3.5,0,6.4-1.2,8.6-3.5c2.2-2.4,3.3-5.4,3.3-9.1c0-3.7-1.1-6.7-3.3-9.1c-2.2-2.4-5.1-3.6-8.6-3.6
				C232.6,529.7,229.8,530.9,227.6,533.3z"/>
			<path class="st0" d="M274.6,534.9c0,2-0.4,3.7-1.3,5.1c-0.9,1.4-2.1,2.4-3.7,3.1l8.2,15.6h-4.9l-7.7-14.7h-3.9v14.7h-4.6v-32.6
				h8.4c3.1,0,5.4,0.8,7.1,2.3C273.8,529.8,274.6,532,274.6,534.9z M264.8,530.1h-3.6v9.9h3.6c1.6,0,2.8-0.4,3.7-1.3
				s1.3-2.1,1.3-3.7c0-1.5-0.4-2.7-1.3-3.6C267.7,530.5,266.5,530.1,264.8,530.1z"/>
			<path class="st0" d="M297.9,534.9c0,2.8-0.9,5.1-2.6,6.7c-1.8,1.6-4.1,2.4-6.9,2.4h-3.8v14.6H280v-32.6h8.4
				c3.1,0,5.4,0.8,7.1,2.3C297.1,529.8,297.9,532,297.9,534.9z M288.1,530.1h-3.6v9.9h3.6c1.6,0,2.8-0.4,3.7-1.3s1.3-2.1,1.3-3.7
				c0-1.5-0.4-2.7-1.3-3.6C291,530.5,289.8,530.1,288.1,530.1z"/>
			<path class="st0" d="M306,526.1v32.6h-4.6v-32.6H306z"/>
			<path class="st0" d="M309.8,542.4c0-4.9,1.6-8.9,4.7-12.1s7.1-4.8,11.9-4.8c4.9,0,8.9,1.6,12.1,4.8c3.1,3.2,4.7,7.2,4.7,12.1
				c0,4.9-1.6,8.9-4.7,12.1c-3.1,3.2-7.1,4.8-12,4.8c-4.9,0-8.9-1.6-12-4.8C311.4,551.3,309.8,547.3,309.8,542.4z M317.9,533.3
				c-2.2,2.4-3.3,5.4-3.3,9.1c0,3.7,1.1,6.7,3.3,9.1c2.2,2.4,5,3.5,8.5,3.5c3.5,0,6.4-1.2,8.6-3.5c2.2-2.4,3.3-5.4,3.3-9.1
				c0-3.7-1.1-6.7-3.3-9.1c-2.2-2.4-5.1-3.6-8.6-3.6C323,529.7,320.1,530.9,317.9,533.3z"/>
			<path class="st0" d="M368.2,558.7l-16.7-24.7v24.7H347v-32.6h4.8l16.6,25v-25h4.5v32.6H368.2z"/>
		</g>
		<polygon class="st0" points="325.3,576.6 325.3,578.3 357.6,577.5 		"/>
		<polygon class="st0" points="220.5,578.3 220.5,576.6 188.2,577.4 		"/>
	</g>
</g>
</svg>
