<?xml version="1.0" encoding="UTF-8"?>
<svg id="Capa_1" data-name="Capa 1" xmlns="http://www.w3.org/2000/svg" viewBox="0 0 301.62 110.99">
  <defs>
    <style>
      .cls-1 {
        font-family: Platform-Regular, Platform;
        font-size: 66.73px;
      }

      .cls-1, .cls-2 {
        fill: #0d2449;
      }

      .cls-2 {
        font-family: Poppins-SemiBold, Poppins;
        font-size: 24.63px;
        letter-spacing: .12em;
      }

      .cls-3 {
        fill: #85754e;
      }

      .cls-4 {
        letter-spacing: -.03em;
      }

      .cls-5 {
        letter-spacing: 0em;
      }
    </style>
  </defs>
  <g>
    <g>
      <path class="cls-3" d="M234.29,99.46c.2-1.03,.2-2.48,.04-3.66l-1.33-9.83-7.23,13.48h-1.38l-7.36-14.09-1.43,10.66c-.15,1.23-.2,2.79-.07,3.44h-2.59c.5-1.07,.62-1.53,.86-3.28l2.34-17.58h1.19l8.58,16.4,8.58-16.4h.9l2.42,17.54c.24,1.75,.42,2.25,.9,3.32h-4.42Z"/>
      <path class="cls-3" d="M211.83,97.38l-.31,2.08h-14.92c.62-1.44,.58-2.25,.58-3.29v-14.29c0-1,.04-1.89-.58-3.29h14.56l.03,2.12c-.27-.11-.49-.21-.69-.3-.54-.2-1.22-.39-1.93-.39h-7.98v8.17h9.37l-.46,1.6h-8.91v8.18h8.45c1.43,.02,2.84-.78,2.84-.78l-.04,.18h.02Z"/>
      <path class="cls-3" d="M291.68,89.71l.87-.09c2.94-.43,5.44-2.14,5.44-5.31,0-6-7.22-5.72-10.27-5.72h-4.48c.62,1.39,.58,2.28,.58,3.28v14.3c0,1.04,.04,1.85-.58,3.29h4.56c-.58-1.44-.58-2.25-.58-3.29v-6.42c.44,.03,1.12,.17,2.07,1.3,3.36,4,6.04,6.52,8.12,8.43h4.21c-.41-.4-9.94-9.77-9.94-9.77m-4.46-.99v-8.9c6.55-.26,7.22,3,7.29,4.49,.06,1.55-.59,3.39-2.51,4.12h0s-.09,.03-.09,.03c-1.03,.45-4.69,.25-4.69,.25"/>
      <path class="cls-3" d="M279.89,96.06l-7.91-17.46h-.91l-8.03,17.96c-.61,1.34-.9,1.83-1.76,2.9h2.7l3.4-7.64h6.93l3.44,7.64h4.58c-1.21-1.17-1.61-1.7-2.45-3.41m-11.83-5.69l2.77-6.23,2.83,6.23h-5.6Z"/>
      <path class="cls-3" d="M258.22,96.06l-7.91-17.46h-.91l-8.03,17.96c-.61,1.34-.9,1.83-1.76,2.9h2.7l3.4-7.64h6.93l3.44,7.64h4.58c-1.21-1.17-1.61-1.7-2.45-3.41m-11.83-5.69l2.77-6.23,2.82,6.23h-5.6Z"/>
    </g>
    <text class="cls-2" transform="translate(3.68 96.39)"><tspan x="0" y="0">BROKER No.1</tspan></text>
  </g>
  <text class="cls-1" transform="translate(0 56.46)"><tspan class="cls-5" x="0" y="0">S</tspan><tspan class="cls-4" x="31.83" y="0">C</tspan><tspan x="71.14" y="0">ORPION</tspan></text>
</svg>