<?xml version="1.0" encoding="UTF-8"?>
<svg id="Capa_1" data-name="Capa 1" xmlns="http://www.w3.org/2000/svg" viewBox="0 0 224.99 93.63">
  <defs>
    <style>
      .cls-1 {
        fill: #85754e;
      }

      .cls-2 {
        fill: #0d2449;
      }
    </style>
  </defs>
  <g>
    <path class="cls-1" d="M174.86,93.42c.15-.74,.15-1.78,.03-2.63l-.96-7.07-5.2,9.7h-.99l-5.29-10.14-1.03,7.67c-.11,.88-.14,2-.05,2.48h-1.86c.36-.77,.45-1.1,.62-2.36l1.68-12.65h.86l6.17,11.8,6.17-11.8h.64l1.74,12.62c.17,1.26,.3,1.62,.65,2.39h-3.18Z"/>
    <path class="cls-1" d="M158.71,91.92l-.22,1.5h-10.73c.44-1.04,.42-1.62,.42-2.36v-10.28c0-.72,.03-1.36-.42-2.36h10.48l.02,1.52c-.2-.08-.35-.15-.5-.21-.39-.14-.88-.28-1.39-.28h-5.74v5.88h6.74l-.33,1.15h-6.41v5.88h6.08c1.03,.02,2.04-.56,2.04-.56l-.03,.13h.01Z"/>
    <path class="cls-1" d="M216.14,86.4l.63-.06c2.11-.31,3.91-1.54,3.91-3.82,0-4.32-5.19-4.12-7.39-4.12h-3.22c.44,1,.42,1.64,.42,2.36v10.29c0,.75,.03,1.33-.42,2.37h3.28c-.42-1.04-.42-1.62-.42-2.37v-4.62c.32,.02,.8,.12,1.49,.94,2.42,2.88,4.35,4.69,5.84,6.06h3.03c-.3-.29-7.15-7.03-7.15-7.03m-3.21-.71v-6.4c4.71-.19,5.19,2.16,5.24,3.23,.04,1.12-.42,2.44-1.81,2.97h0s-.07,.02-.07,.02c-.74,.32-3.38,.18-3.38,.18"/>
    <path class="cls-1" d="M207.66,90.97l-5.69-12.56h-.65l-5.78,12.92c-.44,.96-.65,1.32-1.26,2.09h1.94l2.44-5.5h4.99l2.48,5.5h3.29c-.87-.84-1.16-1.22-1.76-2.45m-8.51-4.09l1.99-4.48,2.03,4.48h-4.03Z"/>
    <path class="cls-1" d="M192.07,90.97l-5.69-12.56h-.65l-5.78,12.92c-.44,.96-.65,1.32-1.27,2.09h1.95l2.45-5.5h4.98l2.48,5.5h3.29c-.87-.84-1.16-1.22-1.76-2.45m-8.51-4.09l1.99-4.48,2.03,4.48h-4.03Z"/>
  </g>
  <g>
    <path class="cls-1" d="M15.84,87.3c.52,.66,.79,1.42,.79,2.28,0,.77-.19,1.45-.57,2.04-.38,.59-.93,1.05-1.65,1.38-.72,.33-1.57,.5-2.55,.5H5.64v-14.44h5.96c.98,0,1.82,.16,2.54,.48,.71,.32,1.25,.76,1.61,1.32,.37,.57,.55,1.21,.55,1.92,0,.84-.22,1.55-.67,2.11s-1.04,.97-1.79,1.2c.81,.15,1.48,.56,2.01,1.22Zm-7.3-2.3h2.65c.69,0,1.22-.16,1.59-.47s.56-.76,.56-1.33-.19-1.03-.56-1.34-.9-.48-1.59-.48h-2.65v3.62Zm4.56,5.63c.39-.33,.59-.8,.59-1.41s-.21-1.11-.62-1.46c-.41-.35-.97-.53-1.68-.53h-2.86v3.89h2.92c.7,0,1.25-.17,1.65-.5Z"/>
    <path class="cls-1" d="M28.88,93.49l-3.19-5.63h-1.37v5.63h-2.9v-14.44h5.42c1.12,0,2.07,.2,2.86,.59,.79,.39,1.38,.92,1.77,1.59,.39,.67,.59,1.42,.59,2.25,0,.95-.28,1.81-.83,2.58s-1.37,1.29-2.46,1.58l3.46,5.86h-3.35Zm-4.55-7.8h2.42c.79,0,1.37-.19,1.76-.57,.39-.38,.58-.91,.58-1.58s-.19-1.18-.58-1.54c-.39-.37-.97-.55-1.76-.55h-2.42v4.24Z"/>
    <path class="cls-1" d="M40.15,92.68c-1.13-.63-2.03-1.51-2.69-2.64-.66-1.12-.99-2.4-.99-3.82s.33-2.67,.99-3.8c.66-1.12,1.56-2,2.69-2.64s2.37-.95,3.73-.95,2.61,.32,3.74,.95c1.12,.63,2.01,1.51,2.67,2.64,.66,1.12,.98,2.39,.98,3.8s-.33,2.69-.98,3.82-1.55,2-2.68,2.64c-1.13,.63-2.37,.95-3.73,.95s-2.59-.32-3.73-.95Zm6.02-2.22c.66-.39,1.18-.96,1.55-1.69,.37-.73,.56-1.58,.56-2.55s-.19-1.81-.56-2.54c-.37-.72-.89-1.28-1.55-1.67-.66-.39-1.43-.58-2.3-.58s-1.64,.19-2.31,.58c-.67,.39-1.19,.94-1.56,1.67-.37,.72-.56,1.57-.56,2.54s.19,1.81,.56,2.55c.37,.73,.89,1.29,1.56,1.69,.67,.39,1.44,.59,2.31,.59s1.63-.2,2.3-.59Z"/>
    <path class="cls-1" d="M64.05,93.49l-5.26-6.44v6.44h-2.9v-14.44h2.9v6.48l5.26-6.48h3.5l-5.96,7.16,6.13,7.28h-3.66Z"/>
    <path class="cls-1" d="M75,81.38v3.62h4.86v2.3h-4.86v3.83h5.48v2.36h-8.38v-14.46h8.38v2.36h-5.48Z"/>
    <path class="cls-1" d="M93.05,93.49l-3.19-5.63h-1.37v5.63h-2.9v-14.44h5.42c1.12,0,2.07,.2,2.86,.59,.79,.39,1.38,.92,1.77,1.59,.39,.67,.59,1.42,.59,2.25,0,.95-.28,1.81-.83,2.58s-1.37,1.29-2.46,1.58l3.46,5.86h-3.35Zm-4.55-7.8h2.42c.79,0,1.37-.19,1.76-.57,.39-.38,.58-.91,.58-1.58s-.19-1.18-.58-1.54c-.39-.37-.97-.55-1.76-.55h-2.42v4.24Z"/>
    <path class="cls-1" d="M121.48,84.2l-.68,3.19h2.63v2.59h-3.19l-.75,3.52h-2.75l.74-3.52h-3.77l-.75,3.52h-2.73l.75-3.52h-3.12v-2.59h3.68l.68-3.19h-3.1v-2.59h3.66l.72-3.44h2.73l-.72,3.44h3.77l.72-3.44h2.75l-.72,3.44h2.65v2.59h-3.21Zm-2.75,0h-3.77l-.68,3.19h3.77l.68-3.19Z"/>
    <path class="cls-1" d="M128.91,81.07v-2.67h4.99v15.09h-2.98v-12.42h-2.01Z"/>
  </g>
  <g>
    <path class="cls-2" d="M69.9,58.01c-.26,.49-.68,.88-1.24,1.18-.56,.3-1.27,.45-2.13,.45h-1.75v4.01h-2.09v-10.44h3.84c.81,0,1.5,.14,2.06,.42,.57,.28,.99,.66,1.28,1.15s.43,1.04,.43,1.66c0,.56-.13,1.08-.4,1.57Zm-2.18-.46c.28-.26,.42-.64,.42-1.11,0-1.02-.57-1.53-1.7-1.53h-1.66v3.04h1.66c.58,0,1.01-.13,1.29-.4Z"/>
    <path class="cls-2" d="M81.65,63.64l-2.3-4.07h-.99v4.07h-2.09v-10.44h3.92c.81,0,1.5,.14,2.06,.43,.57,.28,.99,.67,1.28,1.15s.43,1.02,.43,1.62c0,.69-.2,1.31-.6,1.86-.4,.55-.99,.93-1.78,1.14l2.5,4.23h-2.42Zm-3.29-5.64h1.75c.57,0,.99-.14,1.27-.41,.28-.27,.42-.66,.42-1.14s-.14-.85-.42-1.11c-.28-.26-.7-.4-1.27-.4h-1.75v3.07Z"/>
    <path class="cls-2" d="M92.49,63.06c-.82-.46-1.47-1.09-1.94-1.91s-.72-1.73-.72-2.76,.24-1.93,.72-2.74,1.13-1.45,1.94-1.91c.82-.46,1.71-.69,2.69-.69s1.89,.23,2.7,.69c.81,.46,1.46,1.09,1.93,1.91,.47,.81,.71,1.73,.71,2.74s-.24,1.95-.71,2.76c-.47,.81-1.12,1.45-1.94,1.91-.82,.46-1.71,.69-2.69,.69s-1.87-.23-2.69-.69Zm4.35-1.61c.48-.28,.85-.69,1.12-1.22s.4-1.14,.4-1.84-.13-1.31-.4-1.83-.64-.92-1.12-1.2c-.48-.28-1.03-.42-1.66-.42s-1.18,.14-1.67,.42-.86,.68-1.13,1.2-.4,1.13-.4,1.83,.13,1.31,.4,1.84,.65,.93,1.13,1.22,1.04,.43,1.67,.43,1.18-.14,1.66-.43Z"/>
    <path class="cls-2" d="M113.77,58.01c-.26,.49-.68,.88-1.24,1.18-.56,.3-1.27,.45-2.13,.45h-1.75v4.01h-2.09v-10.44h3.84c.81,0,1.5,.14,2.06,.42,.57,.28,.99,.66,1.28,1.15s.43,1.04,.43,1.66c0,.56-.13,1.08-.4,1.57Zm-2.18-.46c.28-.26,.42-.64,.42-1.11,0-1.02-.57-1.53-1.7-1.53h-1.66v3.04h1.66c.58,0,1.01-.13,1.29-.4Z"/>
    <path class="cls-2" d="M122.23,54.9v2.62h3.51v1.66h-3.51v2.77h3.96v1.7h-6.06v-10.45h6.06v1.7h-3.96Z"/>
    <path class="cls-2" d="M137.96,63.64l-2.3-4.07h-.99v4.07h-2.09v-10.44h3.92c.81,0,1.5,.14,2.06,.43,.57,.28,.99,.67,1.28,1.15s.43,1.02,.43,1.62c0,.69-.2,1.31-.6,1.86-.4,.55-.99,.93-1.78,1.14l2.5,4.23h-2.42Zm-3.29-5.64h1.75c.57,0,.99-.14,1.27-.41,.28-.27,.42-.66,.42-1.14s-.14-.85-.42-1.11c-.28-.26-.7-.4-1.27-.4h-1.75v3.07Z"/>
    <path class="cls-2" d="M153.75,53.21v1.69h-2.78v8.75h-2.09v-8.75h-2.78v-1.69h7.66Z"/>
    <path class="cls-2" d="M168.05,53.21l-3.53,6.8v3.63h-2.09v-3.63l-3.54-6.8h2.36l2.24,4.77,2.23-4.77h2.33Z"/>
  </g>
  <g>
    <path class="cls-2" d="M5.89,9.32c0,2.19,1.16,3.85,3.49,5,.49,.24,1.5,.68,3.05,1.3,1.54,.62,2.75,1.16,3.62,1.62,4.1,1.98,6.15,5.17,6.15,9.58,0,3.12-1.02,5.67-3.05,7.63-2.03,1.96-4.71,2.94-8.05,2.94-3.92,0-6.77-1.07-8.54-3.2C.79,32.06-.07,29.32,0,25.99H4.95c0,2.08,.49,3.77,1.48,5.05,.99,1.29,2.54,1.93,4.66,1.93,1.74,0,3.15-.49,4.24-1.48,1.09-.99,1.64-2.39,1.64-4.19,0-2.5-1.29-4.37-3.85-5.62-.76-.42-1.94-.95-3.54-1.59-1.6-.64-2.81-1.19-3.65-1.64C2.54,16.56,.84,13.58,.84,9.48c0-2.71,.93-4.96,2.79-6.75C5.48,.95,7.94,.05,10.99,.05c3.54,0,6.13,.96,7.76,2.89,1.63,1.93,2.41,4.35,2.34,7.26h-4.69c-.07-1.74-.56-3.13-1.48-4.19-.92-1.06-2.23-1.59-3.93-1.59s-2.89,.45-3.78,1.35c-.89,.9-1.33,2.08-1.33,3.54Z"/>
    <path class="cls-2" d="M52.24,29.17l2.97,3.54c-3.23,3.16-7.19,4.74-11.87,4.74-5.52,0-10-1.75-13.44-5.26-3.44-3.51-5.16-7.99-5.16-13.44s1.73-9.89,5.18-13.44c3.45-3.54,7.89-5.31,13.31-5.31,4.76,0,8.63,1.39,11.61,4.17l-3.02,3.75c-2.43-2.12-5.3-3.18-8.59-3.18-3.99,0-7.18,1.3-9.56,3.91-2.38,2.6-3.57,5.97-3.57,10.1s1.24,7.4,3.72,10.03c2.48,2.62,5.67,3.93,9.56,3.93,3.26,0,6.21-1.18,8.85-3.54Z"/>
    <path class="cls-2" d="M55.42,18.75c0-5.42,1.74-9.89,5.21-13.44,3.47-3.54,7.86-5.31,13.18-5.31s9.86,1.76,13.33,5.29c3.47,3.52,5.21,8,5.21,13.41s-1.73,9.85-5.18,13.41c-3.46,3.56-7.89,5.34-13.31,5.34s-9.84-1.75-13.28-5.26c-3.44-3.51-5.16-7.99-5.16-13.44Zm8.98-10.08c-2.41,2.62-3.62,5.98-3.62,10.08s1.21,7.45,3.65,10.05c2.43,2.6,5.57,3.91,9.43,3.91s7.09-1.3,9.5-3.91c2.41-2.6,3.62-5.95,3.62-10.05s-1.22-7.46-3.65-10.08c-2.43-2.62-5.59-3.93-9.48-3.93s-7.04,1.31-9.45,3.93Z"/>
    <path class="cls-2" d="M116.4,10.52c0,2.19-.49,4.05-1.48,5.6-.99,1.55-2.37,2.68-4.14,3.41l9.06,17.24h-5.47l-8.49-16.3h-4.27v16.3h-5.1V.73h9.32c3.4,0,6.02,.83,7.84,2.5,1.82,1.67,2.73,4.1,2.73,7.29Zm-10.83-5.31h-3.96v10.94h3.96c1.77,0,3.13-.5,4.09-1.48,.95-.99,1.43-2.35,1.43-4.09s-.47-3.02-1.41-3.96-2.31-1.41-4.11-1.41Z"/>
    <path class="cls-2" d="M142.18,10.52c0,3.12-.97,5.59-2.92,7.4-1.94,1.81-4.5,2.71-7.66,2.71h-4.22v16.14h-5.1V.73h9.32c3.4,0,6.02,.83,7.84,2.5,1.82,1.67,2.73,4.1,2.73,7.29Zm-10.83-5.31h-3.96v10.94h3.96c1.77,0,3.13-.5,4.09-1.48,.95-.99,1.43-2.35,1.43-4.09s-.47-3.02-1.41-3.96-2.31-1.41-4.11-1.41Z"/>
    <path class="cls-2" d="M151.14,.73V36.77h-5.1V.73h5.1Z"/>
    <path class="cls-2" d="M155.31,18.75c0-5.42,1.74-9.89,5.21-13.44,3.47-3.54,7.86-5.31,13.18-5.31s9.86,1.76,13.33,5.29c3.47,3.52,5.21,8,5.21,13.41s-1.73,9.85-5.18,13.41c-3.46,3.56-7.89,5.34-13.31,5.34s-9.84-1.75-13.28-5.26c-3.44-3.51-5.16-7.99-5.16-13.44Zm8.98-10.08c-2.41,2.62-3.62,5.98-3.62,10.08s1.21,7.45,3.65,10.05c2.43,2.6,5.57,3.91,9.43,3.91s7.09-1.3,9.5-3.91c2.41-2.6,3.62-5.95,3.62-10.05s-1.22-7.46-3.65-10.08c-2.43-2.62-5.59-3.93-9.48-3.93s-7.04,1.31-9.45,3.93Z"/>
    <path class="cls-2" d="M219.83,36.77l-18.44-27.34v27.34h-5V.73h5.26l18.33,27.65V.73h5V36.77h-5.16Z"/>
  </g>
  <polygon class="cls-2" points="172.44 56.55 172.44 58.5 208.21 57.57 172.44 56.55"/>
  <polygon class="cls-2" points="56.56 58.5 56.56 56.55 20.79 57.48 56.56 58.5"/>
</svg>