<?xml version="1.0" encoding="UTF-8"?>
<svg id="Capa_1" data-name="Capa 1" xmlns="http://www.w3.org/2000/svg" viewBox="0 0 236.42 238.95">
  <defs>
    <style>
      .cls-1 {
        fill: #f1ede1;
      }

      .cls-2 {
        fill: #0d2449;
      }
    </style>
  </defs>
  <path class="cls-2" d="M133.45,12.01l7.69-4.45c10.04-5.81,22.82,.07,24.92,11.49h0c1.61,8.75,9.77,14.72,18.59,13.62l6.46-.81c10.02-1.25,18.87,6.56,18.87,16.66v15.03c0,6.92,4.24,13.13,10.69,15.64l4.84,1.89c10.29,4.01,13.97,16.69,7.43,25.58l-5.58,7.59c-4.25,5.78-4.36,13.62-.26,19.52l6.33,9.11c6.3,9.07,2.28,21.64-8.12,25.37l-8.31,2.98c-6.67,2.39-11.11,8.71-11.11,15.8v11.95c0,11.29-10.92,19.36-21.72,16.05l-4.87-1.5c-8.22-2.53-17.02,1.57-20.38,9.48l-2.36,5.56c-4.5,10.58-18.06,13.61-26.64,5.95l-3.33-2.98c-6.3-5.63-15.79-5.7-22.17-.17l-4.02,3.48c-8.68,7.51-22.16,4.3-26.52-6.32l-3.28-8c-2.58-6.3-8.72-10.41-15.53-10.41h-15.08c-10.38,0-18.27-9.33-16.55-19.57l1.31-7.81c1.36-8.09-3.33-15.98-11.09-18.65l-.67-.23c-11.28-3.88-15.02-17.95-7.17-26.93l3.72-4.26c5.04-5.76,5.55-14.2,1.23-20.52l-7.81-11.43c-6.59-9.65-1.55-22.92,9.79-25.75l8.07-2.02c7.92-1.98,13.27-9.37,12.67-17.51l-.63-8.64c-.75-10.2,7.73-18.7,17.94-17.97l10.53,.75c7.75,.55,14.87-4.28,17.2-11.69l1.94-6.14C84.14,.02,98.78-3.88,107.83,4.45l5.83,5.38c5.41,4.98,13.42,5.87,19.79,2.18Z"/>
  <g>
    <path class="cls-1" d="M159.46,119.53c0-1.05,0-1.74,0-2.44,0-13.87,.05-27.74-.06-41.61-.02-2.21,.66-2.71,2.74-2.66,6.26,.14,12.53,.19,18.8,.04,4.04-.1,6.87,1.67,9.02,4.85,3.96,5.85,4.97,12.48,4.87,19.34-.09,5.82-1.61,11.26-4.94,16.12-2.88,4.2-6.53,6.75-12,6.44-5.26-.3-10.56-.06-15.84-.06-.76,0-1.52,0-2.6,0Zm12.65-1.49c4.79,.67,6.2-.13,7.78-4.22,.35-.92,.67-1.86,.88-2.82,1.95-8.86,1.91-17.77,.59-26.69-.31-2.07-.92-4.13-1.64-6.1-.42-1.15-1.1-2.61-2.07-3.06-1.48-.7-3.31-.74-4.99-.79-.16,0-.53,1.96-.53,3.01-.04,12.69-.02,25.37-.02,38.06v2.6Z"/>
    <path class="cls-1" d="M75.98,110.77c-1.24-.51-2.1-.92-2.99-1.22-6.82-2.32-13.51-4.93-19.47-9.07-5.03-3.49-9.16-7.68-10.78-13.87-.89-3.39-.19-6.09,2.46-8.55,8.13-7.56,22.03-6.71,28.87,2.01,.79,1.01,1.21,2.52,1.31,3.83,.2,2.7,.06,5.42,.06,8.41-9.93-5.42-19.23-11.6-30.85-10.22-.1,.27-.21,.54-.31,.82,.84,.36,1.67,.77,2.53,1.07,7.88,2.73,15.64,5.72,22.2,11.07,4.48,3.66,7.85,8.05,8.52,14.09,.24,2.16-.43,3.86-1.89,5.36-6.06,6.22-13.29,7.54-21.36,5-4.11-1.29-7.66-3.58-10.54-6.78-.63-.71-1.11-1.8-1.16-2.74-.15-2.78-.05-5.57-.05-8.74,9.61,5.03,18.73,10.17,29.5,10.58,.83,.03,1.68-.12,2.51-.27,.37-.07,.71-.35,1.46-.75Z"/>
    <path class="cls-1" d="M52.91,154.28c.48-7.67,2.75-14.38,8.65-19.45,9.45-8.12,23.9-6.07,30.64,4.41,5.49,8.54,5.92,17.64,1.81,26.8-3.8,8.48-11.52,13.01-20.45,12.51-8.46-.47-15.88-6.23-18.67-14.83-.99-3.04-1.34-6.29-1.98-9.45Zm6.95-12.16s-.09,0-.13,.01c.14,1.04,.19,2.11,.43,3.13,2.5,10.58,8.23,19.02,17.08,25.27,1.69,1.19,3.7,2.07,5.68,2.67,3.14,.96,5.15-.45,5.41-3.7,.14-1.73,.08-3.55-.31-5.23-2.44-10.35-8.11-18.61-16.73-24.78-1.79-1.28-3.93-2.22-6.05-2.86-3.1-.94-5.07,.6-5.37,3.81-.05,.56,0,1.12,0,1.69Z"/>
    <path class="cls-1" d="M79.11,96.93c0-6.9,1.59-12.44,5.39-17.18,8.98-11.21,25.54-10.47,33.59,1.44,5.82,8.61,5.77,21.57-.12,30.16-8.9,12.97-27.86,12.06-35.48-1.71-2.34-4.22-3.47-8.74-3.38-12.71Zm35.19,12.23c-.03-.35,0-1.21-.2-2.03-2.59-11.36-8.66-20.35-18.48-26.67-1.56-1-3.44-1.65-5.26-2.05-2.49-.54-4.2,.68-4.51,3.21-.23,1.85-.17,3.81,.18,5.65,1.06,5.62,3.58,10.65,6.94,15.24,3.74,5.11,8.08,9.6,14.06,12.1,4.82,2.01,7.33,.25,7.26-5.45Z"/>
    <path class="cls-1" d="M153.54,132.4c-3.13,.2-5.44,1.4-6.76,3.79-1.35,2.44-2.38,5.08-3.26,7.73-.46,1.38-.96,2-2.44,1.86-1.31-.12-2.65-.03-4.19-.03-.06-.93-.15-1.67-.15-2.41-.02-3.31,.09-6.63-.04-9.93-.08-1.89,.44-2.52,2.44-2.51,12.96,.09,25.93,.05,38.89,.05q4.96,0,4.96,4.99c0,2.68-.06,5.36,.02,8.03,.04,1.41-.5,1.79-1.85,1.81-4.27,.07-4.19,.09-5.58-3.89-.69-1.98-1.55-3.94-2.66-5.71-1.45-2.29-3.62-3.65-6.7-3.72v44.97h-12.67v-45.03Z"/>
    <path class="cls-1" d="M111.23,130.97c.05,1.03,.12,1.85,.12,2.68,.01,8.95-.04,17.89,.03,26.84,.04,5.54,2.86,9.66,7.39,11.19,6.02,2.03,12.21-1.17,14.18-7.48,.56-1.79,.83-3.72,.91-5.59,.14-3.52-.04-7.05,.06-10.57,.13-4.58-1.99-7.65-6.06-9.46-1.47-.66-3.01-1.19-4.54-1.69-1.59-.52-2.79-4.26-1.66-5.53,.26-.3,.89-.37,1.35-.38,2.75-.03,5.5,.05,8.24-.05,1.44-.05,1.9,.85,2.08,1.9,.64,3.74,1.46,7.48,1.67,11.25,.3,5.41,.37,10.86,.05,16.26-.19,3.16-.91,6.45-2.14,9.36-1.91,4.52-5.63,7.33-10.48,8.4-5.11,1.13-10.14,.62-14.83-1.69-6.21-3.06-8.55-8.66-8.74-15.11-.28-9.57-.14-19.16-.09-28.74,0-.53,.71-1.51,1.11-1.52,3.72-.12,7.44-.07,11.36-.07Z"/>
    <path class="cls-1" d="M137.18,117.72c5.52-.1,10.93-4.11,12.82-9.92,.86-2.63,2.07-3.46,4.58-3.07,.81,.12,1.66,.02,2.81,.02v14.61h-32.74v-46.45c3.9,0,7.74-.03,11.59,.06,.32,0,.84,.84,.9,1.33,.13,1.18,.05,2.39,.05,3.59,0,12.4,0,24.81,0,37.21,0,.83,0,1.67,0,2.62Z"/>
  </g>
</svg>