<?xml version="1.0" encoding="UTF-8"?>
<svg id="Capa_1" data-name="Capa 1" xmlns="http://www.w3.org/2000/svg" viewBox="0 0 510.62 452.47">
  <defs>
    <style>
      .cls-1, .cls-2 {
        fill: #fff;
      }

      .cls-3 {
        fill: aqua;
      }

      .cls-2 {
        stroke: #fff;
        stroke-width: .5px;
      }

      .cls-2, .cls-4 {
        stroke-miterlimit: 10;
      }

      .cls-5 {
        fill: #85754e;
      }

      .cls-4 {
        fill: none;
        stroke: #85754e;
      }
    </style>
  </defs>
  <g>
    <path class="cls-2" d="M315.68,392.26c7.1,0,12.3,4.23,12.3,11.66,0,6.73-4.8,11.66-12.23,11.66h-6.7c-.1,0-.17-.07-.17-.17v-23c0-.1,.07-.17,.17-.17h6.63Zm-3.57,21.96c0,.1,.07,.17,.17,.17h4.33c4.47,0,7.96-3.37,8.06-8.8,.17-6.03-2.8-12.13-9.2-12.13h-3.2c-.1,0-.17,.07-.17,.17v20.59Z"/>
    <path class="cls-2" d="M341.2,398.6c.1,0,.13,.03,.13,.13v9.86c0,2.53,.3,3.8,1.23,4.7,.5,.57,1.27,.83,2.3,.83,1.7,0,4-.97,5.43-2.5,.03-.03,.03-.07,.03-.1v-12.8c0-.1,.03-.13,.13-.13h2.87c.1,0,.17,.03,.17,.13v16.7c0,.1-.07,.17-.17,.17h-2.87c-.1,0-.13-.07-.13-.17v-2.1c0-.13-.13-.23-.23-.13-1.9,1.43-4.5,2.4-6.76,2.4-4.1,0-5.17-1.6-5.17-6.73v-10.13c0-.1,.07-.13,.17-.13h2.87Z"/>
    <path class="cls-2" d="M367.73,390.53c.1,0,.13,.03,.13,.13v9.2c0,.13,.13,.2,.23,.1,1.23-.97,3.17-1.43,4.73-1.43,4.97,0,8.56,3.63,8.56,8.7s-3.93,8.63-9.06,8.63c-2.67,0-5.43-.77-7.56-1.93-.03-.03-.07-.1-.07-.13v-23.13c0-.1,.07-.13,.17-.13h2.87Zm5.13,24.19c3.63,0,5.3-2.93,5.3-6.56,0-4-2.13-8.4-6.4-8.4-1.6,0-2.9,.6-3.87,1.77-.03,.03-.03,.07-.03,.1v11.03s0,.07,.03,.1c1.17,1.2,3.1,1.97,4.97,1.97Z"/>
    <path class="cls-2" d="M402.38,404.06c-.1-2.03-.67-4.27-2.93-4.7-2.43-.47-5.23,1.1-6.57,3.13-.1,.13-.3,.07-.3-.1v-1.53s.03-.1,.07-.13c1.67-1.4,3.6-2.27,5.8-2.57,1.5-.23,3.43,0,4.8,.77,2.23,1.17,2.3,4.33,2.3,6.46v10.03c0,.1-.07,.17-.17,.17h-2.73c-.1,0-.13-.07-.13-.17v-2.53l-.07,.03c-1.87,1.73-4.23,2.73-6.76,2.73-2.97,0-5.1-1.53-5.1-4.2,0-5,8.23-4.7,11.73-7.26,.03-.03,.07-.1,.07-.13Zm-5.27,10.36c1.87,0,3.77-.83,5.27-2.83,.03-.03,.03-.07,.03-.1v-6.03c0-.13-.13-.23-.23-.13-3.3,1.97-8.17,2.07-8.17,6.07,0,2,1.2,3.03,3.1,3.03Z"/>
    <path class="cls-2" d="M420.51,392.66c.17,1.2-.9,2.3-2.1,2.1-.83-.13-1.5-.8-1.6-1.63-.17-1.13,.83-2.27,2.1-2.1,.83,.1,1.5,.73,1.6,1.63Zm-3.33,5.93h2.9c.1,0,.17,.07,.17,.17v16.7c0,.1-.07,.13-.17,.13h-2.87c-.1,0-.13-.03-.13-.13,0-3.03-.03-12.33-.03-16.7,0-.1,.03-.17,.13-.17Z"/>
  </g>
  <g>
    <g>
      <path class="cls-3" d="M97.57,145.15c-1.26-.57-2.25-1.35-2.97-2.36-.72-1.01-1.09-2.17-1.11-3.49h3.37c.12,1.13,.58,2.09,1.41,2.87,.82,.78,2.02,1.16,3.59,1.16s2.69-.38,3.56-1.13c.87-.75,1.3-1.72,1.3-2.9,0-.93-.26-1.68-.76-2.26-.51-.58-1.15-1.02-1.91-1.32-.76-.3-1.79-.63-3.09-.97-1.6-.42-2.88-.83-3.84-1.25-.96-.42-1.78-1.07-2.47-1.96-.68-.89-1.02-2.09-1.02-3.6,0-1.32,.34-2.49,1.01-3.51,.67-1.02,1.62-1.81,2.83-2.36,1.22-.56,2.61-.83,4.19-.83,2.27,0,4.13,.57,5.57,1.7,1.45,1.13,2.26,2.64,2.45,4.52h-3.47c-.12-.93-.6-1.74-1.46-2.45-.86-.71-1.99-1.06-3.4-1.06-1.32,0-2.4,.34-3.23,1.02-.83,.68-1.25,1.64-1.25,2.87,0,.88,.25,1.6,.75,2.15,.5,.56,1.11,.98,1.84,1.27,.73,.29,1.75,.62,3.07,.99,1.6,.44,2.88,.87,3.86,1.3,.97,.43,1.81,1.09,2.5,1.98,.69,.89,1.04,2.1,1.04,3.63,0,1.18-.31,2.29-.94,3.33-.63,1.04-1.55,1.89-2.78,2.54-1.23,.65-2.67,.97-4.34,.97s-3.03-.28-4.29-.85Z"/>
      <path class="cls-3" d="M138.61,127.27c1.06-1.89,2.52-3.36,4.36-4.43,1.84-1.06,3.88-1.6,6.13-1.6,2.64,0,4.94,.64,6.91,1.91,1.97,1.27,3.4,3.08,4.31,5.42h-3.79c-.67-1.46-1.64-2.58-2.9-3.37-1.26-.79-2.77-1.18-4.53-1.18s-3.21,.39-4.55,1.18c-1.34,.79-2.4,1.91-3.16,3.35-.76,1.45-1.15,3.14-1.15,5.09s.38,3.61,1.15,5.05c.76,1.45,1.82,2.57,3.16,3.35,1.34,.79,2.86,1.18,4.55,1.18s3.27-.39,4.53-1.16c1.26-.78,2.23-1.89,2.9-3.35h3.79c-.9,2.32-2.34,4.1-4.31,5.37-1.97,1.26-4.27,1.89-6.91,1.89-2.25,0-4.29-.53-6.13-1.58-1.84-1.05-3.29-2.52-4.36-4.39-1.07-1.88-1.6-3.99-1.6-6.36s.53-4.49,1.6-6.37Z"/>
      <path class="cls-3" d="M193.45,144.43c-1.85-1.05-3.32-2.52-4.39-4.41-1.08-1.89-1.62-4.01-1.62-6.37s.54-4.49,1.62-6.37c1.08-1.89,2.54-3.36,4.39-4.41,1.85-1.05,3.9-1.58,6.15-1.58s4.33,.53,6.18,1.58c1.85,1.05,3.31,2.52,4.38,4.39,1.06,1.88,1.6,4.01,1.6,6.39s-.53,4.52-1.6,6.39c-1.07,1.88-2.52,3.34-4.38,4.39-1.85,1.05-3.91,1.58-6.18,1.58s-4.3-.53-6.15-1.58Zm10.72-2.34c1.35-.79,2.42-1.91,3.2-3.37,.78-1.46,1.16-3.15,1.16-5.07s-.39-3.64-1.16-5.09c-.78-1.45-1.84-2.56-3.18-3.35-1.34-.79-2.87-1.18-4.59-1.18s-3.24,.39-4.59,1.18c-1.34,.79-2.4,1.91-3.18,3.35-.78,1.45-1.16,3.14-1.16,5.09s.39,3.61,1.16,5.07c.78,1.46,1.84,2.58,3.2,3.37,1.35,.79,2.88,1.18,4.57,1.18s3.21-.39,4.57-1.18Z"/>
      <path class="cls-3" d="M252.29,145.76l-5.77-9.9h-3.82v9.9h-3.16v-24.21h7.82c1.83,0,3.37,.31,4.64,.94,1.26,.63,2.21,1.47,2.83,2.54,.63,1.07,.94,2.28,.94,3.65,0,1.67-.48,3.14-1.44,4.41-.96,1.27-2.4,2.12-4.32,2.54l6.08,10.14h-3.79Zm-9.59-12.44h4.65c1.71,0,3-.42,3.86-1.27,.86-.85,1.29-1.97,1.29-3.39s-.42-2.55-1.27-3.33c-.85-.79-2.14-1.18-3.87-1.18h-4.65v9.17Z"/>
      <path class="cls-3" d="M298.4,133.66c-1.38,1.33-3.48,2-6.3,2h-4.65v10.11h-3.16v-24.21h7.82c2.73,0,4.81,.66,6.23,1.98,1.42,1.32,2.14,3.02,2.14,5.11s-.69,3.69-2.07,5.02Zm-2.41-1.75c.83-.76,1.25-1.85,1.25-3.26,0-2.99-1.71-4.48-5.14-4.48h-4.65v8.89h4.65c1.76,0,3.06-.38,3.89-1.15Z"/>
      <path class="cls-3" d="M331.18,121.55v24.21h-3.16v-24.21h3.16Z"/>
      <path class="cls-3" d="M365.01,144.43c-1.85-1.05-3.32-2.52-4.39-4.41-1.08-1.89-1.62-4.01-1.62-6.37s.54-4.49,1.62-6.37c1.08-1.89,2.54-3.36,4.39-4.41,1.85-1.05,3.9-1.58,6.15-1.58s4.33,.53,6.18,1.58c1.85,1.05,3.31,2.52,4.38,4.39,1.06,1.88,1.6,4.01,1.6,6.39s-.53,4.52-1.6,6.39c-1.07,1.88-2.52,3.34-4.38,4.39-1.85,1.05-3.91,1.58-6.18,1.58s-4.3-.53-6.15-1.58Zm10.72-2.34c1.35-.79,2.42-1.91,3.2-3.37,.78-1.46,1.16-3.15,1.16-5.07s-.39-3.64-1.16-5.09c-.78-1.45-1.84-2.56-3.18-3.35-1.34-.79-2.87-1.18-4.59-1.18s-3.24,.39-4.59,1.18c-1.34,.79-2.4,1.91-3.18,3.35-.78,1.45-1.16,3.14-1.16,5.09s.39,3.61,1.16,5.07c.78,1.46,1.84,2.58,3.2,3.37,1.35,.79,2.88,1.18,4.57,1.18s3.21-.39,4.57-1.18Z"/>
      <path class="cls-3" d="M430.14,145.76h-3.16l-12.71-19.28v19.28h-3.16v-24.25h3.16l12.71,19.24v-19.24h3.16v24.25Z"/>
    </g>
    <g>
      <path class="cls-1" d="M114.42,234.48c.18,.24,.24,.4,.29,.39,7.85-.85,11.25,4.83,14.57,10.25,7.34,12.02,10.71,25.24,11.04,39.26,0,.42-.13,.94-.28,1.9-1.46,0-2.93,0-4.41,0-7.49,0-14.98-.19-22.46,0-2.78,.07-3.69-.73-3.89-3.58-1.14-16.92-7.01-32.06-17.64-45.31-.6-.75-1.26-1.62-2.09-1.99-1.6-.7-3.06-.48-3.26,1.71-.09,.97-.06,1.95-.06,2.93,0,14.11-.07,28.22,.06,42.32,.03,2.95-.79,3.96-3.84,3.89-7.92-.2-15.84-.15-23.76-.02-2.56,.04-3.6-.54-3.6-3.38,.09-35.92,.09-71.84,0-107.76,0-2.82,.78-3.76,3.67-3.74,17.25,.12,34.51-.04,51.76,.09,19.56,.15,34.2,17.49,30.79,36.76-1.83,10.36-8.79,17.16-17.64,22.12-2.9,1.63-6.07,2.75-9.27,4.17Zm-3.66-30.89c0-2.17,.27-4.38-.06-6.49-.62-3.94-1.05-8.05-2.53-11.69-3.02-7.39-6.72-11.51-18.42-10.93-2.69,.13-3.57,.91-3.55,3.57,.1,12.03,.04,24.07,.04,36.1,0,4.88-.09,9.76,.08,14.63,.04,1.04,.8,2.73,1.59,2.97,7.69,2.36,15.32-.85,19.1-7.96,3.35-6.31,3.94-13.21,3.76-20.2Z"/>
      <path class="cls-1" d="M382.83,285.95c0-1.48,0-2.66,0-3.84,0-35.46,0-70.91,0-106.37,0-4.33,.01-4.34,4.23-4.34,16.91,0,33.83,.02,50.74,.03,6.75,0,12.1,2.98,16.48,7.87,7.71,8.6,11.32,19.08,13.46,30.17,1.82,9.42,2.38,18.95,1.26,28.48-1.64,13.94-6.22,26.75-15.57,37.51-6.21,7.14-13.69,11.12-23.57,10.83-14.3-.42-28.62-.1-42.94-.12-1.27,0-2.54-.13-4.1-.22Zm31.09-57.15c0,3.36,0,6.73,0,10.09,0,13.56-.03,27.13,.06,40.69,0,1.11,.5,2.87,1.27,3.21,4.53,2.01,11.83-.06,14.38-4.52,2.28-3.99,4.16-8.36,5.34-12.8,3.27-12.36,3.66-25.05,3.61-37.77-.05-13.38-.72-26.67-4.68-39.58-3.25-10.6-6.89-13.47-16.09-13.63-3.33-.06-3.96,1.23-3.94,4.19,.11,16.71,.05,33.42,.05,50.13Z"/>
      <path class="cls-1" d="M159.71,221.23c2.33-12.01,7.74-22.26,17.66-29.67,18.99-14.2,45.6-7.9,56.42,13.21,9.78,19.09,4.65,45.39-11.58,59.37-20.84,17.95-52.78,8.86-61.11-17.39-2.7-8.51-3.12-16.34-1.38-25.51Zm58.78,36.13c.1-1.53,.37-3.56,.35-5.58-.09-9.82-2.5-19.17-6.39-28.09-4.39-10.09-10.18-19.31-18.87-26.3-2.54-2.04-5.59-3.63-8.65-4.75-3.15-1.15-5.88-.05-7.11,3.01-1.36,3.4-2.56,7.18-2.51,10.77,.27,19.4,7.39,36.25,20.1,50.78,3.28,3.75,7.07,6.96,11.71,8.98,4.63,2.02,8.7,.24,10.26-4.55,.4-1.23,.66-2.52,1.11-4.27Z"/>
      <path class="cls-1" d="M284.53,202.87c-2.85,6.2-5.53,11.61-7.84,17.17-2.56,6.18-5.18,12.39-7.05,18.79-2.14,7.3,1.27,12.88,8.72,14.33,6.03,1.17,12.23,1.56,18.38,1.99,2.34,.16,3.71,.86,4.79,2.99,4.17,8.21,8.53,16.32,12.8,24.48,.49,.93,.87,1.92,1.5,3.33-1.39,.1-2.42,.24-3.44,.24-12.91,.01-25.82,.07-38.74-.04-3.01-.03-6.06-.42-9.01-1.02-6.78-1.37-10.41-6-10.53-12.86-.13-7.24,2.19-13.94,5.03-20.37,11.53-26.15,23.29-52.21,35.07-78.26,.45-1,1.96-1.93,3.11-2.15,5.12-.96,8.15,.82,10.72,5.95,16.05,31.94,32.51,63.66,49.04,95.35,2.25,4.32,1.6,8.53,1.74,13.4-2.5,0-4.73,0-6.97,0-6.84,0-13.68-.13-20.51,.07-2.7,.08-4.04-.93-5.22-3.26-12.9-25.27-25.91-50.5-38.91-75.72-.66-1.29-1.51-2.48-2.7-4.4Z"/>
    </g>
    <path class="cls-1" d="M62.23,260.24s1.95,26.06-14.07,26.06h39.09v-35.83l-25.02,9.77Z"/>
    <path class="cls-1" d="M62.18,197.4s1.95-26.06-14.07-26.06h39.09v35.83s-25.02-9.77-25.02-9.77Z"/>
    <path class="cls-1" d="M389.83,192.59s-1.41-21.19-14.09-21.19h24.82"/>
  </g>
  <path class="cls-3" d="M41.12,321.39c1.54-.1,3.08-.27,4.61-.28,6.42-.03,12.85,.09,19.26-.04,17.97-.37,31.94-14.04,32.62-32.03,.26-6.89,.05-13.81,.14-20.71,.02-1.34,.45-2.67,.7-4,.48,.02,.96,.04,1.44,.07,.19,1.11,.54,2.22,.55,3.33,.06,6.42-.07,12.85,.06,19.26,.4,20.05,14.63,34.04,34.61,34.1,5.94,.02,11.88-.02,17.82,.04,1.43,.01,2.85,.29,4.27,.45,.01,.49,.03,.99,.04,1.48-1.23,.2-2.46,.56-3.69,.58-6.26,.07-12.52,.02-18.78,.06-19.76,.14-33.85,14.04-34.26,33.92-.15,7.49-.03,14.99-.03,22.48-.55,.11-1.09,.22-1.64,.33-.38-1.32-1.06-2.63-1.09-3.95-.12-6.1,0-12.2-.06-18.3-.18-20.51-14.11-34.39-34.57-34.48-5.94-.03-11.88,0-17.82-.06-1.43-.02-2.85-.33-4.28-.51,.03-.58,.06-1.16,.08-1.74Z"/>
  <g>
    <g>
      <path class="cls-1" d="M198.35,380.27c-.11-1.24-.26-2.18-.27-3.11-.02-9.91,.16-59.86-.09-69.76-.1-3.91,2.2-3.31,4.55-3.41,2.51-.11,4.49-.03,4.13,3.46-.28,2.66-.23,5.4,.06,8.06,.09,.85,1.41,2.23,2.18,2.24,13.35,.14,26.7,.08,40.05,.13,1.87,0,2.42-.83,2.37-2.56-.08-2.91,.07-5.82-.05-8.72-.08-1.99,.69-2.71,2.63-2.59,1.8,.11,3.61,.02,5.65,.02v60.26h-8.26c0-3.64-.08-31.46,.03-34.97,.07-1.97-.39-2.93-2.64-2.92-13.14,.08-26.27,.07-39.41,0-2.17-.01-2.8,.88-2.72,2.9,.12,2.79-.06,45.65,.05,48.44,.08,1.97-.67,2.72-2.63,2.57-1.8-.13-3.61-.03-5.66-.03Z"/>
      <path class="cls-1" d="M289.72,408.88c-10.94-.48-19.8-4.38-26.34-11.61-12.97-14.33-11.87-36.52-11.82-37.46l8.12,.46-4.06-.23,4.06,.22c-.01,.2-.93,19.81,9.75,31.58,5.02,5.53,11.96,8.53,20.63,8.91l-.35,8.13Z"/>
    </g>
    <path class="cls-1" d="M159.3,380.27c-1.59,0-3.26-.08-5-.24-9.52-.88-14.07-6.3-16.22-10.69-2.18-4.46-2.26-8.63-2.26-9.09l4.07-.02,4.07-.04s.07,3.04,1.59,6.03c1.85,3.64,4.97,5.61,9.53,6.03,7.65,.71,12.96-.34,15.79-3.1,2.28-2.23,3.13-5.88,2.53-10.85-1.35-11.25-8.61-17.33-23.37-25.96-2.76-1.61-11.78-7.52-12.04-15.91-.1-3.07,1-5.78,3.18-7.83,5.23-4.93,15.11-4.9,23.96-4.48,.58,.03,1.11,.05,1.58,.07,15.3,.57,17.58,8.59,17.58,13.32h-8.13c0-1.67,0-5.15-9.77-5.51-.49-.02-1.05-.04-1.66-.07-4.41-.21-14.74-.69-17.86,2.25-.39,.37-.78,.89-.74,2.02,.1,3.3,4.29,7.22,8.14,9.47,16.33,9.55,25.5,17.43,27.22,31.74,.89,7.43-.73,13.22-4.81,17.21-3.83,3.75-9.66,5.64-17.36,5.64Z"/>
    <polygon class="cls-1" points="443.22 303.95 414.59 366.72 388.27 303.95 379.41 303.95 385.22 317.47 366.37 366.22 339.14 303.95 330.22 303.95 363.74 380.27 369.52 380.27 389.76 328.04 411.56 380.27 417.24 380.27 452.2 303.95 443.22 303.95"/>
    <path class="cls-1" d="M302.05,380.38c-8.78,0-17.03-3.42-23.24-9.63-6.21-6.21-9.63-14.46-9.63-23.24v-10.7c0-18.12,14.74-32.86,32.86-32.86s32.86,14.74,32.86,32.86v10.7c0,18.12-14.74,32.86-32.86,32.86Zm0-68.3c-13.64,0-24.73,11.09-24.73,24.73v10.7c0,6.61,2.57,12.82,7.24,17.49,4.67,4.67,10.88,7.24,17.49,7.24,13.64,0,24.73-11.09,24.73-24.73v-10.7c0-13.64-11.09-24.73-24.73-24.73Z"/>
  </g>
  <g>
    <g>
      <path class="cls-5" d="M239.24,79.57c.32-1.63,.32-3.92,.06-5.79l-2.1-15.54-11.44,21.32h-2.18l-11.64-22.28-2.26,16.85c-.24,1.94-.32,4.41-.11,5.44h-4.09c.79-1.69,.99-2.42,1.36-5.19l3.7-27.8h1.89l13.57,25.94,13.56-25.94h1.42l3.82,27.74c.38,2.77,.67,3.56,1.43,5.25h-6.99Z"/>
      <path class="cls-5" d="M203.73,76.28l-.49,3.29h-23.59c.97-2.28,.91-3.56,.91-5.2v-22.59c0-1.59,.06-2.99-.91-5.19h23.02l.04,3.35c-.43-.18-.78-.33-1.1-.47-.85-.32-1.94-.62-3.06-.61h-12.62v12.92h14.81l-.73,2.54h-14.08v12.93h13.35c2.25,.04,4.48-1.24,4.48-1.24l-.06,.28h.03Z"/>
      <path class="cls-5" d="M329.97,64.14l1.38-.14c4.64-.68,8.6-3.38,8.6-8.39,0-9.49-11.41-9.05-16.25-9.05h-7.08c.97,2.21,.91,3.61,.91,5.19v22.61c0,1.64,.06,2.92-.91,5.2h7.21c-.92-2.28-.92-3.56-.92-5.2v-10.16c.69,.04,1.76,.27,3.28,2.06,5.32,6.33,9.56,10.32,12.83,13.32h6.66c-.65-.64-15.72-15.45-15.72-15.45m-7.05-1.57v-14.07c10.35-.41,11.41,4.74,11.53,7.1,.1,2.46-.93,5.36-3.97,6.52h.01s-.15,.05-.15,.05c-1.63,.71-7.42,.4-7.42,.4"/>
      <path class="cls-5" d="M311.34,74.18l-12.5-27.6h-1.43l-12.7,28.39c-.96,2.11-1.42,2.89-2.78,4.59h4.27l5.37-12.08h10.96l5.44,12.08h7.24c-1.92-1.85-2.54-2.69-3.88-5.39m-18.71-9l4.38-9.85,4.47,9.85h-8.85Z"/>
      <path class="cls-5" d="M277.06,74.18l-12.5-27.6h-1.44l-12.69,28.39c-.96,2.11-1.42,2.89-2.78,4.59h4.28l5.38-12.08h10.95l5.44,12.08h7.24c-1.92-1.85-2.55-2.69-3.88-5.39m-18.71-9l4.38-9.85,4.46,9.85h-8.85Z"/>
    </g>
    <rect class="cls-4" x="168.78" y="36.86" width="187.78" height="51.57"/>
  </g>
</svg>