<?xml version="1.0" encoding="UTF-8"?>
<svg id="Capa_1" data-name="Capa 1" xmlns="http://www.w3.org/2000/svg" viewBox="0 0 110.69 82.67">
  <defs>
    <style>
      .cls-1 {
        fill: none;
        stroke: #0d2449;
        stroke-linecap: round;
        stroke-linejoin: round;
        stroke-width: .8px;
      }
    </style>
  </defs>
  <path class="cls-1" d="M19.54,62.69H88.74c7.69,0,13.94,6.25,13.94,13.94v.83c0,2.66-2.16,4.81-4.81,4.81H10.41c-2.66,0-4.81-2.16-4.81-4.81v-.83c0-7.69,6.25-13.94,13.94-13.94Z"/>
  <g>
    <line class="cls-1" x1="23.55" y1="64.18" x2="23.55" y2="80.78"/>
    <line class="cls-1" x1="38.85" y1="64.18" x2="38.85" y2="80.78"/>
    <line class="cls-1" x1="54.14" y1="64.18" x2="54.14" y2="80.78"/>
    <line class="cls-1" x1="69.43" y1="64.18" x2="69.43" y2="80.78"/>
    <line class="cls-1" x1="84.73" y1="64.18" x2="84.73" y2="80.78"/>
  </g>
  <line class="cls-1" y1="82.27" x2="110.69" y2="82.27"/>
  <g>
    <g>
      <polyline class="cls-1" points="70.61 33.82 46.35 33.82 35.15 32.06 27.03 37.99 22.64 37.99 29.11 27.83 22.64 17.96 27.03 17.96 35.15 23.89 46.35 22.13 62.48 22.13"/>
      <path class="cls-1" d="M52.82,33.82l-12.18,20.64,8.18,1.1,21.24-21.73h6.29c1.48,0,2.94-.41,4.2-1.19l3.76-2.32c1.81-1.12,1.78-3.76-.05-4.84l-3.76-2.22c-1.23-.73-2.63-1.11-4.06-1.11h-6.38L48.82,.4l-8.18,1.1,12.18,20.64"/>
    </g>
    <circle class="cls-1" cx="51.24" cy="27.71" r="1.04"/>
    <circle class="cls-1" cx="56.65" cy="27.71" r="1.04"/>
    <circle class="cls-1" cx="62.06" cy="27.71" r="1.04"/>
    <circle class="cls-1" cx="67.48" cy="27.71" r="1.04"/>
  </g>
</svg>