<?xml version="1.0" encoding="UTF-8"?><svg id="Capa_1" xmlns="http://www.w3.org/2000/svg" viewBox="0 0 211.65 175.65"><defs><style>.cls-1{fill:none;stroke:#0d2449;stroke-linecap:round;stroke-linejoin:round;stroke-width:2px;}</style></defs><path class="cls-1" d="M80.94,61.26h41.47c1.99,0,3.61,1.68,3.61,3.74v14.98c0,2.07-1.62,3.74-3.61,3.74h-41.47c-1.99,0-3.61-1.68-3.61-3.74v-14.98c0-2.07,1.62-3.74,3.61-3.74Zm-10.81,39.33h63.1c1.99,0,3.61,1.68,3.61,3.74v14.98c0,2.07-1.61,3.74-3.61,3.74h-63.1c-1.99,0-3.61-1.68-3.61-3.74v-14.98c0-2.07,1.61-3.74,3.61-3.74Zm31.55-50.56v11.24m0,22.47v16.85m0,22.47v11.24"/></svg>