<?xml version="1.0" encoding="UTF-8"?>
<svg id="Capa_1" data-name="Capa 1" xmlns="http://www.w3.org/2000/svg" viewBox="0 0 71.54 68.02">
  <defs>
    <style>
      .cls-1 {
        fill: none;
        stroke: #0d2449;
        stroke-linecap: round;
        stroke-linejoin: round;
        stroke-width: .6px;
      }
    </style>
  </defs>
  <path class="cls-1" d="M10.17,50.35v-11.83c0-6.27,5.08-11.35,11.35-11.35h19.08S36.08,4.82,62.47,.3"/>
  <path class="cls-1" d="M26.69,39.65v3.03c0,4.63-3.75,8.38-8.38,8.38H4.58v14.05l-2.5,2.14"/>
  <path class="cls-1" d="M44.22,39.65v3.03c0,4.63,3.75,8.38,8.38,8.38h9.15v12.47s-2.89,2.89-2.89,2.89"/>
  <path class="cls-1" d="M62.09,51.06h9.15v12.47s-2.89,2.89-2.89,2.89"/>
  <polyline class="cls-1" points="14.68 51.54 14.68 65.58 12.19 67.72"/>
  <path class="cls-1" d="M.3,43.57v-6.9c0-5.25,4.26-9.51,9.51-9.51h14.38"/>
  <polyline class="cls-1" points="56.82 50.35 56.82 16.71 69.51 19.14 69.51 12.83 56.55 1.76"/>
  <line class="cls-1" x1="26.69" y1="44.78" x2="44.22" y2="44.78"/>
</svg>