<?xml version="1.0" encoding="UTF-8"?>
<svg id="Capa_1" data-name="Capa 1" xmlns="http://www.w3.org/2000/svg" viewBox="0 0 71.74 68.22">
  <defs>
    <style>
      .cls-1 {
        fill: none;
        stroke: #0d2449;
        stroke-linecap: round;
        stroke-linejoin: round;
        stroke-width: .8px;
      }
    </style>
  </defs>
  <path class="cls-1" d="M10.27,50.45v-11.83c0-6.27,5.08-11.35,11.35-11.35h19.08S36.18,4.92,62.57,.4"/>
  <path class="cls-1" d="M26.79,39.75v3.03c0,4.63-3.75,8.38-8.38,8.38H4.68v14.05l-2.5,2.14"/>
  <path class="cls-1" d="M44.32,39.75v3.03c0,4.63,3.75,8.38,8.38,8.38h9.15v12.47s-2.89,2.89-2.89,2.89"/>
  <polyline class="cls-1" points="62.19 51.16 71.34 51.16 71.34 63.63 68.45 66.51"/>
  <polyline class="cls-1" points="14.78 51.64 14.78 65.68 12.29 67.82"/>
  <path class="cls-1" d="M.4,43.67v-6.9c0-5.25,4.26-9.51,9.51-9.51h14.38"/>
  <polyline class="cls-1" points="56.92 50.45 56.92 16.81 69.61 19.24 69.61 12.93 56.65 1.86"/>
  <line class="cls-1" x1="26.79" y1="44.88" x2="44.32" y2="44.88"/>
</svg>