<?xml version="1.0" encoding="UTF-8"?>
<svg id="Capa_1" data-name="Capa 1" xmlns="http://www.w3.org/2000/svg" viewBox="0 0 45.43 116.54">
  <defs>
    <style>
      .cls-1 {
        stroke-miterlimit: 10;
      }

      .cls-1, .cls-2 {
        fill: none;
        stroke: #0d2449;
        stroke-width: .8px;
      }

      .cls-2 {
        stroke-linecap: round;
        stroke-linejoin: round;
      }
    </style>
  </defs>
  <rect class="cls-2" x=".4" y="87.62" width="10.24" height="28.52"/>
  <line class="cls-1" x1="10.92" y1="116.14" x2="23.81" y2="116.14"/>
  <polyline class="cls-2" points="6.01 116.14 16.12 116.14 16.12 67.13 6.01 67.13 6.01 87.78"/>
  <polyline class="cls-2" points="21.99 45.38 10.92 45.38 10.92 67.01"/>
  <polyline class="cls-2" points="27.34 33.71 27.34 20.66 15.84 20.66 15.84 45.39"/>
  <polyline class="cls-2" points="18.57 20.56 18.57 8.73 24.61 8.73 24.61 20.56"/>
  <polyline class="cls-2" points="20.64 8.71 20.64 .4 22.54 .4 22.54 8.71"/>
  <polyline class="cls-2" points="33.24 116.14 22.01 116.14 22.01 33.74 33.24 33.74 33.24 57.06"/>
  <polyline class="cls-2" points="36.32 116.14 25.94 116.14 25.94 57.03 36.32 57.03 36.32 77.57"/>
  <polyline class="cls-2" points="39.55 116.14 29.03 116.14 29.03 77.52 39.55 77.52 39.55 98.6"/>
  <rect class="cls-2" x="33.38" y="98.71" width="11.65" height="17.43"/>
</svg>