<?xml version="1.0" encoding="UTF-8"?><svg id="Capa_1" xmlns="http://www.w3.org/2000/svg" viewBox="0 0 211.65 175.65"><defs><style>.cls-1{fill:none;stroke:#0d2449;stroke-linecap:round;stroke-linejoin:round;stroke-width:2px;}</style></defs><path class="cls-1" d="M95.17,47.86h21.32m-10.66,15.99v-15.99m23.98,39.97h-47.96m63.95,39.97l-10.66-7.99m-69.28,7.99l10.66-7.99m12.43-55.96h33.75c3.93,0,7.11,3.18,7.11,7.11v37.3c0,1.96-1.59,3.55-3.55,3.55h-40.86c-1.96,0-3.55-1.59-3.55-3.55v-37.3c0-3.93,3.18-7.11,7.11-7.11Zm6.22,35.97c0,.74-.6,1.33-1.33,1.33m0,0c-.74,0-1.33-.6-1.33-1.33m0,0c0-.74,.6-1.33,1.33-1.33m0,0c.74,0,1.33,.6,1.33,1.33m23.98,0c0,.74-.6,1.33-1.33,1.33m0,0c-.74,0-1.33-.6-1.33-1.33m0,0c0-.74,.6-1.33,1.33-1.33m0,0c.74,0,1.33,.6,1.33,1.33"/></svg>