<?xml version="1.0" encoding="UTF-8"?>
<svg id="Capa_1" data-name="Capa 1" xmlns="http://www.w3.org/2000/svg" viewBox="0 0 66.18 61.89">
  <defs>
    <style>
      .cls-1 {
        fill: none;
        stroke: #0d2449;
        stroke-miterlimit: 10;
        stroke-width: .8px;
      }
    </style>
  </defs>
  <path class="cls-1" d="M7.19,16.62h3.05c3.74,0,6.79,3.04,6.79,6.79V61.49H.4V23.41c0-3.74,3.04-6.79,6.79-6.79Z"/>
  <path class="cls-1" d="M2.47,18.27v-3.78c0-2.81,2.28-5.09,5.09-5.09h2.29c2.81,0,5.09,2.28,5.09,5.09v3.78"/>
  <rect class="cls-1" x="17.02" y="40.14" width="32.13" height="21.36"/>
  <path class="cls-1" d="M4.34,10.68v-2.27c0-2.49,2.02-4.51,4.51-4.51s4.51,2.02,4.51,4.51v2.47"/>
  <polyline class="cls-1" points="7.91 4.04 8.81 1.38 9.5 3.94"/>
  <polyline class="cls-1" points="32.17 4.75 33.08 2.09 33.76 4.65"/>
  <g>
    <polyline class="cls-1" points="18.96 40.04 19.83 31.14 26.27 26.65 39.9 26.65 46.34 31.14 47.21 40.04"/>
    <path class="cls-1" d="M24.22,28.04v-5.74c0-1.53,.84-2.94,2.19-3.67l2.3-1.25h7.48s1.27,0,1.27,0l2.3,1.25c1.35,.73,2.19,2.14,2.19,3.67v5.74"/>
    <path class="cls-1" d="M29.17,17.67v-4.67c0-2.17,1.76-3.92,3.92-3.92h0c2.17,0,3.92,1.76,3.92,3.92v4.72"/>
  </g>
  <rect class="cls-1" x="20.67" y="51.73" width="5.66" height="9.76"/>
  <rect class="cls-1" x="30.14" y="51.73" width="5.66" height="9.76"/>
  <rect class="cls-1" x="39.61" y="51.73" width="5.66" height="9.76"/>
  <line class="cls-1" x1=".31" y1="36.89" x2="17.02" y2="36.89"/>
  <path class="cls-1" d="M55.95,16.62h3.05c3.74,0,6.79,3.04,6.79,6.79V61.49h-16.62V23.41c0-3.74,3.04-6.79,6.79-6.79Z"/>
  <path class="cls-1" d="M51.24,18.27v-3.78c0-2.81,2.28-5.09,5.09-5.09h2.29c2.81,0,5.09,2.28,5.09,5.09v3.78"/>
  <path class="cls-1" d="M53.1,10.68v-2.27c0-2.49,2.02-4.51,4.51-4.51s4.51,2.02,4.51,4.51v2.47"/>
  <polyline class="cls-1" points="56.67 4.04 57.58 1.38 58.26 3.94"/>
  <line class="cls-1" x1="49.07" y1="36.89" x2="65.78" y2="36.89"/>
  <path class="cls-1" d="M34.98,9.45c.53-.52,.85-1.24,.85-2.04,0-1.58-1.28-2.86-2.86-2.86s-2.86,1.28-2.86,2.86c0,.87,.39,1.65,1.01,2.18"/>
</svg>