<?xml version="1.0" encoding="UTF-8"?><svg id="Capa_1" xmlns="http://www.w3.org/2000/svg" viewBox="0 0 211.65 175.65"><defs><style>.cls-1{fill:none;stroke:#0d2449;stroke-linecap:round;stroke-linejoin:round;stroke-width:2px;}</style></defs><path class="cls-1" d="M145.85,122.46c-4.51-.11-8.26-3.51-8.79-7.99,0,4.42-4.65,7.99-10.39,7.99s-10.39-3.58-10.39-7.99c0,4.42-4.65,7.99-10.39,7.99s-10.39-3.58-10.39-7.99c0,4.42-4.65,7.99-10.39,7.99s-10.39-3.58-10.39-7.99c-.53,4.48-4.28,7.89-8.79,7.99m79.81-37.3v15.99m-15.33-2.58c-8.79-13.6-26.93-17.5-40.53-8.71-3.48,2.25-6.44,5.21-8.7,8.69m-15.38,2.61v-15.99m21.32-22.3v22.3m10.66-30.41v30.41m26.65-22.3v22.3m-10.66-30.41v30.41m31.97,0c-5.41-3.71-10.24-8.2-14.32-13.32-4.49-5.33-11.54-18.65-25.65-18.65s-21.16,13.32-25.65,18.65c-4.09,5.13-8.91,9.62-14.32,13.32h79.94Z"/></svg>