<?xml version="1.0" encoding="UTF-8"?>
<svg id="Capa_1" data-name="Capa 1" xmlns="http://www.w3.org/2000/svg" viewBox="0 0 214.71 43.32">
  <defs>
    <style>
      .cls-1 {
        fill: #85754e;
      }
    </style>
  </defs>
  <g>
    <circle class="cls-1" cx="209.69" cy="5.02" r="5.02" transform="translate(75.18 165.96) rotate(-51.48)"/>
    <circle class="cls-1" cx="209.69" cy="38.3" r="5.02" transform="translate(49.14 178.52) rotate(-51.48)"/>
  </g>
  <g>
    <circle class="cls-1" cx="180.45" cy="5.02" r="5.02" transform="translate(64.15 143.09) rotate(-51.48)"/>
    <circle class="cls-1" cx="180.45" cy="38.3" r="5.02" transform="translate(38.11 155.64) rotate(-51.48)"/>
  </g>
  <g>
    <circle class="cls-1" cx="151.21" cy="5.02" r="5.02" transform="translate(53.12 120.21) rotate(-51.48)"/>
    <circle class="cls-1" cx="151.21" cy="38.3" r="5.02" transform="translate(27.08 132.77) rotate(-51.48)"/>
  </g>
  <g>
    <circle class="cls-1" cx="121.97" cy="5.02" r="5.02" transform="translate(42.09 97.33) rotate(-51.48)"/>
    <circle class="cls-1" cx="121.97" cy="38.3" r="5.02" transform="translate(16.05 109.89) rotate(-51.48)"/>
  </g>
  <g>
    <circle class="cls-1" cx="92.74" cy="5.02" r="5.02" transform="translate(31.06 74.45) rotate(-51.48)"/>
    <circle class="cls-1" cx="92.74" cy="38.3" r="5.02" transform="translate(5.02 87.01) rotate(-51.48)"/>
  </g>
  <g>
    <circle class="cls-1" cx="63.5" cy="5.02" r="5.02" transform="translate(20.03 51.58) rotate(-51.48)"/>
    <circle class="cls-1" cx="63.5" cy="38.3" r="5.02" transform="translate(-6.02 64.13) rotate(-51.48)"/>
  </g>
  <g>
    <circle class="cls-1" cx="34.26" cy="5.02" r="5.02" transform="translate(9 28.7) rotate(-51.48)"/>
    <circle class="cls-1" cx="34.26" cy="38.3" r="5.02" transform="translate(-17.05 41.26) rotate(-51.48)"/>
  </g>
  <g>
    <circle class="cls-1" cx="5.02" cy="5.02" r="5.02" transform="translate(-2.03 5.82) rotate(-51.48)"/>
    <circle class="cls-1" cx="5.02" cy="38.3" r="5.02" transform="translate(-28.08 18.38) rotate(-51.48)"/>
  </g>
</svg>