<?xml version="1.0" encoding="UTF-8"?><svg id="Capa_1" xmlns="http://www.w3.org/2000/svg" viewBox="0 0 211.65 175.65"><defs><style>.cls-1{fill:none;stroke:#0d2449;stroke-linecap:round;stroke-linejoin:round;stroke-width:2px;}</style></defs><path class="cls-1" d="M98.79,106.64v-9.41m14.06-14.1v-9.41m0,32.92v-9.24c0-1.57-.78-3.04-2.09-3.91l-9.88-6.6c-1.31-.87-2.09-2.34-2.09-3.92v-11.6m-27.15,14.1l31.83-31.94c1.3-1.3,3.4-1.3,4.7,0l31.84,31.94c1.3,1.3,1.3,3.41,0,4.71l-31.84,31.94c-1.3,1.3-3.4,1.3-4.7,0l-31.83-31.94c-1.3-1.3-1.3-3.41,0-4.71Zm34.18-7.05l-7.03-7.05-7.03,7.05"/></svg>