<?xml version="1.0" encoding="UTF-8"?><svg id="Capa_1" xmlns="http://www.w3.org/2000/svg" viewBox="0 0 211.65 175.65"><defs><style>.cls-1{fill:none;stroke:#0d2449;stroke-linecap:round;stroke-linejoin:round;stroke-width:2px;}</style></defs><path class="cls-1" d="M115.42,81.09h-17.59m0-10.66l-10.66-13.32m-5.33,39.97v-10.66c0-2.94-2.39-5.33-5.33-5.33s-5.33-2.39-5.33-5.33,2.39-5.33,5.33-5.33h26.94c1.51,0,2.95,.65,3.96,1.78l22.38,24.87m-58.61,10.66v-5.33c0-2.94,2.39-5.33,5.33-5.33h66.61c1.47,0,2.66,1.2,2.66,2.67,0,.51-.15,1.01-.42,1.44l-3.64,5.66m-75.88,11.55c5.86,.72,11.73-1.23,15.99-5.33,5.98,6.62,16.19,7.14,22.82,1.17,.41-.37,.8-.76,1.17-1.17,5.98,6.62,16.19,7.14,22.82,1.17,.41-.37,.8-.76,1.17-1.17,4.25,4.1,10.13,6.05,15.99,5.33"/></svg>