<?xml version="1.0" encoding="UTF-8"?>
<svg id="Capa_1" data-name="Capa 1" xmlns="http://www.w3.org/2000/svg" viewBox="0 0 354.56 197.77">
  <defs>
    <style>
      .cls-1 {
        fill: #85754e;
      }
    </style>
  </defs>
  <path class="cls-1" d="M119.68,186.76c0,1.21,.25,2.31,.76,3.29,.51,.98,1.21,1.76,2.1,2.34,.89,.58,1.93,.87,3.11,.87s2.21-.29,3.11-.87c.89-.58,1.59-1.36,2.1-2.34,.5-.98,.76-2.08,.76-3.29s-.25-2.3-.76-3.28c-.5-.97-1.21-1.75-2.1-2.33-.89-.58-1.93-.87-3.11-.87s-2.21,.29-3.11,.87c-.89,.58-1.59,1.36-2.1,2.33-.5,.98-.76,2.07-.76,3.28m-5.04,0c0-1.54,.28-2.98,.83-4.31s1.33-2.5,2.32-3.49c.99-1,2.16-1.77,3.51-2.33,1.34-.55,2.79-.84,4.35-.84s3.04,.28,4.37,.84c1.33,.55,2.5,1.33,3.49,2.33,.99,1,1.76,2.16,2.3,3.49,.55,1.33,.82,2.77,.82,4.31s-.27,3-.8,4.33c-.53,1.33-1.28,2.5-2.27,3.51-.98,1-2.15,1.78-3.49,2.34-1.34,.55-2.81,.84-4.43,.84s-3.14-.28-4.49-.84c-1.35-.56-2.51-1.33-3.48-2.34s-1.72-2.17-2.25-3.51c-.52-1.33-.79-2.77-.79-4.33"/>
  <path class="cls-1" d="M145.61,185.64h2.14c.86,0,1.62-.21,2.27-.62,.65-.42,.98-1.16,.98-2.22s-.32-1.79-.96-2.21c-.64-.41-1.39-.62-2.26-.62h-2.17v5.67Zm-4.85-9.46h8.73c1.25,0,2.35,.26,3.33,.77,.98,.51,1.74,1.26,2.31,2.22,.57,.97,.85,2.12,.85,3.46s-.24,2.44-.72,3.29c-.48,.85-1.06,1.49-1.73,1.91-.67,.43-1.29,.68-1.86,.76l5.21,8.79h-5.45l-4.64-8.42h-1.17v8.42h-4.85v-21.21h0Z"/>
  <path class="cls-1" d="M168.02,188.91h5.01l-2.48-6.96h-.05l-2.48,6.96Zm.08-12.74h4.82l8.46,21.21h-5.18l-1.56-4.26h-8.24l-1.57,4.26h-5.19l8.47-21.21Z"/>
  <polygon class="cls-1" points="189.04 180.58 189.4 180.64 189.4 197.38 184.54 197.38 184.54 176.17 191.16 176.17 199.85 192.89 199.49 192.95 199.49 176.17 204.35 176.17 204.35 197.38 197.69 197.38 189.04 180.58"/>
  <rect class="cls-1" x="209.65" y="176.17" width="4.85" height="21.21"/>
  <path class="cls-1" d="M226.58,188.91h5.01l-2.48-6.96h-.05l-2.48,6.96Zm.08-12.74h4.82l8.46,21.21h-5.18l-1.56-4.26h-8.24l-1.57,4.26h-5.19l8.47-21.21Z"/>
  <rect class="cls-1" y="149.98" width="354.56" height=".59"/>
  <polygon class="cls-1" points="312.92 124.19 316.02 124.19 316.02 116.09 325.02 103.56 321.25 103.56 314.5 113.12 307.78 103.56 303.92 103.56 312.92 116.11 312.92 124.19"/>
  <polygon class="cls-1" points="36.22 124.19 39.32 124.19 39.32 106.53 46 106.53 46 103.56 29.54 103.56 29.54 106.53 36.22 106.53 36.22 124.19"/>
  <polygon class="cls-1" points="64.67 115.31 75.23 115.31 75.23 124.19 78.34 124.19 78.34 103.56 75.23 103.56 75.23 112.33 64.67 112.33 64.67 103.56 61.56 103.56 61.56 124.19 64.67 124.19 64.67 115.31"/>
  <polygon class="cls-1" points="110.68 121.22 98.35 121.22 98.35 115.28 109.31 115.28 109.31 112.3 98.35 112.3 98.35 106.53 110.55 106.53 110.55 103.56 95.24 103.56 95.24 124.19 110.68 124.19 110.68 121.22"/>
  <polygon class="cls-1" points="158.26 124.32 167.42 103.56 164.07 103.56 157.11 119.7 150.18 103.56 146.75 103.56 155.9 124.32 158.26 124.32"/>
  <path class="cls-1" d="M192.68,115.94h-7.47l3.75-8.12,3.72,8.12Zm-14.61,8.25h3.34l2.44-5.31h10.21l2.44,5.31h3.42l-9.69-20.77h-2.44l-9.7,20.77Z"/>
  <polygon class="cls-1" points="229.21 121.22 217.97 121.22 217.97 103.56 214.86 103.56 214.86 124.19 229.21 124.19 229.21 121.22"/>
  <polygon class="cls-1" points="259.09 121.22 247.85 121.22 247.85 103.56 244.74 103.56 244.74 124.19 259.09 124.19 259.09 121.22"/>
  <polygon class="cls-1" points="290.06 121.22 277.74 121.22 277.74 115.28 288.7 115.28 288.7 112.3 277.74 112.3 277.74 106.53 289.93 106.53 289.93 103.56 274.62 103.56 274.62 124.19 290.06 124.19 290.06 121.22"/>
  <polygon class="cls-1" points="176.67 43.73 162.91 10.42 150.53 10.42 170.25 58.11 176.67 43.73"/>
  <polygon class="cls-1" points="174.24 67.74 204.04 0 201.87 0 173.19 65.2 174.24 67.74"/>
  <polygon class="cls-1" points="312.92 124.19 316.02 124.19 316.02 116.09 325.02 103.56 321.25 103.56 314.5 113.12 307.78 103.56 303.92 103.56 312.92 116.11 312.92 124.19"/>
  <polygon class="cls-1" points="36.22 124.19 39.32 124.19 39.32 106.53 46 106.53 46 103.56 29.54 103.56 29.54 106.53 36.22 106.53 36.22 124.19"/>
  <polygon class="cls-1" points="64.67 115.31 75.23 115.31 75.23 124.19 78.34 124.19 78.34 103.56 75.23 103.56 75.23 112.33 64.67 112.33 64.67 103.56 61.56 103.56 61.56 124.19 64.67 124.19 64.67 115.31"/>
  <polygon class="cls-1" points="110.68 121.22 98.35 121.22 98.35 115.28 109.31 115.28 109.31 112.3 98.35 112.3 98.35 106.53 110.55 106.53 110.55 103.56 95.24 103.56 95.24 124.19 110.68 124.19 110.68 121.22"/>
  <polygon class="cls-1" points="158.26 124.32 167.42 103.56 164.07 103.56 157.11 119.7 150.18 103.56 146.75 103.56 155.9 124.32 158.26 124.32"/>
  <path class="cls-1" d="M192.68,115.94h-7.47l3.75-8.12,3.72,8.12Zm-14.61,8.25h3.34l2.44-5.31h10.21l2.44,5.31h3.42l-9.69-20.77h-2.44l-9.7,20.77Z"/>
  <polygon class="cls-1" points="229.21 121.22 217.97 121.22 217.97 103.56 214.86 103.56 214.86 124.19 229.21 124.19 229.21 121.22"/>
  <polygon class="cls-1" points="259.09 121.22 247.85 121.22 247.85 103.56 244.74 103.56 244.74 124.19 259.09 124.19 259.09 121.22"/>
  <polygon class="cls-1" points="290.06 121.22 277.74 121.22 277.74 115.28 288.7 115.28 288.7 112.3 277.74 112.3 277.74 106.53 289.93 106.53 289.93 103.56 274.62 103.56 274.62 124.19 290.06 124.19 290.06 121.22"/>
  <polygon class="cls-1" points="176.67 43.73 162.91 10.42 150.53 10.42 170.25 58.11 176.67 43.73"/>
  <polygon class="cls-1" points="174.24 67.74 204.04 0 201.87 0 173.19 65.2 174.24 67.74"/>
  <rect class="cls-1" y="149.98" width="354.56" height=".59"/>
</svg>