<?xml version="1.0" encoding="UTF-8"?>
<svg id="Capa_1" data-name="Capa 1" xmlns="http://www.w3.org/2000/svg" viewBox="0 0 260.63 79.87">
  <defs>
    <style>
      .cls-1 {
        fill: #85754e;
      }

      .cls-2 {
        fill: none;
        stroke: #85754e;
        stroke-miterlimit: 10;
      }
    </style>
  </defs>
  <g>
    <path class="cls-1" d="M39.58,1.66h1.96V20.8c0,7.28,3.71,10.03,8.77,10.03s8.63-2.75,8.63-10.03V1.66h1.96V20.76c0,8.29-4.49,11.82-10.6,11.82s-10.73-3.53-10.73-11.82V1.66Z"/>
    <path class="cls-1" d="M76.29,1.66c7.06,0,10.2,3.71,10.2,8.77,0,4.58-2.57,7.89-7.76,8.63l8.02,13.21h-2.35l-7.85-13.04h-6.72v13.04h-1.96V1.66h8.42Zm0,1.74h-6.45v14.17h6.54c5.63,0,8.07-3.05,8.07-7.15,0-4.32-2.27-7.02-8.15-7.02Z"/>
    <path class="cls-1" d="M102.07,32.27h-9.72V1.66h9.55c6.41,0,9.24,3.4,9.24,7.59s-2.66,6.41-5.58,7.19c3.49,.61,6.28,3.71,6.28,7.63,0,4.58-3.27,8.2-9.77,8.2Zm-.31-28.87h-7.46V15.57h7.67c4.67,0,7.15-2.36,7.15-6.15,0-3.53-2.27-6.02-7.37-6.02Zm.04,13.87h-7.5v13.3h7.63c4.97,0,7.94-2.53,7.94-6.63s-3.05-6.67-8.07-6.67Z"/>
    <path class="cls-1" d="M134.95,24.42h-14.52l-2.92,7.85h-2.14L126.62,2.36h2.18l11.21,29.92h-2.14l-2.92-7.85Zm-7.24-19.49l-6.67,17.84h13.3l-6.63-17.84Z"/>
    <path class="cls-1" d="M166.83,1.7v30.57h-1.96l-17.97-27.39v27.39h-1.96V1.7h1.96l17.97,27.3V1.7h1.96Z"/>
    <path class="cls-1" d="M191.38,24.42h-14.52l-2.92,7.85h-2.14l11.25-29.92h2.18l11.21,29.92h-2.14l-2.92-7.85Zm-7.24-19.49l-6.67,17.84h13.3l-6.63-17.84Z"/>
    <path class="cls-1" d="M203.98,0h1.96V32.27h-1.96V0Z"/>
    <path class="cls-1" d="M213.14,0h1.96V32.27h-1.96V0Z"/>
    <path class="cls-1" d="M222.3,0h1.96V32.27h-1.96V0Z"/>
  </g>
  <line class="cls-2" y1="47.61" x2="260.63" y2="47.61"/>
  <g>
    <path class="cls-1" d="M3.4,60.62c0-.08,.05-.13,.13-.13H13.89c.08,0,.13,.05,.13,.13v.72c0,.08-.05,.11-.13,.11H6.1c-.08,0-.11,.05-.11,.13v7.31c0,.08,.03,.13,.11,.13h6.14c.08,0,.13,.03,.13,.11v.72c0,.08-.05,.13-.13,.13H6.12c-.08,0-.13,.03-.13,.11v7.98c0,.08,.05,.13,.13,.13h7.77c.08,0,.13,.03,.13,.11v.72c0,.08-.05,.13-.13,.13H3.53c-.08,0-.13-.05-.13-.13v-18.42Z"/>
    <path class="cls-1" d="M23.66,74.69c0-3.87,.03-10.97,.03-14.1,0-.08,.03-.11,.11-.11h2.4s.08,.03,.11,.08l6.81,15.46c.03,.08,.19,.08,.21,0l6.97-15.46c0-.05,.03-.08,.11-.08h2.43c.08,0,.13,.05,.13,.13v18.42c0,.08-.05,.13-.13,.13h-2.35c-.08,0-.11-.05-.11-.13v-15.72c0-.13-.16-.16-.24-.05l-7.13,15.83c-.03,.05-.08,.08-.11,.08h-1.15c-.05,0-.08-.03-.11-.08l-6.78-15.46c-.08-.13-.24-.08-.24,.03v15.38c0,.08-.03,.13-.11,.13h-.72c-.08,0-.13-.05-.13-.13v-4.35Z"/>
    <path class="cls-1" d="M55.96,69.7c.75-2.14,1.55-4.32,2.38-6.7l.85-2.43c0-.05,.03-.08,.11-.08h2.38c.05,0,.11,.03,.13,.08l2.99,8.65c1.36,3.92,2.78,8.01,3.42,9.8,.03,.11-.03,.16-.11,.16h-2.51c-.08,0-.11-.03-.11-.08-.85-2.4-2.48-7.21-2.7-7.85-.03-.05-.08-.08-.13-.08h-6.11c-.08,0-.11,.03-.13,.08l-2.78,7.85c0,.05-.03,.08-.11,.08h-.77c-.11,0-.13-.05-.11-.16l3.31-9.32Zm6.27,.53c.08,0,.13-.05,.11-.16l-2.59-7.5c-.08-.11-.16-.11-.24,0l-2.64,7.5c-.03,.11,0,.16,.11,.16h5.26Z"/>
    <path class="cls-1" d="M80.23,69.7c.75-2.14,1.55-4.32,2.38-6.7l.85-2.43c0-.05,.03-.08,.11-.08h2.38c.05,0,.11,.03,.13,.08l2.99,8.65c1.36,3.92,2.78,8.01,3.42,9.8,.03,.11-.03,.16-.11,.16h-2.51c-.08,0-.11-.03-.11-.08-.85-2.4-2.48-7.21-2.7-7.85-.03-.05-.08-.08-.13-.08h-6.11c-.08,0-.11,.03-.13,.08l-2.78,7.85c0,.05-.03,.08-.11,.08h-.77c-.11,0-.13-.05-.11-.16l3.31-9.32Zm6.27,.53c.08,0,.13-.05,.11-.16l-2.59-7.5c-.08-.11-.16-.11-.24,0l-2.64,7.5c-.03,.11,0,.16,.11,.16h5.26Z"/>
    <path class="cls-1" d="M102.2,60.62c0-.08,.03-.13,.11-.13h6.33c3.12,0,7.16,.77,7.16,4.7s-3.71,4.65-6.91,4.73c-.11,0-.16,.11-.08,.19l2.96,3.82,2.67,3.55c1.15,1.47,1.84,1.87,2.88,1.95,.08,0,.13,.03,.13,.11v.21c0,.08-.05,.13-.13,.13h-1.84c-.8,0-1.36,.03-2.72-1.17-.43-.4-1.04-.99-1.82-1.92-1.58-1.79-3.26-3.74-5.66-6.86h-.4c-.08,0-.11,.03-.11,.11v9.02c0,.08-.03,.13-.11,.13h-2.35c-.08,0-.13-.05-.13-.13,0-2.64,.03-9.02,.03-14.02v-4.41Zm2.56,8.2c0,.08,.05,.13,.13,.13h3.26c3.34,0,4.94-1.31,4.94-3.76s-1.66-3.74-4.94-3.74h-3.26c-.08,0-.13,.05-.13,.13v7.23Z"/>
    <path class="cls-1" d="M141.93,74.1c.08-.03,.13,0,.16,.08,.85,2.67,3.23,4.35,6.01,4.35,1.17,0,2.59-.32,3.42-1.2,.61-.61,.88-1.55,.69-2.4-.19-.83-.75-1.52-1.39-2.08-1.09-.99-2.43-1.65-3.74-2.38-1.28-.72-2.59-1.49-3.52-2.64-.96-1.15-1.52-2.62-1.12-4.11,.64-2.32,3.58-3.52,5.82-3.52,2.78,0,4.81,1.76,5.55,4.35,.03,.08,0,.11-.05,.13l-.16,.05c-.08,.03-.13,0-.16-.05-.72-2.14-2.72-3.58-4.97-3.58-1.47,0-3.34,.72-3.68,2.35-.19,.67,.05,1.39,.4,2,.4,.61,.91,1.04,1.44,1.47,1.09,.83,2.3,1.39,3.47,2.03,1.17,.64,2.3,1.36,3.23,2.35,.88,.99,1.52,2.27,1.44,3.63-.11,1.6-1.17,2.99-2.56,3.74-1.04,.56-2.19,.77-3.34,.77-3.52,0-6.33-1.52-7.26-5.07,0-.08,.03-.13,.08-.13,.08-.08,.16-.05,.24-.13Z"/>
    <path class="cls-1" d="M173.99,59.98c5.85,.21,9.72,4.43,9.5,10.12-.21,5.66-4.32,9.56-10.22,9.34-5.87-.21-9.74-4.49-9.53-10.12,.21-5.55,4.3-9.56,10.25-9.34Zm6.51,11.72c.43-5.87-1.74-10.33-6.62-10.84-3.63-.35-6.78,2.22-7.34,7.08-.64,5.05,1.74,10.2,6.65,10.76,3.6,.43,7.02-2.14,7.32-6.99Z"/>
    <path class="cls-1" d="M195.93,60.49c.08,0,.11,.05,.11,.13v11.35c0,4.7,2.19,6.54,5.05,6.54,3.02,0,5.26-2.19,5.26-6.57v-11.32c0-.08,.03-.13,.11-.13h.72c.08,0,.13,.05,.13,.13v11.11c0,5.23-2.83,7.72-6.75,7.72s-7.1-2.35-7.1-7.82v-11c0-.08,.05-.13,.13-.13h2.35Z"/>
    <path class="cls-1" d="M216.94,60.62c0-.08,.03-.13,.11-.13h3.47c2.88,0,10.04,.05,12.41,.05,.08,.03,.13,.08,.13,.13v.59c0,.08-.05,.11-.13,.11h-6.54c-.08,0-.13,.03-.13,.11,0,3.55,.03,13.21,.03,17.41v.16c0,.08-.03,.13-.11,.13h-2.35c-.08,0-.13-.05-.13-.13v-17.54c0-.08-.03-.13-.11-.13h-6.54c-.08,0-.11-.03-.11-.11v-.64Z"/>
    <path class="cls-1" d="M242.7,60.62c0-.08,.05-.13,.13-.13h2.35c.08,0,.11,.05,.11,.13v8.38c0,.08,.05,.13,.13,.13h9.08c.08,0,.13-.05,.13-.13v-8.38c0-.08,.03-.13,.11-.13h2.35c.08,0,.13,.05,.13,.13v18.42c0,.08-.05,.13-.13,.13h-2.35c-.08,0-.11-.05-.11-.13v-8.84c0-.08-.05-.11-.13-.11h-9.08c-.08,0-.13,.03-.13,.11v8.84c0,.08-.03,.13-.11,.13h-2.35c-.08,0-.13-.05-.13-.13v-18.42Z"/>
  </g>
</svg>