<?xml version="1.0" encoding="UTF-8"?>
<svg id="Capa_1" data-name="Capa 1" xmlns="http://www.w3.org/2000/svg" viewBox="0 0 599.38 120.62">
  <defs>
    <style>
      .cls-1 {
        fill: #85754e;
      }
    </style>
  </defs>
  <path class="cls-1" d="M119.79,117.11c-1.28,1.44-3.33,2.17-6.07,2.17h-2.66v-16.6l2.54,.02c1.43,0,2.69,.19,3.72,.56,1.03,.38,1.89,.92,2.54,1.62,.66,.7,1.16,1.58,1.48,2.59,.32,1.02,.48,2.21,.48,3.52-.06,2.61-.74,4.66-2.03,6.1m1.89-12.97c-.93-.77-2.08-1.36-3.42-1.77-1.34-.41-2.88-.61-4.58-.61h-5.41v18.57h5.41c1.65,0,3.19-.23,4.58-.67,1.34-.43,2.49-1.06,3.42-1.88,.93-.81,1.65-1.82,2.15-2.99,.5-1.17,.75-2.51,.75-4s-.25-2.7-.75-3.81c-.5-1.12-1.22-2.08-2.15-2.85"/>
  <path class="cls-1" d="M148.65,101.76h-.17v11.45c0,.89-.15,1.71-.45,2.43-.28,.75-.69,1.38-1.2,1.9-.52,.52-1.16,.93-1.89,1.21-.73,.29-1.56,.43-2.46,.43s-1.61-.13-2.21-.4c-.61-.27-1.11-.65-1.51-1.16-.4-.51-.69-1.12-.88-1.82-.19-.71-.28-1.5-.28-2.34v-11.71h-2.82v12c0,.98,.19,1.89,.56,2.7,.37,.81,.9,1.52,1.58,2.13,.67,.59,1.49,1.06,2.43,1.41,.94,.34,1.99,.51,3.11,.51,1.04,0,2-.18,2.86-.54,.86-.36,1.62-.87,2.25-1.51,.63-.65,1.12-1.43,1.46-2.33,.34-.89,.53-1.86,.54-2.87v-11.48h-.95Z"/>
  <polygon class="cls-1" points="193.08 101.84 193.03 101.73 192.92 101.73 190.04 101.73 189.78 101.73 189.88 101.97 190.95 104.37 184.2 120.1 184.1 120.33 184.36 120.33 185.11 120.33 185.22 120.33 185.27 120.23 187.85 114.1 193.25 114.1 193.52 114.1 193.41 113.86 193.15 113.31 193.1 113.22 192.99 113.22 188.22 113.22 191.54 105.32 198.15 120.23 198.2 120.33 198.31 120.33 200.93 120.33 201.19 120.33 201.09 120.1 193.08 101.84"/>
  <polygon class="cls-1" points="213.38 101.76 210.93 101.76 210.76 101.76 210.76 101.93 210.76 120.16 210.76 120.33 210.93 120.33 213.38 120.33 213.55 120.33 213.55 120.16 213.55 101.93 213.55 101.76 213.38 101.76"/>
  <polygon class="cls-1" points="254.51 101.76 254.34 101.76 254.34 101.93 254.34 110.35 246.99 110.35 246.82 110.35 246.82 110.51 246.82 111.06 246.82 111.23 246.99 111.23 254.34 111.23 254.34 120.16 254.34 120.33 254.51 120.33 256.96 120.33 257.14 120.33 257.14 120.16 257.14 101.93 257.14 101.76 256.96 101.76 254.51 101.76"/>
  <polygon class="cls-1" points="244.95 101.76 242.49 101.76 242.32 101.76 242.32 101.93 242.32 120.16 242.32 120.33 242.49 120.33 244.95 120.33 245.11 120.33 245.11 120.16 245.11 101.93 245.11 101.76 244.95 101.76"/>
  <polygon class="cls-1" points="270.97 101.76 268.52 101.76 268.35 101.76 268.35 101.93 268.35 120.16 268.35 120.33 268.52 120.33 270.97 120.33 271.14 120.33 271.14 120.16 271.14 101.93 271.14 101.76 270.97 101.76"/>
  <polygon class="cls-1" points="285.12 119.45 285.12 101.93 285.12 101.76 284.95 101.76 282.5 101.76 282.33 101.76 282.33 101.93 282.33 120.16 282.33 120.33 282.5 120.33 294.52 120.33 294.69 120.33 294.69 120.16 294.69 119.61 294.69 119.45 294.52 119.45 285.12 119.45"/>
  <polygon class="cls-1" points="307.03 119.45 307.03 101.93 307.03 101.76 306.86 101.76 304.4 101.76 304.24 101.76 304.24 101.93 304.24 120.16 304.24 120.33 304.4 120.33 316.42 120.33 316.6 120.33 316.6 120.16 316.6 119.61 316.6 119.45 316.42 119.45 307.03 119.45"/>
  <path class="cls-1" d="M338.19,112c-.54-.53-1.26-1.01-2.15-1.41-.87-.4-1.92-.76-3.23-1.1-1.24-.3-2.23-.6-2.95-.88-.73-.3-1.31-.59-1.71-.87-.39-.27-.67-.54-.82-.78-.16-.25-.26-.51-.31-.78-.07-.43,0-.86,.2-1.3,.2-.45,.54-.86,.99-1.21,.46-.35,1.02-.65,1.68-.88,.66-.23,1.39-.35,2.18-.35,1.09,0,2.03,.26,2.78,.78,.73,.49,1.52,1.25,2.32,2.26l.09,.12,.13-.08,1.41-.86,.17-.1-.13-.15c-.84-1.03-1.82-1.79-2.92-2.25-1.09-.45-2.39-.7-3.87-.74h0c-.93,0-1.83,.12-2.66,.35-.84,.24-1.58,.58-2.2,1.02-.62,.44-1.14,.96-1.53,1.55-.39,.6-.61,1.25-.68,1.95-.06,.71,.02,1.38,.24,1.99,.22,.62,.62,1.2,1.18,1.72,.55,.52,1.31,1,2.26,1.43,.93,.42,2.09,.82,3.44,1.19,1.15,.3,2.11,.59,2.84,.86,.73,.27,1.27,.54,1.66,.81,.38,.26,.63,.56,.75,.87,.13,.32,.17,.69,.13,1.13-.06,.97-.54,1.74-1.47,2.37-.93,.63-2.23,.95-3.87,.95-1.07,0-2.09-.37-3.02-1.11-.95-.75-1.76-1.62-2.4-2.57l-.09-.13-.13,.07-1.55,.83-.16,.09,.09,.15c.62,.99,1.58,1.87,2.84,2.6,1.26,.73,2.75,1.1,4.42,1.1,.97,0,1.89-.12,2.74-.35,.86-.24,1.62-.57,2.25-.99,.65-.42,1.19-.93,1.59-1.51,.41-.58,.65-1.23,.74-1.93,.08-.77,.02-1.47-.2-2.1-.2-.62-.58-1.21-1.12-1.75"/>
  <polygon class="cls-1" points="370.23 119.45 370.23 110.08 377.04 110.08 377.21 110.08 377.21 109.91 377.21 109.4 377.21 109.23 377.04 109.23 370.23 109.23 370.23 102.65 379.11 102.65 379.28 102.65 379.28 102.48 379.28 101.93 379.28 101.76 379.11 101.76 367.61 101.76 367.44 101.76 367.44 101.93 367.44 120.16 367.44 120.33 367.61 120.33 379.63 120.33 379.8 120.33 379.8 120.16 379.8 119.61 379.8 119.45 379.63 119.45 370.23 119.45"/>
  <path class="cls-1" d="M401.54,112c-.54-.53-1.26-1.01-2.15-1.41-.87-.4-1.92-.76-3.23-1.1-1.24-.3-2.23-.6-2.95-.88-.73-.3-1.31-.59-1.71-.87-.39-.27-.67-.54-.82-.78-.16-.25-.26-.51-.31-.78-.07-.43,0-.86,.2-1.3,.21-.45,.54-.86,.99-1.21,.46-.35,1.02-.65,1.68-.88,.66-.23,1.39-.35,2.18-.35,1.09,0,2.03,.26,2.78,.78,.73,.49,1.52,1.25,2.32,2.26l.09,.12,.13-.08,1.41-.86,.17-.1-.13-.15c-.84-1.03-1.82-1.79-2.92-2.25-1.09-.45-2.39-.7-3.87-.74h0c-.93,0-1.83,.12-2.66,.35-.84,.24-1.58,.58-2.2,1.02-.62,.44-1.14,.96-1.53,1.55-.39,.6-.61,1.25-.68,1.95-.06,.71,.02,1.38,.24,1.99,.22,.62,.62,1.2,1.18,1.72,.55,.52,1.31,1,2.26,1.43,.93,.42,2.09,.82,3.44,1.19,1.15,.3,2.11,.59,2.84,.86,.73,.27,1.27,.54,1.66,.81,.38,.26,.62,.56,.75,.87,.13,.32,.17,.69,.13,1.13-.06,.97-.54,1.74-1.47,2.37-.93,.63-2.24,.95-3.87,.95-1.07,0-2.09-.37-3.02-1.11-.95-.75-1.76-1.62-2.4-2.57l-.09-.13-.13,.07-1.55,.83-.16,.09,.09,.15c.62,.99,1.58,1.87,2.84,2.6,1.26,.73,2.75,1.1,4.42,1.1,.97,0,1.89-.12,2.74-.35,.86-.24,1.62-.57,2.25-.99,.65-.42,1.19-.93,1.59-1.51,.41-.58,.65-1.23,.74-1.93,.08-.77,.01-1.47-.2-2.1-.2-.62-.58-1.21-1.12-1.75"/>
  <polygon class="cls-1" points="411.39 101.76 411.22 101.76 411.22 101.93 411.22 102.48 411.22 102.65 411.39 102.65 417.39 102.65 417.39 120.16 417.39 120.33 417.56 120.33 420.04 120.33 420.21 120.33 420.21 120.16 420.21 102.65 426.21 102.65 426.38 102.65 426.38 102.48 426.38 101.93 426.38 101.76 426.21 101.76 411.39 101.76"/>
  <polygon class="cls-1" points="454.2 101.76 454.02 101.76 454.02 101.93 454.02 102.48 454.02 102.65 454.2 102.65 460.19 102.65 460.19 120.16 460.19 120.33 460.36 120.33 462.84 120.33 463.01 120.33 463.01 120.16 463.01 102.65 469.01 102.65 469.18 102.65 469.18 102.48 469.18 101.93 469.18 101.76 469.01 101.76 454.2 101.76"/>
  <polygon class="cls-1" points="490.94 119.45 481.54 119.45 481.54 110.08 488.35 110.08 488.52 110.08 488.52 109.91 488.52 109.4 488.52 109.23 488.35 109.23 481.54 109.23 481.54 102.65 490.43 102.65 490.6 102.65 490.6 102.48 490.6 101.93 490.6 101.76 490.43 101.76 478.92 101.76 478.75 101.76 478.75 101.93 478.75 120.16 478.75 120.33 478.92 120.33 490.94 120.33 491.11 120.33 491.11 120.16 491.11 119.61 491.11 119.45 490.94 119.45"/>
  <polygon class="cls-1" points="440.67 101.84 440.64 101.73 440.53 101.73 437.64 101.73 437.4 101.73 437.5 101.97 438.56 104.38 431.81 120.1 431.71 120.33 431.98 120.33 432.73 120.33 432.83 120.33 432.87 120.23 435.46 114.09 441.27 114.09 440.83 113.21 435.83 113.21 439.14 105.33 445.74 120.23 445.81 120.33 445.92 120.33 448.54 120.33 448.81 120.33 448.71 120.1 440.67 101.84"/>
  <polygon class="cls-1" points="120.7 .83 113.74 .83 113.74 52.7 147.93 52.7 147.93 51.15 120.7 51.15 120.7 .83"/>
  <polygon class="cls-1" points="34.19 25.25 10.93 25.25 10.93 26.8 34.19 26.8 34.19 52.69 41.16 52.69 41.16 .83 34.19 .83 34.19 25.25"/>
  <polygon class="cls-1" points="182.96 .83 175.99 .83 175.99 52.7 210.19 52.7 210.19 51.15 182.96 51.15 182.96 .83"/>
  <rect class="cls-1" y=".83" width="6.97" height="51.86"/>
  <path class="cls-1" d="M271.6,29.95l.13-.13c-1.48-1.48-3.48-2.76-6-3.92-2.45-1.16-5.48-2.19-9.1-3.09-3.55-.9-6.39-1.73-8.45-2.51-2.13-.9-3.81-1.73-4.97-2.51-1.16-.84-2-1.61-2.45-2.38-.45-.77-.77-1.54-.97-2.38-.19-1.28,0-2.63,.65-3.98s1.61-2.57,2.97-3.6c1.36-1.03,2.97-1.86,4.9-2.57,1.93-.71,4.06-1.03,6.32-1.03,3.22,0,5.93,.77,8.19,2.31,2.13,1.41,4.39,3.6,6.71,6.56l4-2.44c-2.32-2.89-5.03-4.95-8.13-6.23-3.03-1.28-6.64-1.99-10.84-2.06-2.64,0-5.1,.32-7.42,.96-2.32,.64-4.32,1.61-6.13,2.83-1.74,1.22-3.16,2.64-4.19,4.31s-1.68,3.4-1.87,5.33c-.19,1.93,0,3.79,.65,5.46,.58,1.67,1.68,3.28,3.23,4.69,1.55,1.42,3.68,2.77,6.32,3.99,2.64,1.22,5.87,2.31,9.74,3.34,3.36,.9,6,1.67,8.13,2.44,2.06,.77,3.68,1.54,4.84,2.38,1.16,.83,1.94,1.73,2.32,2.7,.39,.96,.52,2.12,.39,3.4-.2,2.89-1.62,5.27-4.39,7.13-2.77,1.86-6.52,2.76-11.29,2.76-3.16,0-6.13-1.09-8.9-3.28-2.77-2.18-5.1-4.63-6.9-7.46l-4.45,2.38c1.74,2.76,4.39,5.2,7.94,7.19,3.55,1.99,7.61,3.09,12.32,3.09,2.71,0,5.29-.32,7.68-.97,2.39-.64,4.45-1.54,6.26-2.76,1.81-1.16,3.29-2.57,4.39-4.18,1.1-1.61,1.81-3.34,2-5.27,.19-2.12,0-4.05-.52-5.78-.52-1.74-1.61-3.28-3.1-4.76"/>
  <rect class="cls-1" x="74" y=".83" width="6.97" height="51.86"/>
  <rect class="cls-1" x="552.88" y=".83" width="6.97" height="51.86"/>
  <polygon class="cls-1" points="569.97 23.39 591.9 .84 589.58 .84 563.77 26.8 589.97 52.69 599.38 52.69 569.97 23.39"/>
  <polygon class="cls-1" points="419.14 .77 422.24 7.78 403.02 52.7 405.15 52.7 412.63 34.96 430.82 34.96 430.11 33.41 413.27 33.41 423.4 9.25 442.69 52.7 450.11 52.7 427.34 .77 419.14 .77"/>
  <path class="cls-1" d="M381.4,10.67c-1.16-2.06-2.84-3.86-5.03-5.33h-.06c-2.19-1.48-4.84-2.57-7.94-3.34-3.1-.77-6.64-1.16-10.65-1.16h-14.9V52.69h6.97V2.25h7.68c6.64,.13,11.55,1.54,14.77,4.24,3.16,2.7,4.78,6.55,4.78,11.5-.19,4.95-1.87,8.8-5.03,11.57-3.1,2.76-7.81,4.18-14.19,4.18h-4.03v1.48h3.96c4,0,7.55-.39,10.65-1.16,3.1-.77,5.81-1.93,8-3.47,2.19-1.54,3.87-3.34,5.03-5.52,1.16-2.12,1.74-4.63,1.74-7.39s-.58-4.95-1.74-7.01"/>
  <path class="cls-1" d="M522.3,50.89c-1.9-.02-3.48-.9-3.48-.9-1.22-.64-2.45-1.61-3.74-2.96-1.29-1.35-2.39-2.51-3.22-3.54-.84-1.03-1.94-2.31-3.29-4.05-.32-.45-.9-1.16-1.16-1.48-2.45-2.9-4.26-4.44-4.64-4.76-.6-.5-1.49-1.33-3.93-2.38,5.81-.26,10.32-1.73,13.55-4.43,3.23-2.7,4.84-6.23,4.84-10.8s-1.8-8.29-5.42-10.92c-3.61-2.57-8.71-3.85-15.36-3.85h-17.87V52.69h6.97V30.91h0v-1.54h0V2.25h10.58c2.65,.06,4.9,.39,6.71,1.03,1.81,.64,3.29,1.48,4.39,2.63,1.1,1.1,1.94,2.51,2.39,4.11,.45,1.61,.71,3.53,.71,5.65s-.32,4.11-.84,5.85c-.51,1.73-1.36,3.15-2.45,4.3-1.1,1.16-2.45,2.06-4.19,2.64-1.68,.58-3.81,.9-6.32,.9h-7v1.62c2.2,.19,4.01,1.99,6.93,5.45l9.16,10.47,.32,.39s.32,.32,.39,.39c2.97,3.34,6.97,4.95,12.07,4.95h5.87v-1.73h-1.94Z"/>
  <path class="cls-1" d="M172.34,116.8c-.16,.52-.42,.97-.78,1.34-.36,.37-.84,.65-1.41,.83-.59,.19-1.33,.28-2.21,.28h-4.59v-16.54l3.55,.03c.67,0,1.25,.07,1.71,.22,.45,.14,.82,.35,1.1,.62,.28,.27,.48,.61,.6,1.02,.15,.46,.23,.94,.23,1.41,0,.63-.09,1.2-.25,1.7-.17,.49-.37,.88-.6,1.15-.24,.27-.51,.5-.8,.67-.3,.17-.57,.29-.79,.34-.23,.06-.44,.08-.64,.08h-2.19v.89h2.19c.19,0,.42,.01,.67,.04,.25,.03,.58,.08,1.04,.17,.42,.08,.82,.23,1.19,.43,.38,.2,.76,.45,1.12,.73,.34,.27,.61,.65,.81,1.13,.2,.49,.31,1.04,.31,1.64,0,.69-.08,1.3-.24,1.83m-4.26,3.37s-.1,0-.15,0c.13,0,.23-.02,.35-.02-.07,0-.13,.02-.2,.02m5.63-8.49c-.88-.7-2.06-1.21-3.53-1.53,.77-.32,1.4-.75,1.88-1.28,.6-.67,.94-1.5,.99-2.47v-.39c-.1-1.32-.7-2.36-1.79-3.11-1.07-.73-2.54-1.12-4.37-1.14h-6.34v18.57h7.53c2.18,0,3.92-.43,5.19-1.28,1.31-.88,2.01-2.17,2.09-3.82v-.41c-.08-1.28-.64-2.34-1.65-3.15"/>
</svg>