<?xml version="1.0" encoding="UTF-8"?>
<svg id="Capa_1" data-name="Capa 1" xmlns="http://www.w3.org/2000/svg" viewBox="0 0 318.75 105.9">
  <defs>
    <style>
      .cls-1 {
        fill: #85754e;
      }
    </style>
  </defs>
  <polygon class="cls-1" points="89.41 92.02 91.32 92.02 120.17 19.19 149.05 92.02 161.9 92.02 125.63 .58 89.41 92.02"/>
  <polygon class="cls-1" points="239.1 2.14 239.13 2.07 226.17 2.07 199.83 66.17 173.53 0 171.61 0 198.67 68.49 198.79 68.53 189.51 92.19 202.98 92.19 239.23 2.14 239.1 2.14"/>
  <polygon class="cls-1" points="282.48 .58 246.26 92.02 248.17 92.02 277.02 19.19 305.9 92.02 318.75 92.02 282.48 .58"/>
  <path class="cls-1" d="M22.14,49.94h25.44c13.79,0,24.96-10.56,24.96-23.59S61.37,2.77,47.59,2.77H0V91.96H11.7V4.8h25.49c12.01,0,22.09,9.46,22.47,20.8,0,.25,.01,.5,.01,.76s0,.51-.01,.76c-.38,11.34-10.46,20.94-22.47,20.94H14.46c4.27,2.83,10.41,6.73,16.54,13.59,5.42,6.06,7.81,10.5,10.43,14.4,7.68,11.45,20.51,23.73,33.37,27.79,11.22,3.54,25.2,2.93,43.7-4.92-52.02,20.47-58.42-37.08-96.35-48.97"/>
</svg>