<?xml version="1.0" encoding="UTF-8"?>
<svg id="Capa_1" data-name="Capa 1" xmlns="http://www.w3.org/2000/svg" viewBox="0 0 353.77 124.82">
  <defs>
    <style>
      .cls-1 {
        fill: #85754e;
      }

      .cls-2 {
        fill: none;
        stroke: #85754e;
        stroke-miterlimit: 10;
      }
    </style>
  </defs>
  <g>
    <path class="cls-1" d="M53.72,8.76h2.66v25.98c0,9.88,5.03,13.61,11.9,13.61s11.72-3.73,11.72-13.61V8.76h2.66v25.92c0,11.25-6.1,16.04-14.38,16.04s-14.56-4.79-14.56-16.04V8.76Z"/>
    <path class="cls-1" d="M103.56,8.76c9.59,0,13.85,5.03,13.85,11.9,0,6.21-3.49,10.71-10.54,11.72l10.89,17.93h-3.2l-10.65-17.7h-9.12v17.7h-2.66V8.76h11.42Zm0,2.37h-8.76V30.37h8.88c7.63,0,10.95-4.14,10.95-9.71,0-5.86-3.08-9.53-11.07-9.53Z"/>
    <path class="cls-1" d="M138.54,50.31h-13.2V8.76h12.96c8.7,0,12.55,4.62,12.55,10.3s-3.61,8.7-7.58,9.77c4.73,.83,8.52,5.03,8.52,10.36,0,6.21-4.44,11.13-13.26,11.13Zm-.41-39.18h-10.12V27.65h10.42c6.33,0,9.71-3.2,9.71-8.35,0-4.79-3.08-8.17-10-8.17Zm.06,18.82h-10.18v18.05h10.36c6.75,0,10.77-3.43,10.77-9s-4.14-9.06-10.95-9.06Z"/>
    <path class="cls-1" d="M183.17,39.66h-19.71l-3.97,10.65h-2.9l15.27-40.6h2.96l15.21,40.6h-2.9l-3.97-10.65Zm-9.83-26.46l-9.06,24.21h18.05l-9-24.21Z"/>
    <path class="cls-1" d="M226.44,8.82V50.31h-2.66l-24.39-37.17V50.31h-2.66V8.82h2.66l24.39,37.05V8.82h2.66Z"/>
    <path class="cls-1" d="M259.77,39.66h-19.71l-3.97,10.65h-2.9l15.27-40.6h2.96l15.21,40.6h-2.9l-3.97-10.65Zm-9.83-26.46l-9.06,24.21h18.05l-9-24.21Z"/>
    <path class="cls-1" d="M276.88,6.51h2.66V50.31h-2.66V6.51Z"/>
    <path class="cls-1" d="M289.31,6.51h2.66V50.31h-2.66V6.51Z"/>
    <path class="cls-1" d="M301.74,6.51h2.66V50.31h-2.66V6.51Z"/>
  </g>
  <line class="cls-2" y1="71.14" x2="353.77" y2="71.14"/>
  <g>
    <path class="cls-1" d="M13.63,107.9c0-5.25,.04-14.89,.04-19.13,0-.11,.04-.14,.15-.14h3.26s.11,.04,.14,.11l9.24,20.98c.04,.11,.25,.11,.29,0l9.46-20.98c0-.07,.04-.11,.14-.11h3.3c.11,0,.18,.07,.18,.18v25.01c0,.11-.07,.18-.18,.18h-3.19c-.11,0-.14-.07-.14-.18v-21.35c0-.18-.22-.22-.33-.07l-9.68,21.49c-.04,.07-.11,.11-.15,.11h-1.56c-.07,0-.11-.04-.15-.11l-9.21-20.98c-.11-.18-.33-.11-.33,.04v20.87c0,.11-.04,.18-.14,.18h-.98c-.11,0-.18-.07-.18-.18v-5.91Z"/>
    <path class="cls-1" d="M57.48,101.12c1.01-2.9,2.1-5.87,3.23-9.1l1.16-3.3c0-.07,.04-.11,.15-.11h3.22c.07,0,.15,.04,.18,.11l4.06,11.74c1.85,5.33,3.77,10.87,4.64,13.3,.04,.14-.04,.22-.14,.22h-3.41c-.11,0-.14-.04-.14-.11-1.16-3.26-3.37-9.79-3.66-10.65-.04-.07-.11-.11-.18-.11h-8.3c-.11,0-.14,.04-.18,.11l-3.77,10.65c0,.07-.04,.11-.14,.11h-1.05c-.15,0-.18-.07-.15-.22l4.49-12.65Zm8.52,.73c.11,0,.18-.07,.14-.22l-3.52-10.18c-.11-.14-.22-.14-.33,0l-3.59,10.18c-.04,.14,0,.22,.14,.22h7.14Z"/>
    <path class="cls-1" d="M90.42,101.12c1.01-2.9,2.1-5.87,3.23-9.1l1.16-3.3c0-.07,.04-.11,.15-.11h3.22c.07,0,.15,.04,.18,.11l4.06,11.74c1.85,5.33,3.77,10.87,4.64,13.3,.04,.14-.04,.22-.14,.22h-3.41c-.11,0-.14-.04-.14-.11-1.16-3.26-3.37-9.79-3.66-10.65-.04-.07-.11-.11-.18-.11h-8.3c-.11,0-.14,.04-.18,.11l-3.77,10.65c0,.07-.04,.11-.14,.11h-1.05c-.15,0-.18-.07-.15-.22l4.49-12.65Zm8.52,.73c.11,0,.18-.07,.14-.22l-3.52-10.18c-.11-.14-.22-.14-.33,0l-3.59,10.18c-.04,.14,0,.22,.14,.22h7.14Z"/>
    <path class="cls-1" d="M120.24,88.8c0-.11,.04-.18,.15-.18h8.59c4.24,0,9.71,1.05,9.71,6.38s-5.04,6.31-9.39,6.41c-.15,0-.22,.15-.11,.25l4.02,5.18,3.62,4.82c1.56,1.99,2.5,2.54,3.91,2.65,.11,0,.18,.04,.18,.15v.29c0,.11-.07,.18-.18,.18h-2.5c-1.09,0-1.85,.04-3.7-1.59-.58-.54-1.41-1.34-2.46-2.61-2.14-2.43-4.42-5.07-7.68-9.31h-.54c-.11,0-.14,.04-.14,.15v12.25c0,.11-.04,.18-.14,.18h-3.19c-.11,0-.18-.07-.18-.18,0-3.59,.04-12.25,.04-19.03v-5.98Zm3.48,11.13c0,.11,.07,.18,.18,.18h4.42c4.53,0,6.7-1.78,6.7-5.11s-2.25-5.07-6.7-5.07h-4.42c-.11,0-.18,.07-.18,.18v9.82Z"/>
    <path class="cls-1" d="M174.16,107.1c.11-.04,.18,0,.22,.11,1.16,3.62,4.38,5.91,8.15,5.91,1.59,0,3.51-.44,4.64-1.63,.83-.83,1.2-2.1,.94-3.26-.25-1.12-1.02-2.07-1.88-2.83-1.49-1.34-3.3-2.25-5.07-3.22-1.74-.98-3.52-2.03-4.78-3.59-1.3-1.56-2.07-3.55-1.52-5.58,.87-3.15,4.86-4.78,7.9-4.78,3.77,0,6.52,2.39,7.54,5.91,.04,.11,0,.15-.07,.18l-.22,.07c-.11,.04-.18,0-.22-.07-.98-2.9-3.7-4.86-6.74-4.86-1.99,0-4.53,.98-5,3.19-.25,.91,.07,1.88,.54,2.72,.54,.83,1.23,1.41,1.96,1.99,1.49,1.12,3.12,1.88,4.71,2.75,1.59,.87,3.12,1.85,4.38,3.19,1.2,1.34,2.07,3.08,1.96,4.93-.14,2.17-1.59,4.06-3.48,5.07-1.41,.76-2.97,1.05-4.53,1.05-4.78,0-8.59-2.07-9.86-6.88,0-.11,.04-.18,.11-.18,.11-.11,.22-.07,.33-.18Z"/>
    <path class="cls-1" d="M217.68,87.93c7.94,.29,13.19,6.02,12.9,13.73-.29,7.68-5.87,12.97-13.88,12.68-7.97-.29-13.23-6.09-12.94-13.73,.29-7.54,5.83-12.97,13.92-12.68Zm8.84,15.91c.58-7.97-2.36-14.03-8.99-14.71-4.93-.47-9.21,3.01-9.97,9.6-.87,6.85,2.36,13.84,9.02,14.6,4.89,.58,9.53-2.9,9.93-9.49Z"/>
    <path class="cls-1" d="M247.47,88.62c.11,0,.14,.07,.14,.18v15.4c0,6.38,2.97,8.88,6.85,8.88,4.09,0,7.14-2.97,7.14-8.92v-15.37c0-.11,.04-.18,.15-.18h.98c.11,0,.18,.07,.18,.18v15.08c0,7.1-3.84,10.47-9.17,10.47s-9.64-3.19-9.64-10.62v-14.93c0-.11,.07-.18,.18-.18h3.19Z"/>
    <path class="cls-1" d="M275.98,88.8c0-.11,.04-.18,.15-.18h4.71c3.91,0,13.63,.07,16.85,.07,.11,.04,.18,.11,.18,.18v.8c0,.11-.07,.14-.18,.14h-8.88c-.11,0-.18,.04-.18,.15,0,4.82,.04,17.94,.04,23.63v.22c0,.11-.04,.18-.14,.18h-3.19c-.11,0-.18-.07-.18-.18v-23.81c0-.11-.04-.18-.15-.18h-8.88c-.11,0-.15-.04-.15-.14v-.87Z"/>
    <path class="cls-1" d="M310.95,88.8c0-.11,.07-.18,.18-.18h3.19c.11,0,.14,.07,.14,.18v11.38c0,.11,.07,.18,.18,.18h12.32c.11,0,.18-.07,.18-.18v-11.38c0-.11,.04-.18,.15-.18h3.19c.11,0,.18,.07,.18,.18v25.01c0,.11-.07,.18-.18,.18h-3.19c-.11,0-.15-.07-.15-.18v-12c0-.11-.07-.14-.18-.14h-12.32c-.11,0-.18,.04-.18,.14v12c0,.11-.04,.18-.14,.18h-3.19c-.11,0-.18-.07-.18-.18v-25.01Z"/>
  </g>
</svg>