<?xml version="1.0" encoding="UTF-8"?>
<svg id="Capa_1" data-name="Capa 1" xmlns="http://www.w3.org/2000/svg" xmlns:xlink="http://www.w3.org/1999/xlink" viewBox="0 0 33.56 42.03">
  <defs>
    <style>
      .cls-1 {
        fill: none;
        stroke: #85754e;
        stroke-miterlimit: 10;
        stroke-width: 1.5px;
      }

      .cls-2 {
        fill: #85754e;
      }

      .cls-3 {
        clip-path: url(#clippath);
      }
    </style>
    <clipPath id="clippath">
      <rect class="cls-1" x="135.8" y="21.01" width="492.74" height="391.4"/>
    </clipPath>
  </defs>
  <path class="cls-2" d="M33.56,14.77v4.39c-.03,.06-.09,.11-.1,.18-.13,.71-.23,1.44-.4,2.14-.52,2.13-1.47,4.06-2.68,5.88-1.17,1.76-2.53,3.38-3.96,4.94-1.15,1.25-2.33,2.47-3.53,3.68-1.15,1.17-2.33,2.31-3.5,3.47-.79,.78-1.57,1.57-2.35,2.35-.06,.06-.11,.15-.16,.22h-.21c-.07-.09-.12-.2-.21-.28-2.81-2.85-5.64-5.69-8.44-8.56-.99-1.02-1.92-2.1-2.84-3.2-1.51-1.8-2.83-3.74-3.76-5.92-.72-1.67-1.2-3.41-1.33-5.23,0-.07-.07-.14-.1-.2,0-1.07,0-2.13,0-3.2,.03-.08,.09-.15,.1-.23,.03-.29,.02-.58,.07-.87,.25-1.47,.64-2.89,1.24-4.26,1.06-2.41,2.61-4.45,4.61-6.15,1.33-1.13,2.82-2.02,4.45-2.66C12.19,.59,13.96,.11,15.83,.1c.06,0,.12-.06,.18-.1,.5,0,1,0,1.5,0,.03,.03,.06,.06,.09,.09,.02-.03,.04-.06,.07-.09,.05,0,.1,0,.15,0,.07,.03,.13,.09,.2,.1,.25,.03,.5,.03,.74,.06,1.39,.14,2.73,.48,4.03,.98,1.99,.75,3.78,1.85,5.34,3.29,1.69,1.55,3.02,3.37,3.97,5.47,.63,1.4,1.07,2.86,1.31,4.37,.03,.17,.1,.34,.15,.51Zm-16.75,7.66c3.07,0,5.58-2.5,5.59-5.57,0-3.09-2.54-5.63-5.61-5.61-3.09,.02-5.58,2.52-5.58,5.58,0,3.11,2.5,5.6,5.61,5.6Z"/>
  <g>
    <g class="cls-3">
      <g>
        <g>
          <circle class="cls-1" cx="627.1" cy="21.01" r="810.45" transform="translate(168.81 449.58) rotate(-45)"/>
          <circle class="cls-1" cx="627.1" cy="21.01" r="673.58" transform="translate(168.81 449.58) rotate(-45)"/>
        </g>
        <path class="cls-1" d="M23.48-389.55c110.31,0,199.74,91.93,199.74,205.33,0,113.4-89.43,205.33-199.74,205.33V-389.55Z"/>
        <path class="cls-1" d="M-181.32-389.55c110.31,0,199.74,91.93,199.74,205.33,0,113.4-89.43,205.33-199.74,205.33"/>
        <rect class="cls-1" x="-185.39" y="-387.51" width="410.66" height="406.58" transform="translate(204.16 -164.29) rotate(-90)"/>
      </g>
    </g>
    <rect class="cls-1" x="135.8" y="21.01" width="492.74" height="391.4"/>
  </g>
</svg>