<?xml version="1.0" encoding="UTF-8"?>
<svg id="Capa_1" data-name="Capa 1" xmlns="http://www.w3.org/2000/svg" xmlns:xlink="http://www.w3.org/1999/xlink" viewBox="0 0 214.71 43.32">
  <defs>
    <style>
      .cls-1 {
        fill: none;
        stroke: #85754e;
        stroke-miterlimit: 10;
        stroke-width: 1.5px;
      }

      .cls-2 {
        fill: #85754e;
      }

      .cls-3 {
        clip-path: url(#clippath);
      }
    </style>
    <clipPath id="clippath">
      <rect class="cls-1" x="278.65" y="237.19" width="492.74" height="391.4"/>
    </clipPath>
  </defs>
  <g>
    <g class="cls-3">
      <g>
        <g>
          <circle class="cls-1" cx="769.94" cy="237.19" r="810.45" transform="translate(57.79 613.9) rotate(-45)"/>
          <circle class="cls-1" cx="769.94" cy="237.19" r="673.58" transform="translate(57.79 613.9) rotate(-45)"/>
        </g>
        <path class="cls-1" d="M166.32-173.38c110.31,0,199.74,91.93,199.74,205.33,0,113.4-89.43,205.33-199.74,205.33V-173.38Z"/>
        <path class="cls-1" d="M-38.48-173.38c110.31,0,199.74,91.93,199.74,205.33,0,113.4-89.43,205.33-199.74,205.33"/>
        <rect class="cls-1" x="-42.55" y="-171.34" width="410.66" height="406.58" transform="translate(130.83 194.72) rotate(-90)"/>
      </g>
    </g>
    <rect class="cls-1" x="278.65" y="237.19" width="492.74" height="391.4"/>
  </g>
  <g>
    <g>
      <circle class="cls-2" cx="209.69" cy="5.02" r="5.02" transform="translate(75.18 165.96) rotate(-51.48)"/>
      <circle class="cls-2" cx="209.69" cy="38.3" r="5.02" transform="translate(49.14 178.52) rotate(-51.48)"/>
    </g>
    <g>
      <circle class="cls-2" cx="180.45" cy="5.02" r="5.02" transform="translate(64.15 143.09) rotate(-51.48)"/>
      <circle class="cls-2" cx="180.45" cy="38.3" r="5.02" transform="translate(38.11 155.64) rotate(-51.48)"/>
    </g>
    <g>
      <circle class="cls-2" cx="151.21" cy="5.02" r="5.02" transform="translate(53.12 120.21) rotate(-51.48)"/>
      <circle class="cls-2" cx="151.21" cy="38.3" r="5.02" transform="translate(27.08 132.77) rotate(-51.48)"/>
    </g>
    <g>
      <circle class="cls-2" cx="121.97" cy="5.02" r="5.02" transform="translate(42.09 97.33) rotate(-51.48)"/>
      <circle class="cls-2" cx="121.97" cy="38.3" r="5.02" transform="translate(16.05 109.89) rotate(-51.48)"/>
    </g>
    <g>
      <circle class="cls-2" cx="92.74" cy="5.02" r="5.02" transform="translate(31.06 74.45) rotate(-51.48)"/>
      <circle class="cls-2" cx="92.74" cy="38.3" r="5.02" transform="translate(5.02 87.01) rotate(-51.48)"/>
    </g>
    <g>
      <circle class="cls-2" cx="63.5" cy="5.02" r="5.02" transform="translate(20.03 51.58) rotate(-51.48)"/>
      <circle class="cls-2" cx="63.5" cy="38.3" r="5.02" transform="translate(-6.02 64.13) rotate(-51.48)"/>
    </g>
    <g>
      <circle class="cls-2" cx="34.26" cy="5.02" r="5.02" transform="translate(9 28.7) rotate(-51.48)"/>
      <circle class="cls-2" cx="34.26" cy="38.3" r="5.02" transform="translate(-17.05 41.26) rotate(-51.48)"/>
    </g>
    <g>
      <circle class="cls-2" cx="5.02" cy="5.02" r="5.02" transform="translate(-2.03 5.82) rotate(-51.48)"/>
      <circle class="cls-2" cx="5.02" cy="38.3" r="5.02" transform="translate(-28.08 18.38) rotate(-51.48)"/>
    </g>
  </g>
</svg>