<?xml version="1.0" encoding="UTF-8"?>
<svg id="Capa_1" data-name="Capa 1" xmlns="http://www.w3.org/2000/svg" viewBox="0 0 111.91 99.97">
  <defs>
    <style>
      .cls-1 {
        fill: #fff;
      }

      .cls-2 {
        fill: none;
        stroke: #85754e;
        stroke-miterlimit: 10;
        stroke-width: 1.3px;
      }
    </style>
  </defs>
  <path class="cls-2" d="M12.04,76.54c-6.4,0-11.56,5.27-11.39,11.71s5.42,11.07,11.62,11.07H105.4c3.24,0,5.87-2.63,5.87-5.87V29.18c0-3.24-2.63-5.87-5.87-5.87H20.14"/>
  <path class="cls-2" d="M.65,25.72c0-6.29,5.1-11.39,11.39-11.39h2.75c2.95,0,5.35,2.4,5.35,5.35v56.85H12.04c-6.29,0-11.39,5.1-11.39,11.39V25.72Z"/>
  <polyline class="cls-2" points="20.14 50 81.24 50 81.24 23.31"/>
  <polyline class="cls-2" points="111.26 50 89.93 50 89.93 23.31"/>
  <polyline class="cls-2" points="20.14 59.81 37.78 59.81 66.94 99.32"/>
  <polyline class="cls-2" points="111.26 59.81 49.25 59.81 78.41 99.32"/>
  <g>
    <g>
      <path class="cls-1" d="M89.21,25.09c0-13.5-10.94-24.44-24.44-24.44s-24.44,10.94-24.44,24.44,24.44,33.35,24.44,33.35c0,0,24.44-19.85,24.44-33.35Z"/>
      <path class="cls-2" d="M89.21,25.09c0-13.5-10.94-24.44-24.44-24.44s-24.44,10.94-24.44,24.44,24.44,33.35,24.44,33.35c0,0,24.44-19.85,24.44-33.35Z"/>
    </g>
    <g>
      <circle class="cls-1" cx="64.77" cy="20.4" r="6.46"/>
      <circle class="cls-2" cx="64.77" cy="20.4" r="6.46"/>
    </g>
  </g>
</svg>